<?xml version="1.0" standalone="no"?>
<!DOCTYPE svg PUBLIC "-//W3C//DTD SVG 20010904//EN"
 "http://www.w3.org/TR/2001/REC-SVG-20010904/DTD/svg10.dtd">
<svg version="1.0" xmlns="http://www.w3.org/2000/svg"
 width="300.000000pt" height="300.000000pt" viewBox="0 0 300.000000 300.000000"
 preserveAspectRatio="xMidYMid meet">
<metadata>
Created by potrace 1.10, written by Peter Selinger 2001-2011
</metadata>
<g transform="translate(0.000000,300.000000) scale(0.050000,-0.050000)"
fill="#000000" stroke="none">
<path d="M2386 4611 c-297 -93 -558 -406 -882 -1061 -369 -742 -390 -844 -256
-1218 175 -490 324 -573 1538 -860 697 -164 841 -156 1126 61 235 179 907
1490 912 1780 4 225 -165 651 -318 799 -283 275 -1740 618 -2120 499z m357
-43 c48 -5 103 -9 122 -10 19 0 40 -9 46 -20 6 -10 20 -14 30 -7 10 6 49 3 87
-8 43 -12 75 -12 87 0 13 13 30 10 47 -7 16 -14 51 -27 78 -29 93 -4 102 -7
93 -23 -6 -9 21 -12 58 -8 39 5 69 -1 69 -12 0 -11 16 -18 35 -15 19 3 78 -11
131 -32 54 -21 105 -32 115 -26 11 6 30 4 44 -5 14 -8 30 -16 35 -17 6 0 49
-21 96 -46 53 -28 103 -40 130 -33 31 9 36 7 17 -6 -34 -24 56 -50 110 -32 28
9 30 7 10 -8 -20 -14 -7 -22 48 -33 132 -25 308 -179 292 -256 -2 -8 8 -15 20
-15 13 0 18 -6 11 -13 -7 -7 0 -30 14 -51 43 -60 -1 -204 -158 -516 -53 -105
-125 -260 -161 -346 -67 -158 -320 -630 -378 -704 -17 -22 -58 -75 -91 -118
-33 -43 -60 -66 -60 -52 0 14 -26 -9 -58 -52 -31 -43 -51 -85 -43 -94 16 -17
161 60 161 86 0 8 36 69 80 135 44 66 80 130 80 143 0 12 7 22 15 22 8 0 37
41 63 90 26 49 55 90 65 90 9 0 15 7 13 15 -5 23 90 205 108 205 9 0 16 9 16
20 0 34 183 430 202 437 10 3 18 19 18 35 0 15 10 28 21 28 12 0 16 9 10 19
-18 29 68 205 125 256 52 47 63 47 72 2 3 -15 11 -40 17 -57 45 -129 51 -187
25 -247 -15 -35 -53 -128 -85 -208 -32 -80 -66 -138 -75 -130 -9 8 -10 4 -2
-10 13 -23 -224 -528 -269 -574 -27 -27 -24 -76 4 -59 15 9 18 5 9 -9 -8 -13
-22 -19 -31 -13 -10 5 -42 -33 -72 -85 -272 -470 -438 -612 -772 -657 -82 -11
-491 54 -543 86 -12 7 -40 15 -63 18 -111 11 -218 32 -267 51 -30 11 -72 24
-94 29 -95 19 -130 28 -317 86 -108 34 -207 56 -218 49 -12 -8 -15 -4 -7 10 9
14 0 23 -23 23 -20 0 -46 8 -56 17 -10 10 -66 34 -124 54 -58 20 -105 44 -105
52 0 8 -19 20 -42 27 -22 8 -37 17 -33 22 5 5 -25 44 -67 88 -41 43 -78 104
-82 134 -3 31 -14 53 -24 49 -25 -9 -51 38 -52 92 0 27 12 45 30 45 37 0 39
33 3 54 -15 9 -32 51 -39 94 -7 43 -23 85 -35 93 -17 10 -17 18 -1 28 12 7 22
43 22 79 0 79 37 192 62 192 10 0 18 14 18 31 0 17 7 27 16 22 9 -6 17 7 19
29 1 21 -6 34 -16 27 -41 -25 22 114 75 168 16 15 42 63 59 106 17 42 39 77
48 77 10 0 28 19 40 42 16 30 16 39 1 29 -13 -8 -17 -1 -10 18 7 17 21 31 32
31 11 0 15 13 10 28 -6 15 13 63 42 105 30 42 57 90 61 107 3 16 12 34 20 40
7 5 31 42 52 80 40 71 140 211 212 297 21 25 39 56 39 67 0 12 20 40 45 64 25
23 59 60 75 83 79 108 244 173 393 155 45 -5 122 -14 170 -18z m1458 -2471
c-22 -37 -55 -94 -73 -127 -29 -52 -69 -107 -148 -204 -11 -13 -20 -33 -20
-43 0 -10 -14 -24 -32 -31 -19 -7 -2 28 40 83 39 52 114 164 166 249 52 85 98
151 101 147 4 -3 -11 -37 -34 -74z m-588 -591 c-19 -19 -66 -29 -173 -37 l-90
-8 110 27 c133 32 171 37 153 18z"/>
<path d="M2342 4412 c-41 -49 -19 -103 38 -95 28 4 56 16 62 27 7 11 20 19 30
18 10 -1 18 14 18 33 0 46 -113 59 -148 17z"/>
<path d="M2736 4302 c-80 -27 -144 -76 -112 -87 14 -5 37 6 50 23 22 29 25 28
25 -5 1 -20 12 -32 26 -28 14 5 23 22 20 38 -3 20 15 28 63 28 38 -1 63 -9 58
-18 -6 -9 -28 -12 -48 -7 -21 6 -33 2 -27 -8 17 -27 61 -22 87 9 26 31 270 43
251 12 -12 -19 17 -25 116 -23 31 1 51 -7 44 -17 -6 -10 4 -13 23 -5 24 9 30
5 20 -11 -8 -12 -5 -24 7 -25 11 -2 28 -4 38 -5 44 -7 163 -85 163 -108 0 -14
14 -25 30 -25 17 0 30 -12 30 -26 0 -14 27 -41 60 -61 52 -31 72 -60 55 -78
-10 -11 85 -102 95 -92 47 47 -123 291 -263 376 -219 134 -621 205 -811 143z"/>
<path d="M2920 4042 l-70 -13 97 -15 c262 -38 466 -212 502 -425 15 -91 -54
-312 -94 -304 -13 3 -24 -5 -24 -18 -3 -68 -305 -287 -396 -287 -15 0 -38 -11
-52 -25 -39 -39 -318 -29 -403 14 -181 92 -272 259 -256 468 9 106 8 110 -16
53 -124 -287 204 -781 427 -643 13 8 48 10 78 4 30 -5 64 -2 76 7 11 9 54 21
94 28 402 61 757 588 620 920 -13 31 -23 67 -23 80 -1 17 -6 16 -17 -2 -13
-20 -23 -18 -45 9 -24 30 -24 32 0 18 19 -12 24 -10 14 6 -8 13 -23 23 -34 23
-11 0 -38 17 -60 37 -67 63 -265 93 -418 65z"/>
<path d="M2604 3939 c-130 -65 -235 -176 -252 -265 -5 -29 -15 -62 -22 -74 -7
-11 -4 -20 7 -20 16 0 45 46 51 80 26 148 274 301 494 304 42 0 73 9 67 18
-27 43 -223 18 -345 -43z"/>
<path d="M2555 3505 c-33 -39 -75 -115 -75 -137 0 -8 20 3 45 26 25 22 63 50
85 63 22 12 28 22 14 22 -15 1 -21 9 -15 20 22 35 -24 40 -54 6z"/>
<path d="M3259 3415 c0 -67 -4 -78 -21 -50 -25 43 -61 47 -45 5 8 -21 2 -27
-20 -19 -24 10 -29 0 -23 -49 9 -65 -21 -87 -36 -27 -7 26 -10 23 -12 -11 -1
-26 -9 -42 -17 -37 -8 5 -28 -5 -44 -22 -25 -28 -22 -29 30 -17 33 8 84 14
114 13 46 -1 55 7 55 48 0 35 8 47 29 39 21 -9 27 0 21 30 -4 23 1 42 11 42
21 0 25 61 7 108 -23 60 -48 32 -49 -53z"/>
<path d="M3030 3399 l-60 -39 66 0 c39 0 61 8 54 20 -7 11 -3 20 9 20 11 0 21
9 21 20 0 28 -21 23 -90 -21z"/>
<path d="M2688 3304 c-15 -95 -14 -117 6 -110 14 6 26 19 26 29 0 11 16 15 36
8 41 -13 59 95 24 149 -16 25 -19 25 -20 1 0 -22 -6 -20 -26 7 -23 31 -28 21
-46 -84z"/>
<path d="M1825 3106 c-19 -7 -20 -19 -1 -53 24 -43 36 -82 41 -127 1 -13 8
-20 16 -15 8 5 24 -3 35 -16 20 -25 24 -36 24 -75 0 -11 7 -18 15 -15 9 3 43
-20 75 -50 33 -30 71 -55 85 -55 14 0 25 -13 25 -30 0 -27 101 -44 195 -31 14
1 25 -13 25 -32 0 -26 6 -29 23 -12 17 17 36 16 77 -5 30 -16 60 -23 67 -16 7
6 25 1 40 -11 18 -15 44 -17 74 -7 56 21 28 42 -67 49 -39 3 -65 13 -59 23 6
10 -8 13 -32 7 -24 -6 -43 -5 -43 4 0 8 -38 26 -85 40 -164 49 -382 222 -443
350 -37 77 -51 90 -87 77z"/>
<path d="M3581 3005 c-46 -52 -70 -105 -47 -105 17 0 85 89 85 113 1 13 12 28
26 34 14 5 16 10 5 11 -11 1 -42 -23 -69 -53z"/>
</g>
</svg>
