<svg width="300" height="300" xmlns="http://www.w3.org/2000/svg" preserveAspectRatio="xMidYMid meet">
 <metadata>Created by potrace 1.10, written by Peter Selinger 2001-2011</metadata>

 <g>
  <title>background</title>
  <rect x="-1" y="-1" width="302" height="302" id="canvas_background" fill="none"/>
 </g>
 <g>
  <title>Layer 1</title>
  <g transform="translate(0,300) scale(0.05000000074505806,-0.05000000074505806) " fill="#000000" id="svg_1">
   <path d="m2366,4600c-294,-104 -529,-391 -854,-1041c-322,-643 -376,-826 -314,-1063c150,-577 307,-701 1172,-925c1062,-275 1253,-278 1558,-28c292,242 1071,1877 893,1877c-15,0 -19,15 -11,40c22,70 -143,458 -262,615c-220,288 -1787,666 -2182,525zm493,-50c104,-17 201,-27 215,-21c13,5 30,1 36,-9c6,-9 26,-17 45,-16c44,2 304,-53 429,-91c52,-16 99,-23 105,-17c6,6 11,1 11,-11c0,-11 44,-32 99,-45c78,-19 96,-30 87,-57c-10,-27 -7,-28 15,-8c35,32 107,34 87,2c-10,-16 -1,-20 29,-12c24,6 43,3 43,-7c0,-10 30,-18 68,-18c37,0 78,-13 92,-30c14,-16 37,-30 51,-30c15,0 36,-16 47,-35c12,-19 21,-24 21,-10c1,35 177,-117 184,-159c1,-9 3,-25 5,-37c1,-11 11,-27 22,-35c49,-34 43,-182 -11,-301c-467,-1026 -777,-1555 -949,-1622c-29,-11 -18,-16 41,-16c57,0 87,11 100,35c11,19 61,97 112,172c152,225 315,504 302,516c-6,7 -1,12 12,12c13,0 23,14 23,30c0,17 10,30 21,30c12,0 16,9 10,19c-7,10 6,29 28,40c22,12 35,34 29,49c-9,22 112,285 239,522c18,33 33,72 33,87c0,15 17,48 37,74l37,47l42,-51c22,-29 36,-66 29,-83c-6,-17 -3,-25 7,-19c10,6 29,-10 41,-37c14,-28 15,-48 4,-48c-11,0 -15,-7 -9,-16c44,-73 -421,-1029 -709,-1456c-159,-235 -352,-356 -598,-376c-69,-5 -131,-16 -138,-23c-7,-8 55,-9 138,-4c242,16 439,133 614,365c39,51 38,47 -5,-25c-27,-46 -50,-93 -50,-105c0,-11 -9,-20 -21,-20c-11,0 -44,-22 -73,-48c-28,-27 -102,-73 -164,-104c-62,-31 -116,-61 -122,-67c-13,-14 -56,-18 -231,-24c-153,-4 -226,17 -158,47c29,12 23,14 -23,7c-34,-5 -70,-2 -80,6c-32,27 -154,61 -328,92c-93,17 -201,40 -240,50c-38,11 -146,39 -240,62c-264,66 -892,316 -800,319c21,1 15,12 -18,38c-31,23 -42,46 -32,62c11,17 8,21 -7,12c-13,-8 -23,-2 -23,15c0,16 -9,33 -21,37c-28,9 -120,213 -102,224c24,15 1,152 -24,152c-15,1 -14,7 3,17c21,14 21,32 -3,99c-15,46 -20,78 -11,72c16,-9 28,50 20,97c-1,8 9,15 21,15c13,0 18,5 12,12c-16,16 64,168 88,168c11,0 14,9 7,20c-7,12 -23,15 -35,7c-33,-20 -7,36 75,164c39,61 65,122 57,135c-7,13 -6,18 2,10c14,-13 87,102 97,154c2,10 16,31 30,47c19,21 20,34 2,56c-19,22 -17,26 8,16c23,-9 36,2 45,39c7,29 22,52 32,52c11,0 14,9 7,20c-7,11 1,25 18,32c16,6 35,36 41,66c7,29 34,77 60,105c25,28 62,81 82,119c19,37 54,85 77,105c23,20 42,46 42,59c0,12 18,27 40,33c22,6 43,29 46,51c8,56 166,199 247,223c83,26 230,18 476,-23z" id="svg_2"/>
   <path d="m2342,4412c-59,-70 20,-147 85,-82c17,17 39,31 47,31c9,-1 16,15 16,34c0,46 -113,59 -148,17z" id="svg_3"/>
   <path d="m2702,4289c-140,-30 -177,-49 -97,-49c28,0 55,-9 58,-19c4,-11 27,-15 52,-8c24,6 39,20 32,31c-7,11 6,10 29,-2c53,-28 70,-28 52,1c-10,16 -1,20 29,12c24,-6 43,-4 43,5c0,9 17,12 38,6c21,-5 44,0 51,12c20,32 51,27 51,-9c0,-24 8,-26 40,-9c27,15 40,15 40,1c0,-12 36,-21 80,-21c44,0 80,-7 80,-17c0,-9 12,-16 26,-16c47,0 218,-112 194,-127c-14,-9 0,-19 35,-26c36,-7 76,-38 106,-81c26,-39 55,-66 63,-60c9,5 16,-3 16,-18c0,-15 24,-58 52,-96l52,-69l-13,78c-34,190 -278,415 -501,461c-22,4 -80,17 -130,29c-121,28 -323,25 -478,-9z" id="svg_4"/>
   <path d="m2929,4040c-21,-8 5,-21 74,-37c284,-65 485,-299 449,-523c-14,-92 -65,-194 -108,-219c-19,-11 -26,-20 -16,-20c10,-1 -25,-42 -78,-92c-52,-50 -106,-87 -118,-83c-12,4 -31,-5 -42,-19c-30,-41 -285,-127 -374,-127c-302,0 -512,217 -492,509c8,112 7,116 -16,61c-42,-101 -24,-309 36,-411c64,-109 205,-248 233,-231c11,7 26,3 34,-9c7,-12 27,-16 44,-10c16,6 42,2 56,-10c28,-23 60,7 40,39c-16,26 76,0 94,-26c9,-15 14,-13 15,5c0,18 14,24 40,17c22,-6 35,-2 29,8c-6,10 15,18 47,18c387,0 802,664 604,965c-28,41 -61,71 -75,66c-23,-9 -34,15 -26,57c2,10 -12,6 -32,-10c-22,-18 -29,-19 -20,-3c10,16 2,30 -21,37c-20,6 -54,20 -76,29c-50,22 -255,35 -301,19z" id="svg_5"/>
   <path d="m2665,3962c-130,-44 -266,-157 -250,-207c3,-8 -3,-15 -13,-15c-19,0 -36,-34 -64,-130l-17,-60l38,50c21,27 37,54 35,60c-28,100 257,281 466,296c108,8 136,15 100,26c-86,24 -186,18 -295,-20z" id="svg_6"/>
   <path d="m2965,3681c-16,-25 -17,-43 -4,-52c11,-6 18,-1 14,13c-3,14 13,29 35,33c32,6 34,3 11,-13c-17,-11 -25,-25 -19,-31c7,-6 29,8 50,32c21,24 27,38 14,30c-13,-7 -29,-5 -36,7c-19,30 -38,24 -65,-19z" id="svg_7"/>
   <path d="m2560,3504c-41,-44 -83,-128 -71,-140c6,-5 16,5 23,23c7,18 26,33 42,33c20,0 26,11 18,33c-11,27 -8,29 18,7c26,-22 30,-19 24,17c-9,59 -19,64 -54,27z" id="svg_8"/>
   <path d="m3054,3506c8,-20 16,-25 21,-11c5,14 28,1 57,-31c29,-33 43,-41 36,-19c-7,19 -20,35 -30,35c-10,0 -18,14 -18,30c0,17 -18,30 -39,30c-29,0 -36,-9 -27,-34z" id="svg_9"/>
   <path d="m3268,3490c-7,-27 -7,-63 -1,-80c7,-16 2,-30 -9,-30c-11,0 -14,-11 -6,-25c8,-14 -5,-8 -29,14c-44,38 -45,38 -30,0c13,-38 13,-38 -33,1c-46,40 -46,40 -26,0c20,-38 19,-103 0,-123c-5,-5 -15,14 -22,42c-15,60 -74,68 -115,16c-24,-32 -24,-32 8,-8c28,22 41,23 65,3c38,-32 39,-80 1,-80c-44,0 -53,-31 -10,-35c22,-1 39,6 39,16c0,27 45,14 75,-21c21,-26 23,-24 12,8c-11,29 -7,36 16,28c19,-8 38,8 55,46c14,32 34,58 45,58c11,0 13,-11 4,-25c-11,-19 -7,-19 17,1c35,28 61,104 36,104c-9,0 -22,-11 -29,-25c-6,-14 -8,-5 -3,20c5,25 -2,45 -15,45c-15,1 -15,6 3,17c27,17 13,83 -18,83c-9,0 -23,-22 -30,-50z" id="svg_10"/>
   <path d="m2661,3469c0,-10 13,-35 28,-55c19,-26 22,-54 11,-95c-10,-33 -14,-59 -9,-59c4,0 0,-22 -11,-49c-10,-27 -11,-54 -2,-60c10,-6 22,7 28,29c6,25 27,40 57,41c46,0 46,1 7,32c-39,30 -39,31 10,19c28,-6 39,-7 26,-1c-13,7 -19,25 -13,40c7,17 -19,61 -61,104c-40,40 -72,65 -71,54z" id="svg_11"/>
   <path d="m3053,3410c-17,-16 -39,-30 -49,-30c-11,0 -26,-16 -33,-35c-11,-28 -8,-30 12,-10c14,14 43,25 64,25c22,0 34,6 27,13c-8,7 2,25 21,39c19,15 24,27 11,27c-13,1 -37,-12 -53,-29z" id="svg_12"/>
   <path d="m1809,3123c13,-104 45,-183 76,-183c8,0 15,-10 15,-21c0,-12 -10,-15 -23,-7c-14,9 -18,5 -9,-9c8,-13 25,-23 39,-23c26,0 93,-70 93,-97c0,-9 25,-29 55,-45c30,-15 60,-33 65,-39c16,-18 180,-80 180,-68c0,6 20,-3 44,-20c25,-17 69,-31 99,-31c30,0 59,-8 65,-17c16,-25 97,-17 106,10c7,20 -90,56 -126,47c-8,-2 -19,4 -26,13c-6,9 -61,34 -122,55c-208,70 -376,218 -482,422l-62,120l13,-107z" id="svg_13"/>
   <path d="m3678,3111c-16,-18 -55,-59 -88,-91c-47,-47 -54,-64 -35,-83c19,-19 25,-19 25,-1c0,13 10,24 21,24c12,0 15,-10 7,-23c-8,-14 -5,-18 7,-10c12,7 17,31 11,53c-6,22 -1,40 12,40c12,0 22,13 22,29c0,15 18,31 39,35c28,4 35,14 23,33c-14,22 -22,21 -44,-6z" id="svg_14"/>
  </g>
  <ellipse fill="#fff" stroke="#000" stroke-width="1.5" cx="141.525437" cy="197.79631" id="svg_15" rx="0.847456" ry="0.169491"/>
  <path stroke="#000" id="svg_16" d="m132.285014,247.357992l8.499991,-35.414794l8.499991,35.414794l-4.249996,0l0,35.585203l-8.49999,0l0,-35.585203l-4.249996,0z" stroke-width="1.5" fill="#fff"/>
 </g>
</svg>