<?xml version="1.0" standalone="no"?>
<!DOCTYPE svg PUBLIC "-//W3C//DTD SVG 20010904//EN"
 "http://www.w3.org/TR/2001/REC-SVG-20010904/DTD/svg10.dtd">
<svg version="1.0" xmlns="http://www.w3.org/2000/svg"
 width="1200.000000pt" height="1200.000000pt" viewBox="0 0 1200.000000 1200.000000"
 preserveAspectRatio="xMidYMid meet">
<metadata>
Created by potrace 1.13, written by Peter Selinger 2001-2015
</metadata>
<g transform="translate(0.000000,1200.000000) scale(0.100000,-0.100000)"
fill="#000000" stroke="none">
<path d="M3500 11880 c0 -5 -6 -10 -13 -10 -20 0 -57 -43 -57 -66 0 -29 -70
-94 -101 -94 -30 0 -69 -38 -69 -66 0 -28 -61 -84 -91 -84 -30 0 -69 -38 -69
-66 0 -29 -70 -94 -101 -94 -30 0 -69 -38 -69 -66 0 -28 -61 -84 -91 -84 -30
0 -69 -38 -69 -66 0 -29 -70 -94 -101 -94 -30 0 -69 -38 -69 -66 0 -28 -70
-94 -101 -94 -29 0 -59 -31 -59 -63 0 -29 -18 -47 -45 -47 -29 0 -45 -19 -45
-51 0 -31 -23 -59 -48 -59 -13 0 -26 -25 -50 -92 -33 -95 -38 -124 -24 -130
13 -5 -16 -68 -31 -68 -7 0 -23 -30 -35 -68 -25 -78 -27 -98 -9 -105 8 -4 6
-6 -4 -6 -23 -1 -48 -139 -28 -152 11 -7 11 -9 -2 -9 -22 0 -37 -89 -17 -101
10 -7 9 -9 -3 -9 -12 0 -19 -13 -24 -46 -4 -27 -3 -49 3 -53 6 -4 9 -827 8
-2193 -1 -1743 -4 -2188 -13 -2188 -8 0 -13 -14 -13 -35 0 -24 5 -35 15 -35
13 0 15 -48 15 -370 0 -240 -4 -370 -10 -370 -6 0 -10 -30 -10 -70 0 -56 3
-70 15 -70 8 0 15 -9 15 -20 0 -11 -7 -20 -15 -20 -11 0 -15 -11 -15 -40 0
-29 4 -40 15 -40 13 0 15 -73 17 -592 1 -326 2 -614 2 -640 1 -27 -2 -48 -6
-48 -5 0 -8 -11 -8 -25 0 -19 5 -25 21 -25 11 0 28 -7 36 -16 11 -11 27 -14
50 -11 28 5 33 3 33 -15 0 -18 5 -20 33 -16 57 9 57 10 57 -158 0 -96 -4 -154
-10 -154 -5 0 -10 -16 -10 -35 0 -24 5 -35 15 -35 12 0 15 -17 15 -95 0 -57
-4 -95 -10 -95 -5 0 -10 -13 -10 -30 0 -20 5 -30 15 -30 12 0 15 -15 15 -75 0
-43 -4 -75 -10 -75 -5 0 -10 -11 -10 -25 0 -16 6 -25 15 -25 8 0 15 -9 15 -20
0 -11 -4 -20 -10 -20 -5 0 -10 -11 -10 -25 0 -15 6 -25 14 -25 18 0 34 -112
17 -118 -17 -6 -13 -52 4 -52 18 0 20 -27 3 -32 -17 -6 51 -348 69 -348 17 0
34 -43 20 -51 -15 -10 1 -79 19 -79 16 0 37 -43 23 -48 -12 -5 -12 -52 0 -52
5 0 11 -13 14 -30 5 -21 12 -30 26 -30 22 0 41 -27 34 -48 -10 -26 7 -61 30
-64 18 -2 21 -8 19 -35 -2 -19 1 -33 7 -33 6 0 11 -7 11 -15 0 -8 7 -15 15
-15 8 0 15 -9 15 -20 0 -11 7 -20 15 -20 8 0 15 -9 15 -20 0 -11 7 -20 15 -20
8 0 15 -9 15 -20 0 -11 7 -20 15 -20 8 0 15 -9 15 -20 0 -11 7 -20 15 -20 8 0
15 -9 15 -20 0 -11 7 -20 15 -20 8 0 15 -9 15 -20 0 -11 7 -20 15 -20 8 0 15
-9 15 -20 0 -11 7 -20 15 -20 8 0 15 -9 15 -20 0 -11 7 -20 15 -20 8 0 15 -8
15 -18 0 -24 91 -112 116 -112 26 0 64 -40 64 -68 0 -17 6 -22 25 -22 14 0 25
5 25 10 0 6 18 10 40 10 29 0 40 -4 40 -15 0 -9 9 -15 25 -15 14 0 25 5 25 10
0 6 25 10 55 10 42 0 55 -3 55 -15 0 -9 9 -15 25 -15 14 0 25 5 25 10 0 6 25
10 55 10 42 0 55 -3 55 -15 0 -9 9 -15 25 -15 14 0 25 5 25 10 0 6 25 10 55
10 42 0 55 -3 55 -15 0 -9 9 -15 25 -15 14 0 25 5 25 10 0 6 25 10 55 10 42 0
55 -3 55 -15 0 -9 9 -15 25 -15 14 0 25 5 25 10 0 6 23 10 50 10 38 0 50 -4
50 -15 0 -9 9 -15 25 -15 14 0 25 5 25 10 0 6 25 10 55 10 42 0 55 -3 55 -15
0 -9 9 -15 25 -15 14 0 25 5 25 10 0 6 25 10 55 10 42 0 55 -3 55 -15 0 -9 9
-15 25 -15 14 0 25 5 25 10 0 6 25 10 55 10 42 0 55 -3 55 -15 0 -9 9 -15 25
-15 14 0 25 5 25 10 0 6 23 10 50 10 38 0 50 -4 50 -15 0 -9 9 -15 25 -15 14
0 25 5 25 10 0 6 25 10 55 10 42 0 55 -3 55 -15 0 -9 9 -15 25 -15 14 0 25 5
25 10 0 6 25 10 55 10 42 0 55 -3 55 -15 0 -9 9 -15 25 -15 14 0 25 5 25 10 0
6 25 10 55 10 42 0 55 -3 55 -15 0 -9 9 -15 25 -15 14 0 25 5 25 10 0 6 25 10
55 10 42 0 55 -3 55 -15 0 -9 9 -15 25 -15 14 0 25 5 25 10 0 6 25 10 55 10
42 0 55 -3 55 -15 0 -9 9 -15 25 -15 14 0 25 5 25 10 0 6 25 10 55 10 42 0 55
-3 55 -15 0 -10 10 -15 30 -15 17 0 30 5 30 10 0 6 25 10 55 10 42 0 55 -3 55
-15 0 -9 9 -15 25 -15 14 0 25 5 25 10 0 6 25 10 55 10 42 0 55 -3 55 -15 0
-9 9 -15 25 -15 14 0 25 5 25 10 0 6 25 10 55 10 42 0 55 -3 55 -15 0 -9 9
-15 25 -15 14 0 25 5 25 10 0 6 25 10 55 10 42 0 55 -3 55 -15 0 -10 10 -15
30 -15 17 0 30 5 30 10 0 6 25 10 55 10 42 0 55 -3 55 -15 0 -9 9 -15 25 -15
14 0 25 5 25 10 0 6 25 10 55 10 42 0 55 -3 55 -15 0 -9 9 -15 25 -15 14 0 25
5 25 10 0 6 20 10 45 10 33 0 45 -4 45 -15 0 -9 9 -15 25 -15 14 0 25 5 25 10
0 6 23 10 50 10 38 0 50 -4 50 -15 0 -9 9 -15 25 -15 14 0 25 5 25 10 0 6 20
10 45 10 33 0 45 -4 45 -15 0 -9 9 -15 25 -15 14 0 25 5 25 10 0 6 20 10 45
10 33 0 45 -4 45 -15 0 -9 9 -15 25 -15 14 0 25 5 25 10 0 6 23 10 50 10 38 0
50 -4 50 -15 0 -9 9 -15 25 -15 14 0 25 5 25 10 0 6 20 10 45 10 33 0 45 -4
45 -15 0 -10 10 -15 30 -15 17 0 30 5 30 10 0 6 30 10 70 10 56 0 70 -3 70
-15 0 -9 9 -15 25 -15 14 0 25 5 25 10 0 6 27 10 60 10 47 0 60 -3 60 -15 0
-9 9 -15 25 -15 14 0 25 5 25 10 0 6 27 10 60 10 47 0 60 -3 60 -15 0 -10 10
-15 30 -15 17 0 30 5 30 10 0 6 25 10 55 10 42 0 55 -3 55 -15 0 -10 10 -15
30 -15 17 0 30 5 30 10 0 6 25 10 55 10 42 0 55 -3 55 -15 0 -10 10 -15 30
-15 17 0 30 5 30 10 0 6 25 10 55 10 42 0 55 -3 55 -15 0 -10 10 -15 30 -15
17 0 30 5 30 10 0 6 27 10 60 10 47 0 60 -3 60 -15 0 -9 9 -15 25 -15 14 0 25
5 25 10 0 6 27 10 60 10 47 0 60 -3 60 -15 0 -9 9 -15 25 -15 14 0 25 5 25 10
0 6 27 10 60 10 47 0 60 -3 60 -15 0 -9 9 -15 25 -15 14 0 25 5 25 10 0 6 28
10 65 10 51 0 65 -3 65 -15 0 -9 9 -15 25 -15 14 0 25 5 25 10 0 6 27 10 60
10 47 0 60 -3 60 -15 0 -10 10 -15 30 -15 17 0 30 5 30 10 0 6 35 10 85 10 69
0 85 -3 85 -15 0 -10 10 -15 30 -15 17 0 30 5 30 10 0 6 35 10 85 10 69 0 85
-3 85 -15 0 -10 10 -15 30 -15 17 0 30 5 30 10 0 6 13 10 28 10 21 0 43 15 87
60 42 42 67 60 85 60 27 0 110 74 110 98 0 7 9 12 20 12 11 0 20 -5 20 -11 0
-6 12 -9 28 -7 20 2 28 9 30 28 5 33 20 50 43 50 14 0 19 7 19 25 0 14 -4 25
-10 25 -7 0 -10 317 -10 930 0 613 3 930 10 930 6 0 10 28 10 65 0 53 -3 65
-16 65 -15 0 -16 143 -9 1787 4 1018 11 1789 16 1791 5 2 9 82 9 178 0 148 -2
174 -15 174 -13 0 -15 48 -15 370 0 322 2 370 15 370 13 0 15 79 15 650 0 427
-3 650 -10 650 -7 0 -10 477 -10 1410 0 933 3 1410 10 1410 6 0 10 11 10 24 0
31 -41 76 -69 76 -16 0 -21 6 -21 28 0 34 -16 52 -46 52 -18 0 -23 6 -26 33
-2 26 -8 33 -28 35 -35 5 -50 20 -50 51 0 32 -17 51 -45 51 -25 0 -65 39 -65
63 0 11 -8 17 -25 17 -14 0 -25 -4 -25 -10 0 -6 -47 -10 -120 -10 -100 0 -120
3 -120 15 0 9 -9 15 -25 15 -14 0 -25 -4 -25 -10 0 -6 -53 -10 -140 -10 -118
0 -140 2 -140 15 0 10 -11 15 -35 15 -19 0 -35 -4 -35 -10 0 -12 -102 -13
-318 -3 -117 5 -152 9 -152 20 0 10 -18 13 -70 13 -40 0 -70 -4 -70 -10 0 -6
-35 -10 -85 -10 -69 0 -85 3 -85 15 0 10 -10 15 -30 15 -16 0 -30 -4 -30 -10
0 -6 -48 -10 -125 -10 -104 0 -125 2 -125 15 0 11 -12 15 -45 15 -25 0 -45 -4
-45 -10 0 -6 -43 -10 -110 -10 -91 0 -110 3 -110 15 0 10 -10 15 -30 15 -16 0
-30 -4 -30 -10 0 -6 -48 -10 -125 -10 -104 0 -125 2 -125 15 0 11 -12 15 -50
15 -27 0 -50 -4 -50 -10 0 -6 -48 -10 -125 -10 -104 0 -125 2 -125 15 0 11
-11 15 -40 15 -23 0 -40 -5 -40 -12 0 -8 -64 -9 -247 -4 -434 11 -533 17 -533
32 0 9 -11 14 -30 14 -16 0 -30 -4 -30 -10 0 -6 -43 -10 -110 -10 -91 0 -110
3 -110 15 0 12 -14 15 -65 15 -37 0 -65 -4 -65 -10 0 -6 -33 -10 -80 -10 -64
0 -80 3 -80 15 0 11 -11 15 -40 15 -22 0 -40 -4 -40 -10 0 -6 -42 -10 -105
-10 -87 0 -105 3 -105 15 0 12 -13 15 -55 15 -30 0 -55 -4 -55 -10 0 -6 -38
-10 -95 -10 -78 0 -95 3 -95 15 0 12 -14 15 -65 15 -37 0 -65 -4 -65 -10 0 -6
-38 -10 -95 -10 -78 0 -95 3 -95 15 0 10 -10 15 -30 15 -16 0 -30 -4 -30 -10
0 -6 -48 -10 -125 -10 -104 0 -125 2 -125 15 0 12 -15 15 -75 15 -43 0 -75 -4
-75 -10 0 -12 -129 -13 -337 -3 -110 5 -143 9 -143 20 0 8 -12 13 -30 13 -16
0 -30 -4 -30 -10 0 -6 -50 -10 -130 -10 -109 0 -130 2 -130 15 0 12 -15 15
-75 15 -43 0 -75 -4 -75 -10z m590 -81 c63 -5 189 -9 280 -9 202 0 1126 -30
2330 -75 212 -8 480 -17 595 -20 843 -23 2456 -77 2534 -85 2 0 -149 -99 -337
-221 l-341 -220 -205 -230 -205 -230 -94 -183 -93 -182 -77 -307 -77 -307 -20
-397 c-11 -219 -17 -434 -15 -478 3 -44 12 -1196 20 -2560 8 -1364 17 -2736
21 -3049 l6 -569 -149 7 c-219 9 -506 25 -888 47 -574 33 -531 32 -577 5 -22
-13 -34 -26 -27 -28 7 -2 -10 -15 -37 -27 -27 -13 -77 -49 -111 -81 -254 -238
-578 -398 -913 -451 -106 -17 -408 -17 -510 -1 -408 67 -760 250 -1056 547
-61 61 -128 137 -149 168 -43 65 -34 63 -260 72 -282 11 -1197 61 -1303 71
-58 5 -64 8 -73 33 -8 23 -27 35 -97 66 -48 20 -91 41 -97 46 -13 12 -11 -89
-25 1469 -6 762 -10 2256 -8 3320 l3 1935 37 191 c20 104 55 244 78 310 22 65
52 155 67 199 15 44 38 90 50 103 13 13 23 28 23 34 0 22 117 137 703 690
l442 417 220 -5 c121 -3 272 -10 335 -15z m5917 -231 c23 -24 93 -104 157
-178 l116 -135 0 -4027 0 -4027 -57 -21 c-32 -12 -128 -46 -213 -75 -227 -78
-398 -139 -740 -264 -349 -128 -330 -124 -792 -155 l-58 -4 0 256 c-1 673 -39
5933 -44 5940 -2 4 4 194 15 422 l19 415 76 310 77 310 91 180 91 180 204 230
203 230 347 226 346 227 60 1 c59 1 62 0 102 -41z"/>
<path d="M5070 6852 c-108 -74 -169 -187 -178 -331 -5 -98 9 -173 48 -252 34
-67 120 -162 120 -133 1 15 4 13 16 -8 8 -16 17 -28 20 -28 3 0 2 5 -1 10 -3
6 1 10 10 10 9 0 14 -4 11 -9 -3 -4 6 -19 20 -32 20 -18 27 -21 33 -10 7 11
13 9 30 -8 11 -11 28 -21 38 -21 15 0 15 1 0 18 -22 24 -21 28 6 36 l22 7 -25
10 c-14 6 -38 8 -53 5 -20 -4 -37 0 -54 14 -14 11 -29 17 -34 14 -5 -3 -9 0
-9 7 0 7 -7 20 -16 30 -20 22 -47 68 -81 139 -23 47 -27 68 -27 145 -1 118 31
194 109 261 29 24 57 44 63 44 6 0 14 5 18 12 5 8 -2 9 -24 5 -18 -4 -32 -5
-32 -2 0 10 43 75 50 75 4 0 10 7 14 15 10 27 -37 16 -94 -23z"/>
<path d="M5605 6768 c-2 -7 -3 -22 -2 -33 1 -14 -3 -19 -15 -17 -10 2 -18 -2
-18 -9 0 -6 -7 -9 -15 -5 -10 4 -15 -1 -15 -15 0 -19 -3 -19 -37 9 -39 30 -96
62 -110 62 -4 0 0 -5 10 -11 17 -10 16 -12 -5 -35 -13 -13 -28 -24 -34 -24
-28 0 -18 -29 22 -66 62 -54 86 -104 92 -191 3 -50 1 -73 -6 -73 -7 0 -9 11
-5 31 4 21 1 34 -8 40 -8 4 -14 25 -14 48 0 25 -4 41 -11 41 -7 0 -16 14 -19
32 -10 42 -26 68 -44 68 -11 0 -11 -4 3 -19 16 -17 15 -19 -15 -25 -44 -9 -43
-9 -57 23 -12 26 -17 29 -49 25 -20 -3 -39 -7 -44 -10 -7 -4 -29 26 -29 40 0
2 14 7 30 11 35 8 40 25 8 25 -31 -1 -108 -36 -124 -58 -7 -9 -18 -17 -26 -17
-24 0 -52 -76 -54 -150 -2 -38 0 -59 3 -45 4 21 9 14 24 -37 20 -65 88 -151
109 -138 6 3 10 1 10 -5 0 -17 51 -32 75 -22 41 18 88 31 96 26 5 -2 17 4 29
16 19 19 50 27 50 13 0 -3 -8 -15 -17 -26 -17 -19 -17 -20 4 -8 32 16 49 15
33 -4 -11 -13 -7 -15 26 -16 62 -2 67 0 102 38 17 20 32 32 32 26 0 -5 -11
-22 -25 -37 -32 -34 -25 -46 27 -46 31 0 41 4 45 20 3 11 14 20 24 20 11 0 19
5 19 10 0 6 8 10 18 10 57 0 79 250 32 360 -33 76 -67 125 -88 125 -11 0 -16
6 -14 18 3 19 -16 24 -23 5z"/>
<path d="M4967 5067 c-32 -13 -54 -27 -50 -31 5 -5 -2 -5 -14 -2 -12 4 -24 2
-29 -5 -5 -8 -3 -9 6 -4 8 5 11 4 6 -3 -4 -6 -13 -9 -21 -6 -23 9 -136 -78
-212 -161 -64 -71 -99 -122 -140 -205 -10 -19 -22 -38 -28 -42 -5 -4 -6 -10
-3 -13 4 -4 -2 -24 -13 -44 -16 -31 -48 -197 -49 -251 0 -13 -1 -13 -10 0 -11
17 -6 -215 5 -294 11 -68 25 -56 20 17 l-4 62 8 -52 c5 -29 12 -64 15 -78 4
-14 7 -28 8 -32 7 -31 93 -83 136 -83 86 0 102 38 95 230 -5 128 -3 155 16
230 12 47 39 116 59 155 51 97 171 215 284 280 48 28 101 58 117 67 68 39 63
172 -9 243 -50 49 -107 56 -193 22z"/>
<path d="M5551 5041 c-11 -11 -27 -30 -35 -44 -19 -28 -24 -109 -8 -115 7 -2
12 -12 12 -21 0 -20 47 -68 56 -58 12 12 179 -82 236 -133 110 -98 193 -221
236 -349 27 -81 27 -100 0 -41 -12 25 -20 49 -19 53 1 4 -6 18 -14 30 -16 22
-16 21 -9 -8 4 -16 16 -54 26 -83 15 -41 21 -92 26 -220 4 -100 11 -167 17
-167 5 0 17 -13 25 -30 8 -16 34 -44 58 -62 35 -27 53 -33 91 -33 59 0 65 10
82 147 53 442 -219 932 -624 1124 -73 34 -128 38 -156 10z"/>
<path d="M4773 3583 c-52 -10 -98 -101 -79 -160 9 -27 56 -74 67 -67 5 3 40
-19 77 -49 229 -187 481 -268 737 -237 123 15 209 40 305 92 124 65 170 121
170 203 0 59 -21 98 -72 135 -53 39 -102 48 -128 25 -10 -9 -22 -15 -27 -12
-5 3 -17 -1 -28 -9 -10 -8 -14 -14 -9 -14 6 0 17 6 24 12 11 10 11 9 0 -4 -57
-62 -290 -138 -423 -138 -128 1 -300 64 -407 151 -30 25 -66 52 -80 62 -23 16
-75 20 -127 10z"/>
</g>
</svg>
