<?xml version="1.0" standalone="no"?>
<!DOCTYPE svg PUBLIC "-//W3C//DTD SVG 20010904//EN"
 "http://www.w3.org/TR/2001/REC-SVG-20010904/DTD/svg10.dtd">
<svg version="1.0" xmlns="http://www.w3.org/2000/svg"
 width="1135.000000pt" height="310.000000pt" viewBox="0 0 1135.000000 310.000000"
 preserveAspectRatio="xMidYMid meet">
<metadata>
Created by potrace 1.13, written by Peter Selinger 2001-2015
</metadata>
<g transform="translate(0.000000,310.000000) scale(0.100000,-0.100000)"
fill="#000000" stroke="none">
<path d="M0 1550 l0 -1550 5675 0 5675 0 0 1550 0 1550 -5675 0 -5675 0 0
-1550z m938 1165 c2 -16 7 -41 12 -55 4 -14 11 -37 14 -52 l6 -28 -373 0
c-283 0 -377 3 -389 13 -17 13 -27 45 -35 115 l-5 42 383 -2 384 -3 3 -30z
m1578 24 c3 -6 1 -16 -5 -22 -6 -6 -11 -21 -11 -34 0 -24 -14 -54 -39 -85 -13
-17 -44 -18 -383 -18 -340 0 -393 4 -358 25 6 3 10 17 10 30 0 13 5 27 10 30
6 3 10 24 10 46 l0 39 379 0 c263 0 382 -3 387 -11z m849 -74 l0 -80 -390 0
-390 0 -3 83 -3 82 393 -2 393 -3 0 -80z m1280 75 c3 -5 30 -10 60 -10 30 0
57 -4 60 -10 3 -5 19 -10 36 -10 16 0 37 -4 47 -8 9 -5 51 -25 92 -46 41 -20
82 -36 91 -36 16 0 39 -19 39 -32 0 -4 -263 -8 -585 -8 -322 0 -585 3 -585 8
1 4 47 29 103 56 56 27 110 53 119 57 10 5 27 9 37 9 11 0 23 5 26 10 3 6 26
10 50 10 24 0 47 5 50 10 4 6 75 10 180 10 105 0 176 -4 180 -10z m1800 -75
l0 -80 -390 0 -390 0 -3 69 c-2 38 -1 75 2 83 5 11 74 13 393 11 l388 -3 0
-80z m3359 43 c12 -21 31 -53 42 -71 12 -19 19 -40 15 -46 -5 -8 -121 -11
-427 -9 l-419 3 -3 69 c-2 38 -1 75 2 83 5 11 73 13 388 11 l382 -3 20 -37z
m1334 -40 l-3 -83 -380 0 -380 0 -3 69 c-2 38 -1 75 2 83 4 11 76 13 386 13
l381 0 -3 -82z m-3183 32 c3 -5 22 -10 40 -10 30 0 73 -14 127 -41 10 -5 27
-9 37 -9 11 0 23 -4 26 -10 3 -5 17 -10 29 -10 25 0 51 -22 39 -33 -8 -9 -968
-9 -976 0 -12 11 14 33 39 33 12 0 26 5 29 10 3 6 17 10 30 10 13 0 27 5 30
10 3 6 16 10 28 10 12 0 31 7 41 15 11 8 37 15 57 15 21 0 41 5 44 10 4 6 78
10 190 10 112 0 186 -4 190 -10z m-6973 -157 c16 -18 28 -59 31 -103 l2 -25
-382 -3 c-354 -2 -383 -1 -383 15 0 19 -18 79 -31 105 -5 10 -9 20 -9 23 0 3
170 5 378 5 348 0 380 -1 394 -17z m1462 -20 c-4 -21 -10 -42 -14 -48 -5 -5
-10 -21 -12 -35 l-3 -25 -372 -3 -373 -2 0 29 c0 17 5 33 10 36 6 3 10 21 10
39 0 18 3 36 7 39 3 4 175 7 380 7 l374 0 -7 -37z m921 -38 l0 -70 -390 0
-390 0 -3 59 c-2 32 -1 65 2 72 5 12 72 14 393 12 l388 -3 0 -70z m1803 45
c15 -16 31 -30 36 -30 18 0 75 -62 69 -76 -4 -12 -132 -14 -789 -14 -431 0
-784 3 -784 6 0 13 94 115 119 128 21 11 142 14 674 15 l649 1 26 -30z m1277
-45 l0 -70 -390 0 -390 0 -3 59 c-2 32 -1 65 2 72 5 12 72 14 393 12 l388 -3
0 -70z m1946 49 c48 -30 129 -103 129 -115 0 -12 -1507 -12 -1514 0 -6 9 68
81 83 81 5 0 16 6 23 13 51 48 22 46 651 46 l587 1 41 -26z m1506 4 c22 -24
46 -68 57 -106 l7 -22 -473 2 -473 3 -3 59 c-2 32 -1 65 2 72 4 12 82 14 434
14 l429 0 20 -22z m1238 -53 l0 -70 -380 0 -380 0 -3 59 c-2 32 -1 65 2 73 5
11 70 13 383 11 l378 -3 0 -70z m-10092 -127 c8 -18 20 -53 27 -78 7 -25 17
-55 22 -67 6 -12 8 -29 5 -37 -6 -14 -51 -16 -387 -16 l-380 0 0 34 c0 19 -4
38 -10 41 -5 3 -10 17 -10 30 0 14 -9 41 -21 61 -37 66 -50 64 365 64 l375 0
14 -32z m1352 22 c3 -5 -1 -20 -10 -33 -8 -13 -12 -26 -9 -30 4 -4 -1 -18 -10
-33 -10 -14 -15 -28 -12 -31 3 -3 0 -15 -6 -26 -6 -12 -11 -30 -12 -42 -1 -20
-5 -20 -376 -20 -364 0 -375 1 -379 20 -2 10 3 33 11 50 19 38 38 97 38 116 0
38 15 39 391 39 227 0 370 -4 374 -10z m973 -107 l3 -113 -396 0 -395 0 0 108
c0 60 3 112 7 115 4 4 180 6 392 5 l386 -3 3 -112z m1999 8 c29 -57 50 -108
47 -112 -8 -14 -1851 -11 -1860 2 -3 6 -1 16 5 22 6 6 11 21 11 33 0 13 5 26
10 29 6 3 10 14 10 24 0 10 9 26 20 36 11 10 20 23 20 28 0 6 7 19 17 29 15
17 52 18 842 16 l826 -3 52 -104z m1081 -8 l3 -113 -396 0 -395 0 0 108 c0 60
3 112 7 115 4 4 180 6 392 5 l386 -3 3 -112z m2184 60 c32 -32 58 -65 58 -73
0 -9 14 -29 30 -45 17 -16 30 -35 30 -42 0 -11 -178 -13 -984 -13 -542 0 -987
4 -990 8 -6 11 42 82 110 158 l56 64 816 0 816 0 58 -57z m1360 40 c8 -10 23
-36 32 -58 10 -22 29 -62 42 -89 13 -28 20 -54 16 -58 -5 -5 -246 -7 -538 -6
l-529 3 -3 99 c-1 55 0 106 2 113 4 10 97 13 484 13 444 0 480 -1 494 -17z
m1146 -101 l3 -112 -383 2 -383 3 -3 99 c-1 55 0 106 2 113 5 11 76 13 383 11
l378 -3 3 -113z m-10014 -164 c9 -17 16 -39 16 -49 0 -10 9 -34 20 -54 l20
-35 -383 0 c-405 0 -407 0 -407 46 0 13 -4 26 -10 29 -5 3 -10 19 -10 35 0 16
-6 32 -12 37 -7 4 158 10 367 13 209 3 381 6 382 8 1 1 9 -12 17 -30z m3251
22 c3 -6 -4 -14 -17 -19 -41 -16 -58 -47 -58 -106 l0 -55 -382 0 -383 0 -12
27 c-16 33 -17 53 -3 53 6 0 10 22 10 50 l0 50 408 3 c224 1 412 3 419 5 6 1
15 -3 18 -8z m668 0 l397 0 0 -83 c0 -51 -5 -88 -12 -95 -15 -15 -724 -17
-747 -3 -12 8 -13 15 -3 35 14 32 -6 75 -53 113 -36 29 -37 48 -1 39 11 -3
200 -6 419 -6z m3740 0 c4 0 7 -6 7 -13 0 -8 9 -22 20 -32 11 -10 20 -22 20
-27 0 -4 10 -29 21 -53 12 -25 20 -48 17 -50 -2 -3 -197 -5 -432 -5 -385 -1
-430 1 -447 16 -38 34 -112 64 -160 64 -26 0 -51 5 -55 11 -4 8 -9 8 -17 0 -6
-6 -30 -11 -53 -11 -24 0 -46 -4 -49 -10 -3 -5 -17 -10 -29 -10 -13 0 -29 -7
-36 -15 -37 -44 -52 -46 -500 -45 -233 0 -428 4 -432 8 -9 9 36 104 57 122 8
7 15 18 15 24 0 7 4 16 9 22 8 7 1452 10 2044 4z m1332 2 c6 -4 19 -25 31 -47
11 -22 31 -57 42 -78 12 -21 22 -42 22 -47 0 -7 -213 -9 -597 -8 l-598 3 0 85
0 85 540 5 c297 3 542 6 545 7 3 2 10 -1 15 -5z m-7801 -11 c3 -4 -1 -17 -9
-27 -8 -10 -15 -29 -15 -41 0 -12 -4 -25 -10 -28 -5 -3 -10 -17 -10 -31 l0
-24 -380 0 -379 0 6 33 c3 17 10 38 16 45 5 7 11 20 12 30 5 55 -14 52 390 52
206 0 376 -4 379 -9z m1056 -71 l0 -80 -395 0 -395 0 0 80 0 80 395 0 395 0 0
-80z m3080 -10 l0 -90 -395 0 -395 0 0 90 0 90 395 0 395 0 0 -90z m4690 0 l0
-90 -382 2 -383 3 -3 88 -3 87 386 0 385 0 0 -90z m-9953 -127 c7 -15 13 -37
13 -49 0 -13 5 -26 10 -29 6 -3 10 -17 10 -30 0 -13 5 -27 10 -30 6 -3 10 -16
10 -29 0 -12 5 -27 11 -33 7 -7 9 -19 6 -27 -6 -15 -48 -16 -384 -14 l-378 3
-3 25 c-2 14 -8 29 -13 35 -5 5 -9 19 -9 31 0 13 -4 26 -10 29 -5 3 -10 19
-10 35 0 16 -4 32 -10 35 -5 3 -10 16 -10 29 0 12 -5 27 -12 34 -9 9 73 12
373 12 l384 0 12 -27z m588 17 c4 -7 89 -10 238 -10 215 1 261 -4 228 -25 -6
-3 -11 -17 -11 -30 0 -13 -4 -27 -10 -30 -5 -3 -10 -15 -10 -26 0 -10 -4 -27
-9 -37 -5 -9 -15 -36 -22 -59 l-12 -43 -368 0 c-258 0 -370 3 -375 11 -6 11
10 78 27 111 5 10 9 27 9 37 0 11 5 23 10 26 6 3 10 21 10 39 0 18 3 36 7 39
11 12 281 8 288 -3z m1593 -132 l-3 -123 -390 0 -390 0 -3 123 -3 122 396 0
396 0 -3 -122z m997 102 c20 -11 44 -20 55 -20 10 0 22 -4 25 -10 3 -5 35 -10
70 -10 35 0 67 -4 70 -10 3 -5 30 -10 60 -10 30 0 57 -4 60 -10 3 -5 30 -10
60 -10 30 0 57 -4 60 -10 3 -5 17 -10 30 -10 13 0 27 -4 30 -10 3 -5 15 -10
25 -10 10 0 31 -6 47 -14 15 -8 55 -27 87 -43 33 -15 61 -34 64 -40 3 -10
-150 -13 -741 -13 l-745 0 -36 73 c-20 40 -36 82 -36 94 0 12 -4 25 -10 28 -5
3 -10 17 -10 31 l0 24 400 0 c381 0 401 -1 435 -20z m2083 -102 l-3 -123 -390
0 -390 0 -3 123 -3 122 396 0 396 0 -3 -122z m1021 85 c-44 -74 -79 -145 -79
-161 0 -8 -7 -24 -17 -34 -15 -17 -41 -18 -404 -18 -385 0 -420 3 -390 33 6 6
11 28 11 48 0 21 5 41 10 44 6 3 10 19 10 34 0 15 7 42 16 59 l15 32 426 0
425 0 -23 -37z m1429 10 c6 -15 12 -42 12 -59 0 -18 5 -36 10 -39 6 -3 10 -21
10 -40 0 -19 5 -37 10 -40 6 -3 10 -15 10 -26 0 -19 -9 -19 -392 -17 l-393 3
-3 23 c-2 13 -17 48 -33 78 -16 31 -29 61 -29 67 0 6 -14 26 -32 44 l-32 33
425 0 424 0 13 -27z m1368 -21 c12 -26 29 -63 38 -83 8 -20 22 -42 31 -49 8
-7 15 -19 15 -26 0 -8 4 -14 10 -14 5 0 11 47 12 108 l3 107 383 3 382 2 0
-125 0 -125 -1062 2 -1063 3 -3 109 c-1 61 0 116 2 123 4 11 121 13 618 13
l613 0 21 -48z m-8988 -252 c2 -14 8 -29 13 -35 5 -5 9 -19 9 -31 0 -13 5 -26
10 -29 6 -3 10 -19 10 -36 0 -16 3 -29 8 -29 8 0 52 95 52 114 0 7 7 27 16 44
l15 32 365 0 c322 0 365 -2 371 -16 3 -8 1 -20 -6 -27 -6 -6 -11 -21 -11 -33
0 -13 -4 -26 -10 -29 -5 -3 -10 -19 -10 -35 0 -16 -4 -32 -10 -35 -5 -3 -10
-17 -10 -30 0 -13 -4 -27 -10 -30 -5 -3 -10 -16 -10 -27 0 -12 -7 -30 -17 -40
-15 -17 -51 -18 -724 -18 l-707 0 -26 52 c-14 29 -26 62 -26 74 0 13 -4 26
-10 29 -5 3 -10 17 -10 30 0 13 -4 27 -10 30 -5 3 -10 16 -10 29 0 12 -5 27
-11 33 -7 7 -9 19 -6 27 6 15 48 16 384 14 l378 -3 3 -25z m2087 -130 l0 -155
-390 0 -390 0 -3 145 c-1 79 0 150 2 157 4 11 81 13 393 11 l388 -3 0 -155z
m1858 134 c47 -30 217 -192 217 -208 0 -5 10 -20 21 -32 12 -13 19 -30 16 -38
-6 -14 -84 -16 -711 -16 l-704 0 -69 37 c-37 20 -80 42 -94 50 -15 7 -32 20
-39 28 -7 8 -18 15 -25 15 -6 0 -20 9 -30 20 -10 11 -23 20 -29 20 -25 0 -116
109 -116 139 0 8 229 11 760 11 l760 0 43 -26z m1222 -134 l0 -155 -390 0
-390 0 -3 145 c-1 79 0 150 2 157 4 11 81 13 393 11 l388 -3 0 -155z m923 131
c2 -13 -1 -28 -7 -34 -15 -15 -14 -200 0 -214 7 -7 9 -19 6 -27 -6 -15 -49
-16 -399 -14 l-393 3 -3 145 c-1 79 0 150 2 157 4 11 82 13 398 11 l393 -3 3
-24z m1580 -134 l3 -157 -383 2 -383 3 -3 145 c-1 79 0 150 2 157 4 11 79 13
383 11 l378 -3 3 -158z m2190 1 l3 -158 -665 0 c-453 0 -667 3 -671 10 -5 8
-11 8 -20 0 -8 -7 -135 -9 -391 -8 l-379 3 -3 145 c-1 79 0 150 2 157 4 11
202 13 1063 11 l1058 -3 3 -157z m-9110 -227 c2 -13 -1 -28 -7 -34 -6 -6 -11
-21 -11 -33 0 -13 -4 -26 -10 -29 -5 -3 -10 -19 -10 -35 0 -16 -5 -32 -10 -35
-6 -3 -10 -17 -10 -30 0 -13 -4 -27 -10 -30 -5 -3 -10 -17 -10 -30 0 -13 -4
-27 -10 -30 -5 -3 -10 -19 -10 -35 0 -16 -4 -32 -10 -35 -5 -3 -10 -17 -10
-30 0 -13 -4 -27 -10 -30 -5 -3 -10 -15 -10 -25 0 -11 -9 -35 -20 -55 -11 -20
-20 -46 -20 -60 0 -13 -4 -27 -10 -30 -5 -3 -10 -17 -10 -30 0 -13 -4 -27 -10
-30 -5 -3 -10 -15 -10 -26 0 -10 -4 -27 -9 -37 -5 -9 -14 -37 -21 -62 -7 -25
-16 -53 -21 -62 -5 -10 -9 -26 -9 -36 0 -10 -4 -22 -9 -28 -5 -5 -11 -20 -13
-34 l-3 -25 -379 -3 c-271 -1 -383 1 -392 9 -8 6 -14 22 -14 35 0 12 -4 26
-10 29 -5 3 -10 14 -10 24 0 9 -9 36 -20 59 -11 22 -20 50 -20 60 0 11 -7 25
-15 32 -9 7 -14 18 -12 24 2 6 -2 23 -9 37 -7 15 -11 29 -8 32 3 3 -1 18 -9
34 -17 30 -31 81 -28 99 0 6 -6 17 -14 24 -8 7 -15 25 -15 41 0 15 -4 31 -10
34 -5 3 -10 17 -10 30 0 13 -4 27 -10 30 -5 3 -10 17 -10 30 0 13 -4 27 -10
30 -5 3 -10 19 -10 35 0 16 -4 32 -10 35 -5 3 -10 17 -10 30 0 13 -4 27 -10
30 -5 3 -10 17 -10 30 0 13 -4 27 -10 30 -5 3 -10 19 -10 34 0 15 -5 32 -11
38 -32 32 2 33 694 31 l692 -3 3 -24z m1340 -468 l2 -493 -395 0 -395 0 0 495
0 495 393 -2 392 -3 3 -492z m2150 467 c2 -14 8 -29 13 -34 5 -6 9 -47 9 -93
0 -48 5 -91 12 -103 10 -15 10 -22 0 -32 -7 -7 -12 -40 -12 -82 0 -61 -5 -81
-36 -146 -30 -61 -58 -97 -153 -192 -63 -65 -119 -118 -124 -118 -4 0 -17 -9
-29 -20 -11 -10 -35 -26 -53 -34 -18 -9 -38 -22 -45 -31 -7 -8 -21 -15 -31
-15 -10 0 -34 -9 -54 -20 -20 -11 -49 -20 -65 -20 -16 0 -31 -4 -34 -9 -11
-18 -85 -24 -335 -28 -167 -2 -258 0 -265 7 -5 5 -34 10 -62 10 -29 0 -56 5
-59 10 -3 6 -21 10 -40 10 -19 0 -37 5 -40 10 -3 6 -17 10 -30 10 -13 0 -27 5
-30 10 -3 6 -14 10 -25 10 -31 0 -192 90 -252 141 -31 27 -61 49 -68 49 -6 0
-13 8 -17 18 -3 9 -28 40 -55 69 -26 28 -48 58 -48 66 0 8 -7 20 -15 27 -24
20 -85 153 -85 187 0 18 -4 35 -10 38 -6 3 -10 50 -10 106 l0 99 395 0 395 0
0 -39 c0 -22 5 -43 10 -46 6 -3 10 -16 10 -28 0 -14 18 -40 48 -67 54 -52 83
-70 111 -70 11 0 23 -4 26 -10 3 -5 35 -10 70 -10 35 0 67 5 70 10 3 6 16 10
28 10 11 0 38 17 59 37 32 31 38 44 38 79 0 37 -5 46 -52 90 -29 27 -73 58
-98 68 -25 10 -66 29 -91 42 -26 13 -61 24 -77 24 -17 0 -34 5 -37 10 -3 6
-35 10 -71 10 -41 0 -63 4 -59 10 4 7 222 9 638 8 l632 -3 3 -25z m930 -467
l2 -493 -395 0 -395 0 0 488 c0 269 3 492 7 495 4 4 180 6 392 5 l386 -3 3
-492z m924 480 c10 -9 18 -24 18 -33 0 -22 26 -74 45 -90 8 -7 15 -20 15 -28
0 -19 58 -82 75 -82 7 0 20 -9 30 -20 25 -28 72 -50 106 -50 15 0 31 -5 34
-10 8 -13 152 -13 160 0 3 6 15 10 25 10 72 0 260 178 260 245 0 7 7 26 16 44
l16 31 376 -2 377 -3 3 -34 c2 -18 -1 -38 -7 -44 -6 -6 -11 -21 -11 -33 0 -13
-4 -26 -10 -29 -5 -3 -10 -17 -10 -30 0 -14 -9 -40 -20 -60 -11 -20 -20 -42
-20 -50 0 -9 -4 -23 -9 -33 -5 -9 -16 -33 -25 -52 -8 -19 -26 -46 -40 -59 -14
-14 -26 -30 -26 -36 0 -7 -9 -20 -20 -30 -11 -10 -20 -24 -20 -31 0 -17 -178
-203 -205 -215 -11 -5 -40 -25 -65 -43 -25 -19 -65 -46 -90 -59 -25 -13 -71
-38 -104 -55 -32 -18 -66 -32 -76 -32 -11 0 -22 -4 -25 -10 -3 -5 -21 -10 -40
-10 -19 0 -37 -4 -40 -10 -3 -5 -21 -10 -40 -10 -19 0 -37 -5 -40 -10 -3 -6
-46 -10 -96 -10 -53 0 -97 -5 -109 -12 -15 -10 -22 -10 -32 0 -8 8 -47 12
-114 12 -58 0 -106 4 -109 10 -3 6 -17 10 -30 10 -13 0 -27 5 -30 10 -3 6 -21
10 -40 10 -19 0 -37 4 -40 10 -3 5 -14 10 -25 10 -16 0 -97 37 -110 50 -13 13
-51 30 -67 30 -10 0 -36 16 -57 35 -22 19 -45 35 -51 35 -7 0 -20 9 -30 20
-10 11 -23 20 -30 20 -6 0 -54 47 -106 105 -113 125 -159 183 -159 200 0 7 -7
18 -15 25 -9 7 -31 47 -51 89 -19 42 -39 84 -44 93 -6 10 -10 27 -10 37 0 11
-4 23 -10 26 -5 3 -10 21 -10 39 0 17 -4 36 -9 42 -5 5 -12 26 -15 47 l-7 37
387 0 c346 0 389 -2 406 -17z m2406 -478 l-3 -496 -374 1 c-205 0 -378 3 -382
6 -10 6 -12 967 -2 977 3 4 177 7 385 7 l378 0 -2 -495z m1362 0 l0 -495 -375
-2 c-206 -2 -380 -1 -385 0 -6 2 -26 37 -46 77 -19 41 -39 77 -44 80 -12 7
-40 65 -40 82 0 7 -4 13 -10 13 -5 0 -25 33 -45 74 -19 40 -41 79 -50 86 -8 7
-15 18 -15 24 0 16 -49 114 -61 121 -5 3 -25 38 -44 78 -55 109 -81 156 -98
175 -8 9 -29 47 -47 84 -17 37 -35 70 -41 73 -5 4 -9 10 -9 16 0 5 252 9 655
9 l655 0 0 -495z"/>
</g>
</svg>
