<?xml version="1.0" standalone="no"?>
<!DOCTYPE svg PUBLIC "-//W3C//DTD SVG 20010904//EN"
 "http://www.w3.org/TR/2001/REC-SVG-20010904/DTD/svg10.dtd">
<svg version="1.0" xmlns="http://www.w3.org/2000/svg"
 width="500.000000pt" height="500.000000pt" viewBox="0 0 500.000000 500.000000"
 preserveAspectRatio="xMidYMid meet">
<metadata>
Created by potrace 1.13, written by Peter Selinger 2001-2015
</metadata>
<g transform="translate(0.000000,500.000000) scale(0.100000,-0.100000)"
fill="#000000" stroke="none">
<path d="M1135 4585 c-5 -2 -22 -6 -37 -9 -39 -9 -98 -64 -119 -111 -18 -38
-19 -125 -19 -1971 l0 -1930 25 -50 c28 -57 64 -87 121 -104 28 -8 410 -10
1414 -8 1354 3 1376 3 1409 23 19 11 48 37 65 58 l31 39 0 1972 0 1973 -28 36
c-16 21 -47 47 -70 60 l-42 22 -1370 2 c-753 1 -1374 0 -1380 -2z m2781 -57
c23 -15 52 -44 65 -65 24 -38 24 -41 27 -370 2 -228 0 -333 -7 -333 -6 0 -11
-7 -11 -16 0 -8 5 -12 10 -9 15 9 13 -1415 -2 -1514 -8 -52 -8 -79 0 -91 12
-19 9 -1526 -3 -1573 -5 -20 -14 -27 -34 -28 -17 -1 -20 -3 -8 -6 14 -4 16 -8
6 -19 -13 -16 -69 -19 -69 -3 0 6 13 9 33 5 27 -4 26 -3 -8 8 -22 7 -41 10
-43 6 -2 -5 -12 -5 -24 -3 -11 3 -23 1 -27 -5 -3 -5 -18 -8 -33 -5 -15 3 -25
9 -22 14 3 5 -9 9 -25 9 -21 0 -31 5 -31 15 0 8 -4 15 -10 15 -5 0 -10 7 -10
15 0 13 -8 15 -42 10 -53 -8 -62 -15 -20 -15 22 0 32 -5 32 -15 0 -8 9 -15 21
-15 11 0 18 -4 15 -9 -6 -9 -210 -6 -305 5 -29 3 -51 2 -48 -3 6 -9 -55 -8
-182 3 -54 4 -85 3 -90 -4 -10 -17 -131 -20 -131 -3 0 5 8 12 18 15 9 3 -23 2
-73 -2 -49 -4 -132 -5 -183 -4 -64 2 -92 0 -87 -7 3 -6 -1 -11 -9 -11 -8 0
-18 5 -22 11 -3 6 -17 9 -30 6 -13 -2 -24 0 -24 4 0 11 -54 12 -64 2 -14 -14
-101 -29 -126 -22 -22 6 -21 7 10 9 19 1 44 5 55 9 13 5 0 7 -35 5 -30 -1 -56
-7 -58 -13 -2 -6 -18 -10 -35 -10 l-32 1 30 7 30 7 -40 7 c-22 4 -58 6 -80 6
-34 -1 -36 -2 -15 -8 l25 -7 -25 -9 c-14 -4 -25 -4 -27 2 -2 6 -15 8 -28 5
-14 -2 -31 1 -39 7 -14 12 -72 5 -92 -11 -8 -5 -14 -3 -18 7 -3 9 -18 15 -37
15 -28 0 -30 -2 -18 -16 14 -18 16 -18 -76 -2 -11 2 -23 7 -26 12 -10 13 -59
-2 -54 -17 7 -17 -216 -11 -230 6 -9 11 -22 13 -50 7 -5 -1 4 -8 20 -15 26
-12 27 -14 8 -15 -12 0 -28 -3 -37 -6 -11 -4 -16 -1 -16 10 0 19 3 19 -40 6
-19 -6 -52 -13 -73 -15 -21 -2 -43 -7 -50 -10 -7 -4 -3 1 8 10 19 16 18 16
-30 13 -27 -2 -55 -7 -61 -10 -13 -8 -82 -4 -91 6 -11 10 -45 7 -38 -4 4 -6
11 -8 16 -5 5 4 9 1 9 -4 0 -6 -5 -11 -11 -11 -5 0 -7 -5 -3 -11 4 -7 -7 -4
-23 6 -17 10 -39 34 -49 54 -18 35 -19 90 -20 1421 0 762 2 1338 6 1280 l6
-105 4 110 c3 61 5 135 6 165 1 65 12 112 26 104 5 -3 7 -12 4 -20 -3 -7 -1
-16 5 -20 7 -4 9 6 7 27 -2 26 -8 34 -21 33 -16 -2 -18 7 -16 85 1 47 -2 140
-7 206 -9 118 -9 115 -14 -150 -5 -231 -6 -199 -8 221 -2 419 0 498 13 535 25
70 70 106 150 120 22 4 643 6 1380 5 l1340 -1 41 -27z"/>
<path d="M1255 4490 c-44 -3 -69 -7 -55 -8 14 -1 39 -9 55 -18 17 -9 54 -18
83 -21 30 -3 56 -12 59 -19 2 -7 19 -16 36 -19 18 -4 51 -13 75 -21 50 -16 86
-18 77 -4 -4 7 10 8 42 4 26 -3 60 -6 76 -6 15 0 27 -2 27 -6 0 -4 38 -6 85
-4 60 3 85 0 85 -8 0 -8 12 -10 38 -6 20 4 66 8 101 11 35 3 66 7 68 9 2 2
-69 7 -159 11 -90 4 -192 11 -228 16 -61 7 -60 7 20 3 47 -2 308 -7 580 -10
473 -6 591 -3 1065 26 220 13 395 41 395 62 0 5 -60 7 -132 6 -73 -1 -239 -1
-368 0 -129 1 -246 0 -260 -4 -29 -7 -965 -8 -995 -1 -11 3 -146 8 -299 12
-207 6 -277 5 -272 -4 4 -7 38 -11 84 -11 42 0 72 -4 65 -8 -6 -4 -69 -3 -139
2 -78 6 -120 12 -108 17 23 9 26 9 -101 -1z"/>
<path d="M2447 3910 c-37 -29 -43 -72 -18 -116 12 -19 21 -43 21 -52 0 -10 3
-13 8 -7 4 6 28 10 54 11 65 0 98 31 98 89 0 22 -5 46 -12 53 -7 7 -8 12 -2
12 5 0 -4 7 -20 15 -40 21 -98 19 -129 -5z"/>
<path d="M3950 3705 c0 -19 -4 -35 -10 -35 -11 0 -9 -2604 3 -2616 13 -13 22
6 10 25 -7 11 -7 23 -2 33 5 9 11 47 14 85 3 37 8 80 11 95 3 14 1 28 -3 31
-5 3 -8 369 -7 814 2 1228 1 1353 -7 1353 -3 0 -6 7 -6 15 0 8 3 12 7 10 4 -2
7 47 6 110 -1 63 -4 115 -8 115 -5 0 -8 -16 -8 -35z"/>
<path d="M1049 3438 c-3 -43 -8 -394 -12 -696 -2 -198 1 -306 8 -313 6 -6 6
-12 0 -17 -14 -10 -14 -692 0 -692 6 0 3 -5 -5 -10 -13 -9 -13 -11 0 -20 8 -5
10 -10 5 -10 -6 0 -9 -73 -8 -202 2 -284 2 -278 13 -278 6 0 10 399 10 1130 0
622 -2 1130 -5 1130 -3 0 -6 -10 -6 -22z"/>
<path d="M1419 3436 c7 -9 22 -16 32 -16 11 0 19 -6 19 -13 0 -16 131 -57 179
-57 17 0 31 -4 31 -9 0 -4 8 -8 18 -8 9 1 46 -2 82 -6 220 -24 382 -35 563
-38 132 -2 172 -10 164 -32 -2 -7 -1 -21 4 -32 6 -15 8 -11 8 18 l1 37 63 1
c224 3 405 16 697 49 122 14 138 17 210 36 54 15 61 19 40 25 -21 5 -18 7 22
14 26 4 52 5 59 3 11 -4 -326 -356 -526 -549 -64 -63 -82 -96 -38 -70 10 6 14
11 8 11 -8 0 50 59 178 178 25 23 50 42 56 42 6 0 11 -19 11 -45 0 -25 -4 -45
-10 -45 -5 0 -10 -9 -10 -20 0 -11 5 -20 11 -20 10 0 8 -32 -8 -114 -3 -16 -1
-26 4 -23 4 3 9 -33 10 -79 2 -49 -2 -84 -7 -84 -6 0 -10 -15 -10 -32 0 -18 4
-28 8 -21 7 10 7 -58 2 -507 -1 -96 1 -280 4 -407 3 -179 2 -233 -7 -233 -7 0
-66 -6 -132 -14 -66 -8 -145 -16 -175 -18 l-55 -3 -3 48 c-4 59 -22 62 -22 3
0 -32 -5 -46 -17 -51 -10 -3 -96 -9 -190 -12 l-173 -6 0 462 c0 449 1 464 20
488 22 29 19 43 -5 23 -13 -11 -15 33 -16 411 -1 233 -4 410 -8 393 -5 -17 -9
-206 -10 -419 -2 -362 -3 -391 -22 -429 -14 -30 -16 -42 -7 -47 7 -5 16 -3 20
4 5 8 8 4 8 -10 0 -13 -4 -23 -10 -23 -15 0 -13 -177 3 -184 10 -5 10 -7 0
-12 -15 -7 -17 -44 -3 -44 6 0 10 -109 10 -306 l0 -307 -181 7 c-99 4 -186 9
-192 12 -17 6 -12 489 5 522 9 18 9 25 0 31 -9 6 -13 72 -14 254 -2 136 -6
247 -10 247 -5 0 -8 -49 -8 -110 0 -67 -4 -110 -10 -110 -5 0 -10 -9 -10 -20
0 -11 5 -20 10 -20 6 0 10 -9 10 -20 0 -11 -4 -20 -10 -20 -5 0 -10 -9 -10
-20 0 -11 5 -20 10 -20 14 0 12 -27 -2 -33 -10 -4 -10 -6 0 -6 14 -1 17 -41 2
-41 -5 0 -10 -9 -10 -20 0 -11 5 -20 10 -20 6 0 10 -15 10 -34 0 -19 -4 -38
-10 -41 -15 -9 -13 -202 3 -209 10 -5 10 -7 0 -12 -8 -3 -13 -25 -13 -54 0
-29 5 -50 13 -53 10 -4 10 -6 0 -6 -15 -1 -18 -71 -3 -71 6 0 10 -13 10 -30 0
-16 -4 -30 -10 -30 -5 0 -10 -7 -10 -16 0 -8 4 -12 10 -9 5 3 10 -1 10 -9 0
-21 -62 -20 -240 2 l-135 17 -2 55 c-2 30 -4 436 -6 903 -2 466 -7 850 -10
854 -4 3 -7 -176 -7 -398 0 -264 -4 -399 -10 -389 -7 11 -10 4 -10 -27 0 -23
5 -44 13 -47 10 -5 10 -7 0 -12 -8 -3 -12 -23 -12 -47 l2 -42 7 35 c4 19 8
-107 9 -282 1 -245 -2 -317 -11 -321 -10 -4 -10 -6 0 -6 8 -1 12 -24 12 -78 0
-54 -3 -73 -10 -63 -8 13 -10 12 -10 -2 0 -10 5 -18 10 -18 6 0 10 -9 10 -20
0 -11 -4 -20 -10 -20 -5 0 -10 -6 -10 -13 0 -8 -10 -19 -22 -25 l-23 -12 25 3
c14 1 28 7 32 12 4 6 8 0 8 -12 0 -27 -9 -28 -110 -9 -137 27 -215 47 -222 59
-4 7 -8 395 -9 862 0 468 -2 863 -3 879 -2 17 -8 32 -14 34 -8 2 -12 -17 -12
-62 0 -52 -3 -66 -15 -66 -11 0 -15 -11 -14 -47 l1 -48 8 38 c14 72 20 50 18
-64 -1 -69 -3 -90 -5 -51 -2 34 -8 62 -13 62 -6 0 -10 -252 -10 -670 0 -379 4
-670 9 -670 5 0 9 131 10 292 1 161 4 294 7 297 2 2 4 -92 5 -210 0 -334 9
-592 21 -606 5 -7 38 -18 71 -25 51 -10 57 -13 37 -19 l-25 -6 28 -12 c16 -6
40 -11 55 -11 20 0 23 -3 13 -9 -11 -7 -4 -11 25 -16 21 -4 57 -12 79 -17 194
-47 623 -80 955 -73 247 6 573 24 635 36 28 5 82 14 120 19 89 13 226 50 220
60 -3 4 7 11 23 15 25 7 25 8 7 15 -18 8 -18 9 -2 9 37 2 82 30 84 53 0 13 3
43 5 68 3 25 6 59 7 75 1 23 3 27 11 15 11 -18 12 17 15 880 2 695 2 673 14
666 5 -3 12 1 15 10 10 26 7 32 -14 27 -16 -4 -20 0 -22 23 -1 19 -4 11 -9
-21 -4 -32 -6 -2 -4 82 3 131 3 132 -22 148 -26 18 -73 16 -180 -4 -115 -22
-430 -52 -483 -46 -39 4 -51 3 -40 -4 12 -8 7 -11 -20 -11 -24 0 -31 3 -21 9
9 6 -6 7 -40 4 -192 -16 -740 1 -1054 32 -77 8 -167 14 -200 14 -56 -1 -83 1
-190 17 -36 6 -38 5 -26 -10z m2229 -1051 c-3 -822 -4 -906 -19 -921 -18 -18
-212 -63 -271 -64 l-38 0 0 832 0 833 163 157 162 157 3 -45 c2 -25 2 -452 0
-949z"/>
<path d="M2989 2763 c-9 -10 -40 -39 -69 -65 -36 -33 -51 -52 -46 -63 3 -9 7
-33 8 -53 1 -37 1 -36 8 8 l7 45 1 -52 c1 -30 -2 -53 -8 -53 -15 0 -13 -117 3
-123 9 -4 9 -7 -1 -15 -14 -9 -14 -112 -1 -122 4 -3 3 -29 -3 -58 -7 -39 -6
-57 3 -68 8 -10 8 -14 0 -14 -6 0 -11 -13 -11 -30 0 -16 5 -30 10 -30 6 0 10
-5 10 -11 0 -5 -4 -7 -10 -4 -6 4 -9 -32 -9 -95 0 -60 4 -98 10 -95 5 4 9 -9
8 -27 -1 -31 -1 -32 -10 -8 -9 27 -4 -155 6 -225 5 -29 4 -36 -4 -25 -9 12
-11 11 -11 -7 0 -13 5 -23 10 -23 6 0 10 -20 10 -45 0 -25 5 -45 10 -45 7 0
10 208 10 603 l0 602 42 44 c23 23 43 49 44 57 3 18 2 18 -17 -3z"/>
<path d="M2310 1113 c-165 -22 -374 -68 -421 -92 -22 -12 -50 -21 -64 -21 -13
0 -26 -4 -29 -9 -3 -5 -18 -12 -33 -16 -33 -8 -96 -36 -103 -46 -3 -3 -15 -9
-27 -13 -12 -4 -20 -13 -17 -20 2 -6 -10 -20 -28 -29 -60 -31 -128 -73 -148
-90 -11 -9 -20 -13 -20 -9 0 4 -5 -1 -11 -10 -5 -9 -27 -27 -49 -39 -37 -21
-57 -46 -46 -57 3 -2 19 7 36 22 17 14 38 26 46 26 7 0 19 9 26 20 7 11 23 20
36 20 12 0 25 7 28 15 4 8 10 15 15 15 5 0 55 23 111 50 73 36 110 49 128 45
16 -4 20 -3 12 3 -16 10 22 27 158 72 117 39 148 44 165 30 17 -14 104 -15
165 -1 30 7 48 6 61 -2 15 -9 23 -9 38 0 10 6 30 10 45 9 14 -2 26 0 26 4 0 4
9 10 20 13 13 3 20 0 20 -9 0 -8 9 -14 20 -14 11 0 20 4 20 9 0 14 36 19 56 8
10 -6 46 -12 79 -13 131 -3 273 -25 300 -45 18 -13 68 -14 72 -1 3 7 -4 12
-16 12 -12 0 -21 6 -21 13 0 9 -2 9 -9 -1 -6 -11 -10 -10 -15 4 -3 9 -9 14
-12 12 -3 -3 -25 0 -50 8 -76 23 -337 37 -381 21 -17 -6 -23 -5 -23 5 0 10
-12 13 -42 10 -24 -2 -50 -6 -58 -9 -8 -3 -51 -6 -95 -8 -44 -1 -107 -5 -140
-10 -89 -11 -62 3 36 19 150 25 178 27 342 27 178 -1 216 -4 327 -26 41 -9 98
-20 125 -25 28 -5 77 -19 109 -30 33 -11 67 -20 78 -20 10 0 18 -4 18 -10 0
-5 17 -12 38 -16 20 -4 49 -15 64 -25 14 -11 31 -19 36 -19 6 0 54 -20 106
-45 53 -25 99 -45 103 -45 14 0 -33 41 -74 66 -25 14 -42 28 -39 31 3 4 14 -1
23 -9 24 -21 93 -49 93 -38 0 5 -9 12 -21 15 -11 4 -33 20 -50 36 -16 16 -36
29 -45 29 -8 0 -31 11 -52 23 -20 13 -42 22 -49 20 -6 -2 -14 1 -18 6 -3 6
-15 11 -26 11 -10 0 -19 5 -19 10 0 6 -9 10 -19 10 -11 0 -22 4 -25 9 -4 5
-24 12 -46 16 -22 4 -42 11 -46 16 -3 5 -17 9 -32 9 -28 0 -96 21 -108 33 -4
4 -25 7 -46 7 -22 0 -48 5 -59 10 -11 6 -65 13 -122 15 -255 10 -395 13 -427
8z"/>
</g>
</svg>
