<?xml version="1.0" standalone="no"?>
<!DOCTYPE svg PUBLIC "-//W3C//DTD SVG 20010904//EN"
 "http://www.w3.org/TR/2001/REC-SVG-20010904/DTD/svg10.dtd">
<svg version="1.0" xmlns="http://www.w3.org/2000/svg"
 width="313.000000pt" height="338.000000pt" viewBox="0 0 313.000000 338.000000"
 preserveAspectRatio="xMidYMid meet">
<metadata>
Created by potrace 1.13, written by Peter Selinger 2001-2015
</metadata>
<g transform="translate(0.000000,338.000000) scale(0.100000,-0.100000)"
fill="#000000" stroke="none">
<path d="M1014 2911 c-17 -10 -42 -34 -55 -53 l-24 -33 -3 -1203 c-3 -1322 -5
-1256 56 -1281 20 -8 283 -11 925 -9 l899 3 24 28 24 28 0 1217 0 1217 -25 38
c-49 71 10 67 -937 67 -820 0 -854 -1 -884 -19z m140 0 c3 -5 -1 -15 -10 -22
-21 -17 -44 -63 -44 -87 0 -23 -18 -32 -61 -32 -18 0 -32 6 -36 16 -5 15 -7
15 -15 0 -12 -21 -38 -21 -38 0 0 38 58 113 72 92 5 -10 11 -7 23 9 8 12 25
24 38 26 40 8 66 7 71 -2z m1574 -7 c20 -10 44 -17 52 -18 20 -1 60 -64 60
-93 0 -36 -21 -23 -37 22 -19 57 -35 67 -18 12 7 -25 11 -48 8 -51 -4 -3 -26
-6 -50 -6 -37 0 -43 3 -43 20 0 23 -34 95 -50 105 -18 11 -10 25 15 25 14 0
42 -7 63 -16z m-1048 -64 l0 -70 -230 0 -230 0 0 70 0 70 230 0 230 0 0 -70z
m957 44 c30 -33 56 -95 45 -106 -5 -5 -27 -8 -48 -6 l-39 3 -6 60 -6 60 -1
-62 -2 -63 -229 0 -229 0 -5 48 c-2 26 -8 57 -12 70 l-7 22 257 0 258 0 24
-26z m-1657 -1290 c0 -1160 0 -1167 20 -1202 27 -46 16 -55 -20 -16 l-28 32
-1 1176 c-2 1061 -1 1176 14 1176 14 0 15 -115 15 -1166z m108 29 l2 -1133
-24 -6 c-13 -3 -26 -15 -29 -26 -3 -11 -12 -18 -19 -16 -11 4 -13 216 -16
1162 l-2 1157 42 -3 43 -3 3 -1132z m110 0 l2 -1131 -40 -4 c-23 -2 -43 -2
-46 1 -5 5 -5 2256 0 2262 2 2 22 4 43 3 l38 -1 3 -1130z m1140 1130 l242 -3
2 -1122 3 -1123 2 1121 3 1122 46 4 c25 2 47 1 48 -2 1 -3 2 -513 2 -1134 l-1
-1130 -68 3 c-53 2 -68 -1 -73 -13 -6 -14 -73 -16 -640 -16 l-633 0 -26 24
-25 24 2 403 3 403 24 6 c53 12 49 70 -5 70 l-24 0 0 678 c0 373 2 681 4 683
5 4 728 5 1114 2z m460 -1179 l-3 -1186 -24 -19 c-32 -26 -47 -19 -43 22 5 45
22 62 23 23 1 -29 1 -29 9 -4 13 42 11 50 -20 69 l-30 18 -3 1126 c-1 744 1
1128 8 1131 6 3 27 5 48 5 l38 1 -3 -1186z m47 1025 c-1 -85 -2 -614 -3 -1176
l-2 -1022 -24 -28 c-32 -37 -40 -26 -16 22 20 38 20 62 20 1203 0 926 3 1163
13 1159 9 -3 12 -43 12 -158z m-305 -2203 c0 -33 -2 -35 -42 -41 -24 -3 -311
-5 -638 -3 l-595 3 -3 38 -3 37 640 0 641 0 0 -34z"/>
<path d="M630 1533 c0 -4 35 -40 77 -80 l78 -72 -178 -1 c-197 0 -227 -7 -285
-63 -62 -60 -62 -65 -60 -726 l3 -596 5 610 c6 670 3 647 67 711 46 46 90 54
279 54 l169 -1 -79 -74 c-44 -41 -78 -76 -75 -79 2 -2 44 32 93 77 l88 82 -91
83 c-50 46 -91 80 -91 75z"/>
</g>
</svg>
