<?xml version="1.0" encoding="UTF-8" ?>
<!DOCTYPE svg PUBLIC "-//W3C//DTD SVG 1.1//EN" "http://www.w3.org/Graphics/SVG/1.1/DTD/svg11.dtd">
<svg width="875pt" height="673pt" viewBox="0 0 875 673" version="1.1" xmlns="http://www.w3.org/2000/svg">
<g id="#fefefeff">
<path fill="#fefefe" opacity="1.00" d=" M 0.00 0.00 L 875.00 0.00 L 875.00 673.00 L 0.00 673.00 L 0.00 0.00 M 522.48 32.93 C 512.79 36.58 503.05 40.12 493.38 43.80 C 476.49 51.21 459.42 58.22 442.66 65.93 C 434.20 69.17 426.44 73.94 418.16 77.58 C 399.25 87.25 379.77 95.86 361.50 106.72 C 354.79 110.30 348.15 114.01 341.57 117.83 C 336.22 121.22 330.32 123.66 325.08 127.25 C 319.45 131.17 313.24 134.12 307.40 137.69 C 300.90 141.38 294.99 146.00 288.53 149.77 C 282.40 153.20 276.91 157.61 270.83 161.13 C 266.54 163.96 261.53 166.00 258.33 170.20 C 253.31 172.25 248.80 175.18 244.74 178.78 C 234.03 185.25 224.39 193.25 213.93 200.09 C 196.06 213.13 177.81 225.71 160.93 240.04 C 134.30 260.52 108.38 281.92 83.56 304.55 C 71.30 316.25 56.92 325.83 46.36 339.27 C 36.01 350.61 28.73 364.43 23.20 378.66 C 21.26 385.68 18.16 392.54 18.38 399.95 C 16.55 407.17 15.35 414.57 15.48 422.05 C 14.34 428.98 12.20 435.85 12.46 442.96 C 12.67 449.76 12.19 456.59 12.72 463.37 C 15.46 467.31 19.90 469.49 23.57 472.43 C 24.67 478.04 19.83 481.89 18.73 487.00 C 18.25 492.39 18.71 497.84 19.88 503.11 C 22.45 507.18 26.19 510.67 30.42 512.97 C 34.44 513.90 39.15 513.96 42.56 511.22 C 48.89 507.72 52.55 501.38 56.92 495.91 C 58.73 493.19 62.50 494.38 64.78 495.81 C 70.39 499.29 75.89 502.98 81.84 505.87 C 99.34 515.28 116.08 526.03 133.65 535.30 C 150.98 545.59 168.42 555.67 185.85 565.79 C 201.79 574.40 217.12 584.08 233.03 592.75 C 242.70 598.45 252.47 603.98 262.17 609.62 C 271.45 615.19 281.25 619.90 290.24 625.93 C 292.42 631.36 285.99 635.05 285.62 640.22 C 285.44 643.16 285.59 646.10 285.54 649.05 C 284.16 660.52 297.73 669.65 308.15 665.89 C 318.41 658.77 325.98 648.01 329.61 636.07 C 330.27 634.00 330.87 631.89 331.94 629.99 C 335.24 628.02 339.35 628.22 342.77 626.46 C 350.54 622.44 358.13 618.07 365.51 613.38 C 384.35 603.01 402.83 592.02 421.50 581.34 C 438.54 571.82 455.41 561.99 472.26 552.14 C 480.72 546.79 489.86 542.61 498.23 537.11 C 508.06 531.17 518.31 525.93 528.13 519.98 C 538.53 513.57 549.30 507.84 559.87 501.75 C 575.45 493.08 590.57 483.60 606.31 475.20 C 618.35 467.81 630.88 461.23 642.86 453.72 C 658.42 445.48 673.36 436.14 688.78 427.65 C 701.75 419.86 715.15 412.82 728.06 404.94 C 741.17 397.40 754.34 389.99 767.30 382.22 C 779.82 375.46 791.95 368.03 804.46 361.25 C 812.64 355.99 821.34 351.59 829.62 346.49 C 838.88 340.60 848.88 336.00 858.09 330.03 C 861.20 328.01 864.63 325.99 866.31 322.51 C 866.86 314.02 866.29 305.47 866.51 296.96 C 866.90 290.43 864.38 284.24 863.77 277.80 C 863.48 271.93 862.45 266.14 862.25 260.27 C 860.11 252.21 859.86 243.85 859.05 235.60 C 855.15 220.71 857.52 204.50 850.39 190.45 C 846.04 181.38 836.68 176.59 828.38 171.77 C 803.94 157.95 779.97 143.29 755.34 129.81 C 751.18 127.27 747.03 124.73 742.81 122.31 C 718.61 108.98 695.00 94.64 670.84 81.24 C 650.81 69.14 630.28 57.95 610.10 46.11 C 598.57 39.26 586.56 33.21 575.32 25.89 C 570.47 23.03 564.79 21.41 559.16 21.58 C 546.30 23.00 534.65 29.00 522.48 32.93 Z" />
<path fill="#fefefe" opacity="1.00" d=" M 544.96 35.60 C 548.66 34.05 552.80 34.12 556.71 34.65 C 560.40 36.16 563.48 38.77 567.00 40.60 C 577.35 46.13 587.42 52.13 597.49 58.14 C 607.83 63.20 617.23 69.93 627.40 75.30 C 634.53 79.08 641.45 83.26 648.36 87.43 C 684.56 107.75 720.47 128.60 756.40 149.38 C 770.80 156.84 784.38 165.76 798.66 173.46 C 801.33 174.86 805.34 176.40 804.51 180.16 C 798.33 182.00 792.26 184.20 786.04 185.89 C 764.98 193.39 744.28 201.88 723.60 210.36 C 717.11 213.05 710.82 216.19 704.64 219.51 C 689.00 226.64 673.46 233.98 658.28 242.04 C 640.98 251.40 623.83 261.05 606.47 270.30 C 589.41 281.27 572.39 292.31 555.15 303.00 C 547.44 308.43 538.69 312.28 531.46 318.41 C 520.84 326.22 509.78 333.39 499.28 341.36 C 491.38 347.05 483.07 352.22 475.88 358.82 C 457.78 373.09 439.43 387.05 421.81 401.91 C 405.32 416.39 388.56 430.57 372.23 445.23 C 361.29 455.15 351.55 466.43 339.99 475.62 C 336.79 475.27 334.08 473.27 331.28 471.83 C 302.79 454.81 273.67 438.87 245.08 422.01 C 199.00 395.50 152.91 369.01 106.97 342.28 C 99.65 337.57 91.59 334.12 84.46 329.13 C 84.40 328.31 84.29 326.67 84.23 325.85 C 87.80 321.87 91.87 318.39 95.93 314.94 C 115.02 297.66 134.66 281.01 154.40 264.50 C 159.49 260.60 164.25 256.28 169.50 252.58 C 186.54 239.28 203.11 225.34 220.74 212.81 C 226.17 208.92 231.54 204.97 236.99 201.12 C 244.38 196.12 251.27 190.38 258.97 185.83 C 263.67 182.21 268.96 179.44 273.53 175.62 C 286.82 166.47 300.49 157.90 313.90 148.94 C 319.48 144.69 325.57 141.18 331.84 138.05 C 347.25 128.74 363.03 120.05 378.41 110.67 C 387.79 105.14 397.86 100.90 407.31 95.50 C 413.75 91.79 420.58 88.84 427.20 85.47 C 449.21 73.18 473.07 64.78 495.86 54.12 C 504.44 49.90 513.77 47.57 522.54 43.81 C 530.14 41.43 537.51 38.41 544.96 35.60 M 336.35 276.73 C 332.79 277.49 329.29 278.53 325.71 279.20 C 323.62 279.62 321.17 278.86 319.43 280.38 C 315.93 282.77 314.52 286.99 312.12 290.33 C 309.60 293.61 310.44 297.94 310.58 301.77 C 313.52 307.88 319.71 311.96 326.20 313.43 C 330.40 313.75 334.63 313.78 338.83 313.46 C 348.37 311.09 359.11 305.13 360.60 294.46 C 361.66 289.22 357.93 284.81 354.04 281.85 C 349.01 278.19 342.64 275.69 336.35 276.73 Z" />
<path fill="#fefefe" opacity="1.00" d=" M 828.32 189.99 C 829.68 187.14 833.67 188.74 836.22 188.68 C 839.89 191.27 843.49 194.54 844.79 199.00 C 845.92 202.65 847.85 207.09 845.05 210.47 C 841.84 210.49 837.28 210.80 835.86 207.21 C 833.10 201.60 830.27 195.94 828.32 189.99 Z" />
<path fill="#fefefe" opacity="1.00" d=" M 810.12 193.20 C 813.35 191.92 816.78 191.21 820.26 191.53 C 823.00 198.15 826.71 204.37 828.85 211.22 C 824.84 214.37 819.91 215.72 815.10 217.09 C 800.02 222.84 784.81 228.21 769.56 233.50 C 758.94 237.61 748.84 242.94 738.34 247.32 C 724.13 253.81 709.75 259.89 695.69 266.69 C 681.09 274.82 666.28 282.56 651.67 290.68 C 638.24 297.59 625.17 305.22 612.54 313.50 C 602.61 319.06 593.37 325.72 583.72 331.74 C 559.64 346.11 537.33 363.17 514.78 379.77 C 501.63 388.38 489.49 398.37 477.41 408.39 C 464.30 418.95 451.54 429.92 438.32 440.33 C 433.41 444.39 428.39 448.35 423.98 452.97 C 415.08 461.08 405.97 468.94 397.39 477.40 C 390.93 482.53 385.66 488.96 379.16 494.04 C 375.67 496.90 372.72 500.35 369.44 503.44 C 368.47 503.50 367.50 503.50 366.54 503.45 C 362.66 498.67 358.22 494.37 354.40 489.54 C 353.04 488.24 353.55 486.26 353.36 484.60 C 357.46 480.59 362.14 477.24 365.99 472.98 C 371.63 466.94 378.13 461.81 383.96 455.98 C 393.40 446.68 403.95 438.64 413.75 429.75 C 426.65 418.26 439.79 407.03 453.42 396.41 C 462.86 388.83 472.16 381.09 481.89 373.88 C 487.06 368.92 493.29 365.33 498.83 360.85 C 511.37 352.08 523.63 342.91 536.22 334.23 C 551.16 322.43 567.90 313.24 583.72 302.72 C 590.16 298.41 596.75 294.34 603.46 290.48 C 612.19 284.70 621.08 279.13 630.45 274.42 C 647.90 264.88 665.21 255.07 682.87 245.91 C 688.12 243.47 693.50 241.29 698.68 238.69 C 707.56 234.16 716.85 230.51 725.59 225.70 C 743.91 217.71 762.66 210.78 781.17 203.24 C 790.69 199.54 800.57 196.83 810.12 193.20 Z" />
<path fill="#fefefe" opacity="1.00" d=" M 833.65 227.28 C 835.62 226.34 837.84 226.27 839.99 226.52 C 844.73 230.10 844.13 236.88 845.40 242.14 C 845.11 250.47 847.31 258.56 847.76 266.83 C 848.33 270.55 849.65 274.17 849.49 277.98 C 849.33 286.42 852.48 294.53 852.53 302.97 C 852.73 309.03 854.80 314.93 854.51 321.01 C 853.34 323.52 850.88 325.23 848.59 326.67 C 839.95 331.26 831.58 336.34 823.13 341.24 C 807.83 349.40 793.05 358.51 777.96 367.04 C 729.82 394.97 681.32 422.25 633.34 450.44 C 616.51 459.83 599.72 469.32 583.25 479.33 C 572.29 485.28 561.39 491.34 550.78 497.89 C 535.56 506.24 520.78 515.34 505.59 523.74 C 481.32 538.22 456.37 551.54 432.17 566.14 C 419.96 573.05 407.78 580.04 395.53 586.92 C 383.64 594.53 370.79 600.48 358.91 608.13 C 354.79 610.07 351.37 614.21 346.45 613.68 C 346.48 602.18 346.40 590.67 346.66 579.18 C 347.64 574.57 347.12 569.74 348.75 565.27 C 350.45 560.20 351.24 554.82 353.66 550.02 C 357.10 542.89 360.55 535.71 365.17 529.25 C 369.39 522.56 375.96 517.95 381.46 512.42 C 398.93 496.53 416.31 480.56 433.59 464.46 C 449.40 450.92 465.76 438.04 481.79 424.78 C 491.67 415.58 502.28 407.16 513.32 399.40 C 525.44 390.53 537.55 381.66 549.73 372.87 C 559.01 366.71 567.29 359.04 577.22 353.88 C 598.52 340.25 619.61 326.29 641.42 313.48 C 656.55 305.33 672.05 297.81 686.72 288.81 C 702.73 280.31 719.11 272.50 735.78 265.38 C 749.71 259.97 762.86 252.78 776.86 247.52 C 784.63 244.47 792.73 242.36 800.46 239.17 C 811.34 234.71 822.70 231.58 833.65 227.28 Z" />
<path fill="#fefefe" opacity="1.00" d=" M 318.44 299.55 C 317.31 292.15 325.20 285.36 332.36 286.50 C 328.54 290.70 323.81 294.22 321.55 299.60 C 320.51 299.61 319.47 299.59 318.44 299.55 Z" />
<path fill="#fefefe" opacity="1.00" d=" M 75.07 335.42 C 78.78 334.58 81.51 337.59 84.48 339.21 C 98.25 346.69 111.68 354.79 125.34 362.47 C 141.12 371.22 156.61 380.47 172.22 389.52 C 190.40 399.34 208.00 410.22 225.92 420.51 C 236.53 425.69 246.36 432.26 256.60 438.08 C 264.14 441.81 271.05 446.63 278.46 450.60 C 287.33 455.33 295.98 460.48 304.78 465.35 C 313.75 470.79 323.29 475.35 331.72 481.66 C 332.00 484.69 329.53 486.69 327.85 488.86 C 311.02 507.93 299.35 531.41 293.74 556.17 C 292.43 560.51 291.29 564.94 291.39 569.51 C 289.45 569.57 287.36 569.96 285.63 568.87 C 260.37 554.39 235.22 539.66 209.95 525.19 C 200.26 520.05 191.19 513.82 181.48 508.71 C 163.14 498.03 144.63 487.64 126.33 476.89 C 113.11 469.92 100.78 461.42 87.37 454.78 C 77.97 449.16 68.55 443.55 58.94 438.26 C 49.72 432.04 39.40 427.71 30.42 421.11 C 29.67 414.82 32.41 408.98 33.55 402.91 C 37.07 391.45 41.73 380.30 47.67 369.87 C 52.85 361.79 58.05 353.69 64.09 346.21 C 67.30 342.21 70.63 338.09 75.07 335.42 Z" />
<path fill="#fefefe" opacity="1.00" d=" M 28.62 432.39 C 33.40 431.41 37.02 434.83 40.81 437.09 C 55.23 445.29 69.70 453.43 83.93 461.95 C 93.95 467.55 103.97 473.12 113.78 479.08 C 124.35 484.74 134.33 491.46 145.02 496.90 C 172.09 512.96 199.64 528.19 226.84 544.02 C 245.16 554.79 263.60 565.32 282.06 575.83 C 284.97 577.63 288.55 578.91 290.43 581.93 C 290.57 588.62 290.50 595.32 290.36 602.01 C 289.70 605.84 289.36 609.71 289.50 613.60 C 287.44 613.43 285.14 614.02 283.31 612.82 C 269.10 604.30 254.80 595.94 240.41 587.74 C 228.71 581.58 217.67 574.24 205.97 568.08 C 179.14 552.54 152.33 536.97 125.32 521.76 C 113.13 514.15 100.39 507.47 88.06 500.09 C 77.78 494.90 68.28 488.34 58.08 483.01 C 47.66 475.66 35.42 471.16 25.50 463.06 C 24.74 455.66 26.67 448.45 26.61 441.08 C 26.81 438.10 27.75 435.23 28.62 432.39 Z" />
<path fill="#fefefe" opacity="1.00" d=" M 44.46 486.42 C 46.11 486.45 47.76 486.47 49.42 486.48 C 50.67 488.26 51.06 490.72 49.38 492.39 C 46.75 495.42 44.80 499.96 40.55 500.89 C 40.42 497.49 40.07 494.02 40.77 490.67 C 41.81 489.10 43.17 487.78 44.46 486.42 Z" />
<path fill="#fefefe" opacity="1.00" d=" M 27.67 501.72 C 25.87 498.59 25.86 494.06 27.73 490.98 C 29.42 491.72 31.53 492.10 32.49 493.87 C 32.67 496.47 32.65 499.17 31.22 501.46 C 30.33 501.52 28.56 501.65 27.67 501.72 Z" />
<path fill="#fefefe" opacity="1.00" d=" M 344.52 493.38 C 348.86 493.14 351.06 497.55 353.61 500.33 C 356.20 503.83 360.64 506.39 361.52 510.88 C 357.42 516.27 352.42 521.00 348.94 526.85 C 341.98 538.63 336.52 551.34 333.29 564.65 C 332.34 567.77 332.76 571.08 332.20 574.26 C 330.63 575.86 328.81 578.04 326.30 577.40 C 321.27 576.20 316.10 576.53 310.98 576.50 C 309.37 576.63 307.93 575.92 306.51 575.29 C 306.37 569.07 309.00 563.22 309.59 557.06 C 314.41 538.18 323.43 520.51 334.93 504.81 C 337.80 500.74 340.95 496.87 344.52 493.38 Z" />
<path fill="#fefefe" opacity="1.00" d=" M 305.60 587.94 C 307.22 583.95 312.38 584.37 315.97 584.48 C 320.88 584.91 326.44 583.27 330.59 586.72 C 330.44 596.49 330.51 606.26 330.44 616.03 C 330.55 617.68 329.57 619.08 328.91 620.53 C 321.26 620.51 313.61 620.60 305.97 620.50 C 305.04 616.75 305.54 612.87 305.47 609.06 C 305.60 602.02 305.38 594.97 305.60 587.94 Z" />
<path fill="#fefefe" opacity="1.00" d=" M 314.02 628.67 C 317.33 627.92 323.10 628.21 322.45 632.93 C 320.24 639.84 316.09 645.97 312.00 651.91 C 310.93 654.06 307.48 654.45 306.41 652.09 C 306.38 646.78 310.24 642.66 312.02 637.91 C 313.20 634.93 311.22 631.01 314.02 628.67 Z" />
<path fill="#fefefe" opacity="1.00" d=" M 294.52 654.56 C 294.64 651.14 293.51 647.29 295.82 644.36 C 296.52 644.98 297.92 646.21 298.62 646.83 C 298.62 649.40 298.59 651.97 298.52 654.55 C 297.52 654.55 295.52 654.56 294.52 654.56 Z" />
</g>
<g id="#2c2c2cff">
<path fill="#2c2c2c" opacity="1.00" d=" M 522.48 32.93 C 534.65 29.00 546.30 23.00 559.16 21.58 C 564.79 21.41 570.47 23.03 575.32 25.89 C 586.56 33.21 598.57 39.26 610.10 46.11 C 630.28 57.95 650.81 69.14 670.84 81.24 C 695.00 94.64 718.61 108.98 742.81 122.31 C 747.03 124.73 751.18 127.27 755.34 129.81 C 779.97 143.29 803.94 157.95 828.38 171.77 C 836.68 176.59 846.04 181.38 850.39 190.45 C 857.52 204.50 855.15 220.71 859.05 235.60 C 859.86 243.85 860.11 252.21 862.25 260.27 C 862.45 266.14 863.48 271.93 863.77 277.80 C 864.38 284.24 866.90 290.43 866.51 296.96 C 866.29 305.47 866.86 314.02 866.31 322.51 C 864.63 325.99 861.20 328.01 858.09 330.03 C 848.88 336.00 838.88 340.60 829.62 346.49 C 821.34 351.59 812.64 355.99 804.46 361.25 C 791.95 368.03 779.82 375.46 767.30 382.22 C 754.34 389.99 741.17 397.40 728.06 404.94 C 715.15 412.82 701.75 419.86 688.78 427.65 C 673.36 436.14 658.42 445.48 642.86 453.72 C 630.88 461.23 618.35 467.81 606.31 475.20 C 590.57 483.60 575.45 493.08 559.87 501.75 C 549.30 507.84 538.53 513.57 528.13 519.98 C 518.31 525.93 508.06 531.17 498.23 537.11 C 489.86 542.61 480.72 546.79 472.26 552.14 C 455.41 561.99 438.54 571.82 421.50 581.34 C 402.83 592.02 384.35 603.01 365.51 613.38 C 358.13 618.07 350.54 622.44 342.77 626.46 C 339.35 628.22 335.24 628.02 331.94 629.99 C 330.87 631.89 330.27 634.00 329.61 636.07 C 325.98 648.01 318.41 658.77 308.15 665.89 C 297.73 669.65 284.16 660.52 285.54 649.05 C 285.59 646.10 285.44 643.16 285.62 640.22 C 285.99 635.05 292.42 631.36 290.24 625.93 C 281.25 619.90 271.45 615.19 262.17 609.62 C 252.47 603.98 242.70 598.45 233.03 592.75 C 217.12 584.08 201.79 574.40 185.85 565.79 C 168.42 555.67 150.98 545.59 133.65 535.30 C 116.08 526.03 99.34 515.28 81.84 505.87 C 75.89 502.98 70.39 499.29 64.78 495.81 C 62.50 494.38 58.73 493.19 56.92 495.91 C 52.55 501.38 48.89 507.72 42.56 511.22 C 39.15 513.96 34.44 513.90 30.42 512.97 C 26.19 510.67 22.45 507.18 19.88 503.11 C 18.71 497.84 18.25 492.39 18.73 487.00 C 19.83 481.89 24.67 478.04 23.57 472.43 C 19.90 469.49 15.46 467.31 12.72 463.37 C 12.19 456.59 12.67 449.76 12.46 442.96 C 12.20 435.85 14.34 428.98 15.48 422.05 C 15.35 414.57 16.55 407.17 18.38 399.95 C 18.16 392.54 21.26 385.68 23.20 378.66 C 28.73 364.43 36.01 350.61 46.36 339.27 C 56.92 325.83 71.30 316.25 83.56 304.55 C 108.38 281.92 134.30 260.52 160.93 240.04 C 177.81 225.71 196.06 213.13 213.93 200.09 C 224.39 193.25 234.03 185.25 244.74 178.78 C 248.80 175.18 253.31 172.25 258.33 170.20 C 261.53 166.00 266.54 163.96 270.83 161.13 C 276.91 157.61 282.40 153.20 288.53 149.77 C 294.99 146.00 300.90 141.38 307.40 137.69 C 313.24 134.12 319.45 131.17 325.08 127.25 C 330.32 123.66 336.22 121.22 341.57 117.83 C 348.15 114.01 354.79 110.30 361.50 106.72 C 379.77 95.86 399.25 87.25 418.16 77.58 C 426.44 73.94 434.20 69.17 442.66 65.93 C 459.42 58.22 476.49 51.21 493.38 43.80 C 503.05 40.12 512.79 36.58 522.48 32.93 M 544.96 35.60 C 537.51 38.41 530.14 41.43 522.54 43.81 C 513.77 47.57 504.44 49.90 495.86 54.12 C 473.07 64.78 449.21 73.18 427.20 85.47 C 420.58 88.84 413.75 91.79 407.31 95.50 C 397.86 100.90 387.79 105.14 378.41 110.67 C 363.03 120.05 347.25 128.74 331.84 138.05 C 325.57 141.18 319.48 144.69 313.90 148.94 C 300.49 157.90 286.82 166.47 273.53 175.62 C 268.96 179.44 263.67 182.21 258.97 185.83 C 251.27 190.38 244.38 196.12 236.99 201.12 C 231.54 204.97 226.17 208.92 220.74 212.81 C 203.11 225.34 186.54 239.28 169.50 252.58 C 164.25 256.28 159.49 260.60 154.40 264.50 C 134.66 281.01 115.02 297.66 95.93 314.94 C 91.87 318.39 87.80 321.87 84.23 325.85 C 84.29 326.67 84.40 328.31 84.46 329.13 C 91.59 334.12 99.65 337.57 106.97 342.28 C 152.91 369.01 199.00 395.50 245.08 422.01 C 273.67 438.87 302.79 454.81 331.28 471.83 C 334.08 473.27 336.79 475.27 339.99 475.62 C 351.55 466.43 361.29 455.15 372.23 445.23 C 388.56 430.57 405.32 416.39 421.81 401.91 C 439.43 387.05 457.78 373.09 475.88 358.82 C 483.07 352.22 491.38 347.05 499.28 341.36 C 509.78 333.39 520.84 326.22 531.46 318.41 C 538.69 312.28 547.44 308.43 555.15 303.00 C 572.39 292.31 589.41 281.27 606.47 270.30 C 623.83 261.05 640.98 251.40 658.28 242.04 C 673.46 233.98 689.00 226.64 704.64 219.51 C 710.82 216.19 717.11 213.05 723.60 210.36 C 744.28 201.88 764.98 193.39 786.04 185.89 C 792.26 184.20 798.33 182.00 804.51 180.16 C 805.34 176.40 801.33 174.86 798.66 173.46 C 784.38 165.76 770.80 156.84 756.40 149.38 C 720.47 128.60 684.56 107.75 648.36 87.43 C 641.45 83.26 634.53 79.08 627.40 75.30 C 617.23 69.93 607.83 63.20 597.49 58.14 C 587.42 52.13 577.35 46.13 567.00 40.60 C 563.48 38.77 560.40 36.16 556.71 34.65 C 552.80 34.12 548.66 34.05 544.96 35.60 M 828.32 189.99 C 830.27 195.94 833.10 201.60 835.86 207.21 C 837.28 210.80 841.84 210.49 845.05 210.47 C 847.85 207.09 845.92 202.65 844.79 199.00 C 843.49 194.54 839.89 191.27 836.22 188.68 C 833.67 188.74 829.68 187.14 828.32 189.99 M 810.12 193.20 C 800.57 196.83 790.69 199.54 781.17 203.24 C 762.66 210.78 743.91 217.71 725.59 225.70 C 716.85 230.51 707.56 234.16 698.68 238.69 C 693.50 241.29 688.12 243.47 682.87 245.91 C 665.21 255.07 647.90 264.88 630.45 274.42 C 621.08 279.13 612.19 284.70 603.46 290.48 C 596.75 294.34 590.16 298.41 583.72 302.72 C 567.90 313.24 551.16 322.43 536.22 334.23 C 523.63 342.91 511.37 352.08 498.83 360.85 C 493.29 365.33 487.06 368.92 481.89 373.88 C 472.16 381.09 462.86 388.83 453.42 396.41 C 439.79 407.03 426.65 418.26 413.75 429.75 C 403.95 438.64 393.40 446.68 383.96 455.98 C 378.13 461.81 371.63 466.94 365.99 472.98 C 362.14 477.24 357.46 480.59 353.36 484.60 C 353.55 486.26 353.04 488.24 354.40 489.54 C 358.22 494.37 362.66 498.67 366.54 503.45 C 367.50 503.50 368.47 503.50 369.44 503.44 C 372.72 500.35 375.67 496.90 379.16 494.04 C 385.66 488.96 390.93 482.53 397.39 477.40 C 405.97 468.94 415.08 461.08 423.98 452.97 C 428.39 448.35 433.41 444.39 438.32 440.33 C 451.54 429.92 464.30 418.95 477.41 408.39 C 489.49 398.37 501.63 388.38 514.78 379.77 C 537.33 363.17 559.64 346.11 583.72 331.74 C 593.37 325.72 602.61 319.06 612.54 313.50 C 625.17 305.22 638.24 297.59 651.67 290.68 C 666.28 282.56 681.09 274.82 695.69 266.69 C 709.75 259.89 724.13 253.81 738.34 247.32 C 748.84 242.94 758.94 237.61 769.56 233.50 C 784.81 228.21 800.02 222.84 815.10 217.09 C 819.91 215.72 824.84 214.37 828.85 211.22 C 826.71 204.37 823.00 198.15 820.26 191.53 C 816.78 191.21 813.35 191.92 810.12 193.20 M 833.65 227.28 C 822.70 231.58 811.34 234.71 800.46 239.17 C 792.73 242.36 784.63 244.47 776.86 247.52 C 762.86 252.78 749.71 259.97 735.78 265.38 C 719.11 272.50 702.73 280.31 686.72 288.81 C 672.05 297.81 656.55 305.33 641.42 313.48 C 619.61 326.29 598.52 340.25 577.22 353.88 C 567.29 359.04 559.01 366.71 549.73 372.87 C 537.55 381.66 525.44 390.53 513.32 399.40 C 502.28 407.16 491.67 415.58 481.79 424.78 C 465.76 438.04 449.40 450.92 433.59 464.46 C 416.31 480.56 398.93 496.53 381.46 512.42 C 375.96 517.95 369.39 522.56 365.17 529.25 C 360.55 535.71 357.10 542.89 353.66 550.02 C 351.24 554.82 350.45 560.20 348.75 565.27 C 347.12 569.74 347.64 574.57 346.66 579.18 C 346.40 590.67 346.48 602.18 346.45 613.68 C 351.37 614.21 354.79 610.07 358.91 608.13 C 370.79 600.48 383.64 594.53 395.53 586.92 C 407.78 580.04 419.96 573.05 432.17 566.14 C 456.37 551.54 481.32 538.22 505.59 523.74 C 520.78 515.34 535.56 506.24 550.78 497.89 C 561.39 491.34 572.29 485.28 583.25 479.33 C 599.72 469.32 616.51 459.83 633.34 450.44 C 681.32 422.25 729.82 394.97 777.96 367.04 C 793.05 358.51 807.83 349.40 823.13 341.24 C 831.58 336.34 839.95 331.26 848.59 326.67 C 850.88 325.23 853.34 323.52 854.51 321.01 C 854.80 314.93 852.73 309.03 852.53 302.97 C 852.48 294.53 849.33 286.42 849.49 277.98 C 849.65 274.17 848.33 270.55 847.76 266.83 C 847.31 258.56 845.11 250.47 845.40 242.14 C 844.13 236.88 844.73 230.10 839.99 226.52 C 837.84 226.27 835.62 226.34 833.65 227.28 M 75.07 335.42 C 70.63 338.09 67.30 342.21 64.09 346.21 C 58.05 353.69 52.85 361.79 47.67 369.87 C 41.73 380.30 37.07 391.45 33.55 402.91 C 32.41 408.98 29.67 414.82 30.42 421.11 C 39.40 427.71 49.72 432.04 58.94 438.26 C 68.55 443.55 77.97 449.16 87.37 454.78 C 100.78 461.42 113.11 469.92 126.33 476.89 C 144.63 487.64 163.14 498.03 181.48 508.71 C 191.19 513.82 200.26 520.05 209.95 525.19 C 235.22 539.66 260.37 554.39 285.63 568.87 C 287.36 569.96 289.45 569.57 291.39 569.51 C 291.29 564.94 292.43 560.51 293.74 556.17 C 299.35 531.41 311.02 507.93 327.85 488.86 C 329.53 486.69 332.00 484.69 331.72 481.66 C 323.29 475.35 313.75 470.79 304.78 465.35 C 295.98 460.48 287.33 455.33 278.46 450.60 C 271.05 446.63 264.14 441.81 256.60 438.08 C 246.36 432.26 236.53 425.69 225.92 420.51 C 208.00 410.22 190.40 399.34 172.22 389.52 C 156.61 380.47 141.12 371.22 125.34 362.47 C 111.68 354.79 98.25 346.69 84.48 339.21 C 81.51 337.59 78.78 334.58 75.07 335.42 M 28.62 432.39 C 27.75 435.23 26.81 438.10 26.61 441.08 C 26.67 448.45 24.74 455.66 25.50 463.06 C 35.42 471.16 47.66 475.66 58.08 483.01 C 68.28 488.34 77.78 494.90 88.06 500.09 C 100.39 507.47 113.13 514.15 125.32 521.76 C 152.33 536.97 179.14 552.54 205.97 568.08 C 217.67 574.24 228.71 581.58 240.41 587.74 C 254.80 595.94 269.10 604.30 283.31 612.82 C 285.14 614.02 287.44 613.43 289.50 613.60 C 289.36 609.71 289.70 605.84 290.36 602.01 C 290.50 595.32 290.57 588.62 290.43 581.93 C 288.55 578.91 284.97 577.63 282.06 575.83 C 263.60 565.32 245.16 554.79 226.84 544.02 C 199.64 528.19 172.09 512.96 145.02 496.90 C 134.33 491.46 124.35 484.74 113.78 479.08 C 103.97 473.12 93.95 467.55 83.93 461.95 C 69.70 453.43 55.23 445.29 40.81 437.09 C 37.02 434.83 33.40 431.41 28.62 432.39 M 44.46 486.42 C 43.17 487.78 41.81 489.10 40.77 490.67 C 40.07 494.02 40.42 497.49 40.55 500.89 C 44.80 499.96 46.75 495.42 49.38 492.39 C 51.06 490.72 50.67 488.26 49.42 486.48 C 47.76 486.47 46.11 486.45 44.46 486.42 M 27.67 501.72 C 28.56 501.65 30.33 501.52 31.22 501.46 C 32.65 499.17 32.67 496.47 32.49 493.87 C 31.53 492.10 29.42 491.72 27.73 490.98 C 25.86 494.06 25.87 498.59 27.67 501.72 M 344.52 493.38 C 340.95 496.87 337.80 500.74 334.93 504.81 C 323.43 520.51 314.41 538.18 309.59 557.06 C 309.00 563.22 306.37 569.07 306.51 575.29 C 307.93 575.92 309.37 576.63 310.98 576.50 C 316.10 576.53 321.27 576.20 326.30 577.40 C 328.81 578.04 330.63 575.86 332.20 574.26 C 332.76 571.08 332.34 567.77 333.29 564.65 C 336.52 551.34 341.98 538.63 348.94 526.85 C 352.42 521.00 357.42 516.27 361.52 510.88 C 360.64 506.39 356.20 503.83 353.61 500.33 C 351.06 497.55 348.86 493.14 344.52 493.38 M 305.60 587.94 C 305.38 594.97 305.60 602.02 305.47 609.06 C 305.54 612.87 305.04 616.75 305.97 620.50 C 313.61 620.60 321.26 620.51 328.91 620.53 C 329.57 619.08 330.55 617.68 330.44 616.03 C 330.51 606.26 330.44 596.49 330.59 586.72 C 326.44 583.27 320.88 584.91 315.97 584.48 C 312.38 584.37 307.22 583.95 305.60 587.94 M 314.02 628.67 C 311.22 631.01 313.20 634.93 312.02 637.91 C 310.24 642.66 306.38 646.78 306.41 652.09 C 307.48 654.45 310.93 654.06 312.00 651.91 C 316.09 645.97 320.24 639.84 322.45 632.93 C 323.10 628.21 317.33 627.92 314.02 628.67 M 294.52 654.56 C 295.52 654.56 297.52 654.55 298.52 654.55 C 298.59 651.97 298.62 649.40 298.62 646.83 C 297.92 646.21 296.52 644.98 295.82 644.36 C 293.51 647.29 294.64 651.14 294.52 654.56 Z" />
<path fill="#2c2c2c" opacity="1.00" d=" M 336.35 276.73 C 342.64 275.69 349.01 278.19 354.04 281.85 C 357.93 284.81 361.66 289.22 360.60 294.46 C 359.11 305.13 348.37 311.09 338.83 313.46 C 334.63 313.78 330.40 313.75 326.20 313.43 C 319.71 311.96 313.52 307.88 310.58 301.77 C 310.44 297.94 309.60 293.61 312.12 290.33 C 314.52 286.99 315.93 282.77 319.43 280.38 C 321.17 278.86 323.62 279.62 325.71 279.20 C 329.29 278.53 332.79 277.49 336.35 276.73 M 318.44 299.55 C 319.47 299.59 320.51 299.61 321.55 299.60 C 323.81 294.22 328.54 290.70 332.36 286.50 C 325.20 285.36 317.31 292.15 318.44 299.55 Z" />
</g>
</svg>
