<?xml version="1.0" encoding="UTF-8" ?>
<!DOCTYPE svg PUBLIC "-//W3C//DTD SVG 1.1//EN" "http://www.w3.org/Graphics/SVG/1.1/DTD/svg11.dtd">
<svg width="596pt" height="439pt" viewBox="0 0 596 439" version="1.1" xmlns="http://www.w3.org/2000/svg">
<g id="#fefefeff">
<path fill="#fefefe" opacity="1.00" d=" M 0.00 0.00 L 596.00 0.00 L 596.00 439.00 L 0.00 439.00 L 0.00 0.00 M 206.81 30.67 C 205.82 40.14 201.08 48.85 200.38 58.33 C 200.88 57.95 201.88 57.20 202.37 56.82 C 204.78 52.13 205.47 46.78 206.99 41.77 C 208.01 37.96 209.53 34.26 209.78 30.29 C 208.79 30.41 207.80 30.54 206.81 30.67 M 44.42 30.54 C 44.15 39.51 44.35 48.49 44.29 57.47 C 45.09 57.46 46.70 57.45 47.50 57.44 C 47.53 53.85 47.54 50.26 47.59 46.67 C 52.06 46.25 56.94 47.48 61.07 45.26 C 66.63 41.99 65.32 32.07 58.77 30.90 C 54.07 30.05 49.19 30.76 44.42 30.54 M 216.14 32.78 C 215.38 35.00 214.52 37.19 213.27 39.18 C 214.00 40.22 214.91 41.16 215.43 42.34 C 215.78 47.41 214.53 52.74 216.57 57.59 C 218.69 57.55 220.82 57.49 222.93 57.26 C 221.56 55.65 219.93 54.27 218.68 52.56 C 218.43 49.22 218.45 45.85 218.61 42.51 C 219.60 41.15 220.96 40.13 222.15 38.95 C 220.98 38.31 219.81 37.69 218.63 37.08 C 218.39 35.23 219.35 30.62 216.14 32.78 M 249.74 38.48 C 249.81 44.67 249.66 50.85 249.80 57.04 C 250.64 57.39 251.49 57.76 252.33 58.13 C 255.66 53.70 253.44 47.97 254.48 42.94 C 255.78 40.13 259.16 40.26 261.54 41.51 C 261.66 46.96 261.52 52.42 261.68 57.88 C 262.89 57.63 264.11 57.40 265.33 57.16 C 265.32 52.81 265.06 48.44 265.50 44.11 C 266.03 40.39 272.18 38.88 273.32 43.03 C 273.55 47.86 273.32 52.69 273.44 57.52 C 274.50 57.51 275.57 57.49 276.64 57.48 C 276.54 52.64 276.68 47.80 276.56 42.96 C 276.87 39.91 273.94 37.29 270.98 37.46 C 268.65 37.17 266.76 38.83 264.78 39.76 C 262.68 38.84 260.62 36.81 258.16 37.69 C 255.45 38.68 252.59 38.65 249.74 38.48 M 70.52 38.46 C 70.60 44.39 70.48 50.32 70.53 56.26 C 71.37 58.10 73.76 58.10 74.20 55.99 C 73.44 51.15 73.64 46.16 75.50 41.57 C 77.14 41.32 79.04 41.82 80.49 40.87 C 80.56 39.65 80.56 38.42 80.51 37.20 C 77.24 38.05 73.94 38.96 70.52 38.46 M 90.24 37.89 C 84.14 39.91 83.10 47.31 84.97 52.65 C 87.23 59.43 98.58 59.67 101.37 53.21 C 103.24 49.06 102.91 43.71 99.94 40.13 C 97.40 37.72 93.58 36.63 90.24 37.89 M 108.90 41.04 C 106.67 43.47 107.40 47.00 107.37 49.99 C 107.09 53.20 109.94 55.36 112.14 57.20 C 115.03 58.01 117.96 57.18 120.68 56.20 C 120.61 57.63 120.56 59.05 120.50 60.48 C 119.01 61.21 117.63 62.50 115.90 62.53 C 112.88 62.78 110.89 60.03 108.43 58.78 C 108.48 60.62 107.77 63.22 110.04 64.03 C 114.82 67.49 123.39 65.31 124.07 58.88 C 124.81 52.09 124.10 45.23 124.31 38.42 C 122.07 38.50 119.75 38.85 117.62 37.95 C 114.40 36.43 110.80 38.37 108.90 41.04 M 131.40 38.56 C 131.26 44.85 131.43 51.14 131.37 57.43 C 132.15 57.44 133.72 57.46 134.50 57.47 C 134.80 52.26 133.74 46.83 135.73 41.84 C 137.78 41.47 139.81 40.95 141.81 40.36 C 141.40 39.57 140.56 37.99 140.15 37.20 C 137.30 38.09 134.40 38.76 131.40 38.56 M 146.71 39.68 C 146.38 41.07 146.06 42.46 145.74 43.85 C 148.23 43.99 149.71 41.92 151.57 40.64 C 153.13 40.40 154.73 40.43 156.29 40.68 C 157.92 41.64 157.55 43.69 157.89 45.28 C 154.18 45.78 150.36 46.30 146.95 47.91 C 144.54 49.70 145.54 52.95 145.32 55.50 C 148.89 58.82 154.19 57.93 158.28 56.17 C 159.37 56.77 160.47 57.36 161.57 57.95 C 161.65 52.61 161.64 47.25 161.45 41.91 C 161.51 39.79 159.48 38.56 157.75 37.88 C 153.99 36.67 150.02 37.72 146.71 39.68 M 173.38 38.52 C 174.19 41.02 176.89 40.81 178.99 40.55 C 181.81 45.74 179.99 51.84 180.48 57.45 C 181.26 57.45 182.82 57.46 183.60 57.46 C 183.83 53.45 183.25 49.37 184.09 45.41 C 184.13 44.00 185.14 42.29 184.10 41.05 C 181.45 37.98 177.18 36.10 173.38 38.52 M 227.23 43.98 C 229.75 43.92 231.26 41.88 232.96 40.33 C 235.18 40.45 237.36 40.92 239.47 41.64 C 239.48 42.58 239.52 44.46 239.54 45.40 C 234.82 45.40 229.91 46.47 226.29 49.67 C 226.43 52.19 225.72 55.37 228.48 56.74 C 233.20 59.77 238.65 54.72 243.49 57.63 C 243.14 52.76 243.58 47.85 243.07 43.01 C 242.52 34.61 226.77 35.63 227.23 43.98 M 283.50 38.43 C 283.59 47.05 283.31 55.69 283.64 64.31 C 284.37 64.48 285.82 64.82 286.54 64.99 C 286.75 62.18 286.75 59.35 286.73 56.53 C 290.16 57.70 294.93 58.86 297.60 55.62 C 302.70 50.62 301.47 39.32 293.82 37.49 C 290.30 37.20 287.09 39.41 283.50 38.43 M 311.39 37.98 C 304.37 40.82 303.25 51.45 308.85 56.17 C 310.67 58.15 313.63 57.55 316.04 57.66 C 319.84 57.79 323.52 54.88 322.73 50.81 C 319.99 52.19 317.51 54.03 314.95 55.71 C 312.09 54.52 309.68 52.61 308.68 49.58 C 313.47 47.83 318.63 49.05 323.61 48.50 C 324.78 41.86 317.94 35.04 311.39 37.98 M 329.54 38.52 C 329.49 44.82 329.50 51.12 329.54 57.43 C 330.31 57.43 331.85 57.45 332.62 57.46 C 332.54 52.25 332.33 46.98 333.84 41.92 C 335.95 41.57 338.03 41.04 340.06 40.32 C 339.62 39.54 338.76 37.97 338.32 37.18 C 335.52 38.31 332.55 38.80 329.54 38.52 M 168.68 51.99 C 168.73 54.43 167.95 58.11 171.62 57.86 C 171.64 51.84 173.19 45.82 172.50 39.81 C 171.80 39.22 170.39 38.04 169.69 37.46 C 168.19 42.17 168.84 47.13 168.68 51.99 M 186.16 39.90 C 187.51 40.83 189.21 40.58 190.76 40.77 C 193.11 46.18 191.97 52.11 192.53 57.81 C 193.28 57.63 194.78 57.29 195.53 57.12 C 194.73 50.87 197.16 43.89 193.28 38.37 C 190.91 38.26 188.53 38.15 186.16 38.36 C 186.16 38.75 186.16 39.51 186.16 39.90 M 365.72 44.98 C 357.94 49.56 349.92 53.71 342.21 58.40 C 339.08 60.07 339.46 64.02 339.67 67.01 C 340.30 72.05 340.47 77.11 340.48 82.18 C 315.91 96.34 291.06 109.99 266.54 124.22 C 259.57 127.85 252.75 131.75 246.03 135.83 C 244.54 136.57 243.08 137.94 241.30 137.52 C 238.83 136.06 236.92 133.86 234.71 132.07 C 234.45 135.54 234.50 139.02 234.30 142.49 C 211.61 135.62 189.05 128.33 166.37 121.45 C 162.46 120.25 158.63 118.72 154.56 118.10 C 154.45 119.46 154.34 120.81 154.25 122.17 C 178.77 129.58 203.14 137.48 227.67 144.84 C 227.62 145.22 227.51 145.98 227.46 146.36 C 204.79 158.96 182.23 171.74 159.70 184.57 C 155.52 186.85 151.56 189.65 147.09 191.36 C 137.62 186.62 128.84 180.44 118.88 176.73 C 113.03 176.01 106.87 175.79 101.31 178.06 C 85.89 183.12 74.85 196.04 65.94 208.98 C 61.59 212.55 56.12 214.52 51.58 217.87 C 51.13 227.26 51.77 236.66 51.43 246.05 C 46.66 248.26 42.06 250.89 37.79 253.95 C 37.03 255.59 36.67 257.38 35.98 259.06 C 34.03 260.88 31.28 261.82 29.80 264.13 C 28.53 274.42 29.72 284.81 31.84 294.91 C 32.54 301.76 37.44 307.26 42.62 311.34 C 63.51 322.95 84.56 334.27 105.52 345.71 C 110.59 348.63 116.77 344.21 121.58 347.64 C 127.87 351.01 134.05 354.57 140.37 357.88 C 143.05 358.92 143.21 362.17 144.54 364.35 C 146.06 367.76 149.34 369.78 152.48 371.51 C 172.65 382.32 192.67 393.42 212.74 404.41 C 218.81 407.76 226.41 406.89 232.29 403.54 C 266.16 384.42 299.97 365.21 333.85 346.10 C 353.81 334.20 374.36 323.33 394.54 311.81 C 414.98 300.22 435.41 288.61 455.87 277.06 C 486.79 259.68 517.41 241.77 548.50 224.69 C 557.11 219.60 566.14 215.17 574.27 209.30 C 580.25 204.99 581.85 197.04 581.65 190.09 C 582.54 182.07 582.79 173.99 582.57 165.93 C 582.75 163.40 579.86 162.76 578.33 161.38 C 575.30 159.67 575.25 155.29 571.88 153.88 C 558.48 146.56 545.08 139.23 531.69 131.90 C 533.10 127.53 533.32 122.37 530.71 118.40 C 528.62 114.79 525.04 112.39 521.52 110.32 C 500.65 98.83 479.70 87.49 458.82 76.02 C 454.76 73.69 449.83 72.60 445.28 74.05 C 441.91 74.93 439.88 77.99 438.07 80.71 C 429.78 76.39 421.68 71.72 413.37 67.44 C 409.43 66.04 409.37 60.95 405.92 58.98 C 396.06 53.45 386.10 48.10 376.22 42.61 C 372.67 40.23 368.87 43.35 365.72 44.98 M 99.67 72.66 C 99.68 73.81 99.70 74.96 99.71 76.12 C 100.56 76.38 101.41 76.64 102.27 76.91 C 102.88 75.51 103.42 74.07 103.83 72.59 C 102.44 72.60 101.06 72.62 99.67 72.66 M 44.96 82.93 C 48.49 87.80 55.58 86.44 60.05 89.94 C 60.97 91.48 60.27 93.45 60.35 95.16 C 57.23 96.10 53.89 97.30 50.63 96.22 C 47.72 95.31 46.64 92.14 44.84 90.00 C 40.88 93.37 45.62 97.98 49.00 99.37 C 53.17 99.58 58.25 100.74 61.62 97.57 C 64.37 95.30 65.37 90.84 62.96 87.97 C 59.34 82.76 51.51 85.10 47.47 80.57 C 46.54 78.23 48.83 76.72 50.52 75.63 C 52.49 75.36 54.52 75.40 56.49 75.69 C 58.67 77.27 60.14 79.80 62.88 80.56 C 62.70 78.34 62.96 75.57 60.62 74.37 C 57.79 71.64 53.60 72.24 50.03 72.51 C 45.78 73.42 41.51 79.04 44.96 82.93 M 143.68 85.00 C 143.77 89.90 143.39 94.83 144.01 99.71 C 145.14 99.50 146.25 99.23 147.35 98.91 C 147.61 94.41 147.12 89.89 147.55 85.39 C 149.32 82.24 154.26 81.19 156.09 84.91 C 156.79 89.70 156.19 94.60 156.38 99.43 C 157.18 99.42 158.77 99.41 159.56 99.41 C 159.59 93.84 159.58 88.27 159.51 82.70 C 158.02 81.56 156.59 80.29 154.87 79.50 C 152.25 79.02 149.83 80.21 147.43 81.02 C 147.40 78.60 147.41 76.17 147.50 73.75 C 146.77 73.34 145.33 72.51 144.60 72.10 C 143.14 76.25 143.80 80.69 143.68 85.00 M 111.59 74.40 C 110.91 76.77 110.15 79.14 109.02 81.34 C 109.63 82.53 110.70 83.61 110.62 85.05 C 110.85 89.95 109.85 95.13 112.46 99.59 C 114.36 99.53 116.26 99.43 118.16 99.30 C 117.02 97.66 115.39 96.36 114.51 94.56 C 114.16 90.93 114.51 87.27 114.34 83.64 C 115.59 82.84 116.83 82.02 118.05 81.16 C 116.85 80.46 115.64 79.79 114.42 79.13 C 114.41 77.48 114.39 75.84 114.36 74.19 C 113.67 74.24 112.28 74.35 111.59 74.40 M 80.32 80.33 C 78.58 84.93 77.50 89.74 76.09 94.45 C 74.32 89.80 73.78 84.67 71.27 80.33 C 70.55 80.35 69.13 80.39 68.41 80.41 C 70.87 86.64 71.52 93.64 74.92 99.45 C 75.49 99.48 76.62 99.54 77.18 99.57 C 79.70 95.41 80.10 90.37 81.17 85.72 C 83.36 90.07 84.24 94.89 85.76 99.48 C 86.61 99.45 88.31 99.40 89.16 99.37 C 90.91 92.95 93.48 86.76 94.85 80.24 C 94.15 80.31 92.73 80.47 92.02 80.54 C 90.11 84.63 89.37 89.12 87.98 93.39 C 85.27 89.54 85.20 84.62 83.56 80.32 C 82.48 80.32 81.40 80.32 80.32 80.33 M 125.39 81.33 C 121.43 83.91 122.26 88.97 122.32 93.02 C 122.20 95.91 124.68 98.10 126.96 99.41 C 130.18 99.59 134.32 100.52 136.61 97.59 C 138.50 96.18 139.52 93.39 137.08 91.89 C 135.11 93.76 133.71 96.50 131.02 97.43 C 128.67 97.62 127.21 95.32 125.76 93.84 C 125.34 91.24 125.46 88.57 125.73 85.97 C 126.61 83.30 129.67 81.65 132.33 82.67 C 134.08 83.94 135.68 85.41 137.44 86.68 C 139.72 79.79 129.58 77.18 125.39 81.33 M 100.44 80.71 C 100.22 86.81 98.93 92.94 100.59 98.97 C 101.09 99.21 102.08 99.68 102.57 99.92 C 102.99 93.28 102.83 86.61 102.69 79.97 C 102.13 80.15 101.00 80.52 100.44 80.71 Z" />
<path fill="#fefefe" opacity="1.00" d=" M 47.64 33.75 C 52.00 33.68 56.64 33.06 60.53 35.48 C 60.19 37.86 61.67 41.48 58.76 42.59 C 55.36 44.37 51.26 43.25 47.56 43.44 C 47.53 40.21 47.52 36.98 47.64 33.75 Z" />
<path fill="#fefefe" opacity="1.00" d=" M 113.26 41.27 C 115.72 39.20 118.94 41.20 120.42 43.49 C 120.93 46.55 120.60 49.66 120.47 52.74 C 117.64 54.76 113.12 55.54 111.17 51.94 C 109.94 48.48 109.85 43.64 113.26 41.27 Z" />
<path fill="#fefefe" opacity="1.00" d=" M 308.86 45.40 C 309.93 43.20 311.38 40.39 314.23 40.47 C 317.41 39.82 319.03 43.20 320.36 45.46 C 316.53 45.68 312.68 45.64 308.86 45.40 Z" />
<path fill="#fefefe" opacity="1.00" d=" M 89.64 41.72 C 91.35 40.83 93.26 40.50 95.15 40.25 C 96.21 41.36 97.32 42.43 98.27 43.66 C 98.96 46.20 98.85 48.94 98.42 51.52 C 97.33 53.21 95.76 54.55 94.02 55.55 C 87.29 55.25 85.33 45.98 89.64 41.72 Z" />
<path fill="#fefefe" opacity="1.00" d=" M 290.08 40.53 C 292.74 39.94 295.20 41.07 296.48 43.47 C 296.94 46.47 296.61 49.52 296.53 52.54 C 295.03 53.61 293.52 54.66 292.03 55.73 C 290.29 54.56 288.02 53.79 287.14 51.72 C 285.67 47.83 286.69 43.15 290.08 40.53 Z" />
<path fill="#fefefe" opacity="1.00" d=" M 229.04 51.85 C 231.73 48.75 235.97 48.59 239.77 48.37 C 240.06 51.57 237.85 54.32 234.97 55.45 C 232.25 56.05 230.26 54.01 229.04 51.85 Z" />
<path fill="#fefefe" opacity="1.00" d=" M 147.99 51.89 C 150.57 48.69 155.40 47.57 159.05 49.51 C 157.40 52.00 155.78 56.13 152.06 55.47 C 149.85 55.75 149.10 53.25 147.99 51.89 Z" />
<path fill="#fefefe" opacity="1.00" d=" M 364.79 51.02 C 369.15 49.13 373.92 48.93 378.30 50.89 C 378.50 51.75 378.71 52.62 378.93 53.48 C 377.11 52.81 375.13 51.84 373.19 52.65 C 370.23 53.92 366.98 53.38 363.87 53.77 C 364.18 52.85 364.48 51.94 364.79 51.02 Z" />
<path fill="#fefefe" opacity="1.00" d=" M 381.47 49.16 C 385.07 51.28 388.75 53.25 392.42 55.25 C 388.60 55.44 384.77 55.73 381.16 57.11 C 382.36 54.55 382.73 51.78 381.47 49.16 Z" />
<path fill="#fefefe" opacity="1.00" d=" M 350.27 58.36 C 352.86 55.47 356.51 54.05 359.94 52.45 C 360.78 54.60 361.39 57.23 363.64 58.36 C 365.68 59.28 367.84 59.89 370.02 60.36 C 372.71 60.52 375.25 59.36 377.78 58.61 C 377.84 60.94 376.77 63.72 378.45 65.71 C 380.54 68.74 384.60 68.82 387.80 69.84 C 384.70 72.41 381.12 74.29 377.51 76.03 C 377.28 74.04 377.91 71.82 377.06 69.96 C 375.36 69.00 373.58 68.16 371.72 67.60 C 369.35 67.13 367.26 68.65 365.09 69.32 C 362.78 70.33 360.27 69.38 358.05 68.62 C 359.27 66.28 361.63 63.70 360.20 60.90 C 357.55 58.32 353.66 58.60 350.27 58.36 Z" />
<path fill="#fefefe" opacity="1.00" d=" M 380.19 62.46 C 384.31 57.89 392.55 57.08 396.54 62.23 C 391.10 62.74 385.64 62.18 380.19 62.46 Z" />
<path fill="#fefefe" opacity="1.00" d=" M 399.53 58.77 C 400.80 59.86 402.06 60.96 403.33 62.07 C 401.98 62.37 400.63 62.66 399.29 62.94 C 399.35 61.55 399.43 60.16 399.53 58.77 Z" />
<path fill="#fefefe" opacity="1.00" d=" M 349.37 62.49 C 352.11 62.26 354.87 62.24 357.60 62.61 C 355.64 64.63 352.95 65.57 350.47 66.77 C 350.34 70.52 350.68 74.29 350.10 78.01 C 348.65 73.02 349.55 67.64 349.37 62.49 Z" />
<path fill="#fefefe" opacity="1.00" d=" M 379.70 78.76 C 388.70 74.04 397.16 68.30 406.39 64.04 C 408.54 70.18 411.44 76.05 413.17 82.32 C 413.80 89.56 413.17 96.87 414.24 104.08 C 414.87 106.14 413.08 107.52 411.50 108.37 C 403.30 113.12 395.04 117.77 386.81 122.47 C 384.22 123.91 381.59 125.34 378.74 126.23 C 378.59 119.15 378.77 112.04 377.69 105.03 C 377.61 97.08 377.28 89.12 377.37 81.16 C 377.14 79.78 378.85 79.41 379.70 78.76 Z" />
<path fill="#fefefe" opacity="1.00" d=" M 343.67 63.68 C 346.95 65.78 345.10 69.83 345.76 73.01 C 346.75 77.94 346.53 82.98 346.74 87.97 C 347.41 95.66 347.59 103.41 347.32 111.12 C 346.68 110.54 345.41 109.38 344.77 108.80 C 344.40 93.76 342.85 78.73 343.67 63.68 Z" />
<path fill="#fefefe" opacity="1.00" d=" M 353.67 70.00 C 356.71 71.11 359.89 72.35 362.22 74.68 C 363.77 78.25 363.37 82.20 363.49 85.98 C 363.41 97.59 364.76 109.12 364.62 120.73 C 361.47 119.12 358.35 117.40 355.52 115.25 C 355.60 110.16 355.51 105.07 355.32 99.99 C 354.08 90.04 354.68 79.97 353.67 70.00 Z" />
<path fill="#fefefe" opacity="1.00" d=" M 366.34 72.20 C 368.62 71.24 371.10 71.13 373.55 71.29 C 373.61 71.86 373.73 73.01 373.79 73.58 C 371.92 74.20 370.08 74.86 368.27 75.61 C 368.12 86.33 368.69 97.05 368.52 107.77 C 368.37 111.36 368.94 114.90 369.54 118.43 C 369.06 118.41 368.10 118.36 367.62 118.34 C 367.26 108.56 368.16 98.69 366.57 89.01 C 366.54 83.41 366.30 77.81 366.34 72.20 Z" />
<path fill="#fefefe" opacity="1.00" d=" M 414.10 74.04 C 421.46 78.16 428.76 82.40 436.38 86.02 C 436.03 94.69 437.79 103.24 437.37 111.90 C 430.72 108.58 424.03 105.19 417.79 101.14 C 415.78 96.36 416.87 91.01 416.47 85.97 C 416.80 81.82 415.09 77.98 414.10 74.04 Z" />
<path fill="#fefefe" opacity="1.00" d=" M 445.48 77.58 C 447.52 76.22 450.01 76.43 452.34 76.45 C 452.40 77.12 452.52 78.46 452.57 79.12 C 450.35 80.10 447.99 80.71 445.80 81.74 C 442.67 83.61 445.41 90.24 440.84 89.64 C 440.48 89.27 439.76 88.53 439.40 88.17 C 440.15 84.15 441.51 79.53 445.48 77.58 Z" />
<path fill="#fefefe" opacity="1.00" d=" M 370.58 79.18 C 371.30 79.31 372.74 79.58 373.46 79.71 C 374.30 88.31 374.47 96.93 374.62 105.56 C 375.58 112.53 375.66 119.60 375.39 126.62 C 374.72 126.17 373.39 125.26 372.72 124.81 C 372.04 117.23 372.82 109.58 371.75 102.03 C 371.55 94.40 371.26 86.78 370.58 79.18 Z" />
<path fill="#fefefe" opacity="1.00" d=" M 455.48 78.93 C 458.98 79.41 461.90 81.48 464.97 83.07 C 482.51 92.80 500.15 102.34 517.77 111.92 C 517.04 112.93 516.31 113.95 515.59 114.96 C 495.38 104.13 475.35 92.98 455.22 82.01 C 455.28 81.24 455.41 79.70 455.48 78.93 Z" />
<path fill="#fefefe" opacity="1.00" d=" M 446.90 84.90 C 449.53 82.44 452.69 84.34 455.26 85.77 C 475.69 97.11 496.29 108.14 516.76 119.40 C 519.49 120.90 521.63 123.22 523.25 125.85 C 519.79 126.06 517.11 123.74 514.08 122.53 C 510.97 121.69 507.46 123.24 504.64 121.25 C 492.15 114.50 479.72 107.62 467.25 100.84 C 464.10 99.56 463.12 96.18 461.28 93.67 C 456.66 90.47 451.12 88.71 446.90 84.90 Z" />
<path fill="#fefefe" opacity="1.00" d=" M 333.51 93.21 C 335.77 91.92 338.08 90.72 340.46 89.66 C 340.57 92.06 340.65 94.46 340.72 96.86 C 338.53 95.22 336.13 93.96 333.51 93.21 Z" />
<path fill="#fefefe" opacity="1.00" d=" M 440.39 92.76 C 441.64 92.76 442.90 92.77 444.16 92.77 C 444.57 104.30 443.92 115.91 445.52 127.37 C 444.15 127.47 442.79 127.58 441.43 127.69 C 441.07 116.05 440.12 104.42 440.39 92.76 Z" />
<path fill="#fefefe" opacity="1.00" d=" M 447.43 92.66 C 450.14 93.80 452.86 95.02 455.25 96.78 C 456.63 98.54 456.24 100.88 456.37 102.96 C 456.72 109.28 456.19 115.60 456.25 121.93 C 453.50 121.25 450.93 119.96 448.78 118.14 C 447.39 116.41 447.72 114.11 447.64 112.05 C 447.60 105.59 447.34 99.12 447.43 92.66 Z" />
<path fill="#fefefe" opacity="1.00" d=" M 324.26 103.61 C 328.14 101.35 332.19 99.38 336.12 97.21 C 337.00 98.86 337.92 100.51 338.86 102.14 C 334.69 104.76 330.54 107.57 325.78 109.01 C 325.23 107.22 324.46 105.48 324.26 103.61 Z" />
<path fill="#fefefe" opacity="1.00" d=" M 282.64 121.80 C 295.43 114.94 307.92 107.51 320.64 100.52 C 320.26 104.57 320.33 108.63 320.73 112.67 C 312.05 117.64 303.23 122.36 294.69 127.57 C 293.73 128.09 292.63 129.04 291.53 128.25 C 288.42 126.69 285.48 124.80 282.34 123.31 C 282.42 122.93 282.56 122.17 282.64 121.80 Z" />
<path fill="#fefefe" opacity="1.00" d=" M 464.37 104.31 C 466.93 103.80 469.06 105.69 471.24 106.69 C 482.95 113.33 495.00 119.37 506.53 126.31 C 506.50 128.46 506.49 130.61 506.49 132.76 C 505.43 132.66 504.37 132.56 503.32 132.47 C 502.85 130.55 502.63 128.59 502.51 126.63 C 493.13 121.58 483.86 116.33 474.46 111.32 C 471.85 109.58 468.79 110.93 466.02 111.37 C 464.32 110.83 462.86 109.77 461.28 108.99 C 462.26 107.41 462.92 105.52 464.37 104.31 Z" />
<path fill="#fefefe" opacity="1.00" d=" M 329.85 112.22 C 333.79 110.37 337.37 107.89 341.24 105.93 C 341.68 108.44 341.73 111.44 343.97 113.14 C 346.03 115.50 349.52 114.82 352.01 113.60 C 352.99 120.10 360.21 121.60 364.96 124.64 C 366.33 124.13 367.71 123.62 369.10 123.15 C 370.06 127.79 375.00 132.24 379.84 130.09 C 391.25 123.82 402.50 117.25 413.85 110.89 C 416.05 109.75 417.05 107.36 418.30 105.37 C 424.61 109.01 430.95 112.63 437.51 115.81 C 437.69 120.84 437.09 126.12 439.66 130.69 C 442.09 130.72 444.55 130.84 446.96 130.33 C 448.79 127.96 448.20 124.90 448.38 122.13 C 462.40 129.31 476.04 137.21 489.96 144.57 C 491.07 144.96 491.52 146.05 492.04 147.01 C 454.28 167.87 416.95 189.53 379.26 210.52 C 372.83 214.35 366.21 217.86 359.80 221.73 C 350.89 227.10 345.74 237.09 343.86 247.06 C 342.88 255.72 344.69 264.33 344.55 272.99 C 344.42 278.44 345.55 283.81 345.42 289.27 C 339.38 292.46 333.62 296.16 327.59 299.39 C 327.04 297.80 326.51 296.22 326.02 294.62 C 323.68 294.64 321.13 294.05 319.03 295.38 C 313.18 298.72 307.28 301.99 301.57 305.56 C 301.59 306.43 301.60 307.31 301.62 308.18 C 303.31 309.16 305.01 310.12 306.71 311.10 C 304.18 312.69 301.51 314.05 298.64 314.90 C 297.96 307.25 298.79 299.58 298.41 291.92 C 297.25 282.36 293.62 272.15 285.04 266.83 C 277.59 262.58 270.02 258.51 262.49 254.40 C 259.21 252.71 255.79 249.91 255.66 245.91 C 255.51 238.41 255.18 230.90 255.30 223.40 C 258.59 221.81 260.98 219.06 263.47 216.50 C 266.79 214.12 270.45 212.20 274.08 210.34 C 276.32 209.11 279.10 209.94 281.29 208.57 C 284.36 206.98 287.26 205.08 290.21 203.29 C 291.80 205.13 293.34 207.01 294.87 208.91 C 289.23 215.31 284.35 222.35 278.95 228.95 C 277.90 230.72 274.87 233.11 277.73 234.70 C 279.93 234.77 282.45 234.97 283.97 233.04 C 289.49 227.07 293.93 220.20 299.33 214.11 C 300.55 214.39 301.77 214.67 303.00 214.97 C 301.10 219.46 297.27 222.67 294.55 226.63 C 292.13 229.92 289.35 232.95 287.07 236.34 C 286.21 237.51 285.98 240.14 287.90 240.43 C 291.30 240.84 293.97 238.35 295.99 235.96 C 300.36 230.58 304.16 224.73 309.03 219.76 C 311.61 221.17 314.22 222.64 317.09 223.39 C 319.20 224.07 320.64 222.15 321.89 220.78 C 339.68 198.30 357.29 175.67 375.18 153.26 C 376.82 150.83 380.07 147.62 377.32 144.79 C 370.80 136.61 362.55 129.67 353.07 125.15 C 351.35 124.21 349.33 124.41 347.45 124.27 C 332.28 142.81 318.03 162.12 302.67 180.50 C 300.99 172.46 302.18 164.22 301.24 156.12 C 296.28 152.43 290.47 150.08 285.16 146.96 C 289.44 142.90 294.21 139.40 298.55 135.39 C 297.84 133.61 297.14 131.82 296.46 130.02 C 307.73 124.34 318.13 116.97 329.85 112.22 Z" />
<path fill="#fefefe" opacity="1.00" d=" M 459.64 112.02 C 461.28 112.80 462.91 113.60 464.53 114.43 C 464.57 117.02 464.57 119.61 464.49 122.20 C 462.92 121.54 461.34 120.91 459.86 120.10 C 459.03 117.49 459.59 114.69 459.64 112.02 Z" />
<path fill="#fefefe" opacity="1.00" d=" M 473.33 114.20 C 481.59 118.99 490.07 123.40 498.38 128.09 C 497.56 130.05 496.73 132.01 496.02 134.02 C 488.10 129.94 480.26 125.64 472.60 121.08 C 472.66 118.77 472.91 116.47 473.33 114.20 Z" />
<path fill="#fefefe" opacity="1.00" d=" M 519.65 114.15 C 524.10 114.48 527.32 118.62 529.12 122.37 C 531.24 128.05 527.36 133.80 522.80 136.96 C 519.32 132.99 526.48 130.21 525.61 125.93 C 526.22 121.66 522.13 119.23 519.40 116.76 C 519.46 116.11 519.59 114.80 519.65 114.15 Z" />
<path fill="#fefefe" opacity="1.00" d=" M 467.66 128.16 C 467.83 123.66 467.04 118.86 469.06 114.67 C 469.50 116.88 469.36 119.17 469.74 121.39 C 471.00 123.52 472.87 125.18 474.39 127.12 C 475.04 128.77 473.95 130.40 473.49 131.95 C 471.49 130.78 469.20 129.94 467.66 128.16 Z" />
<path fill="#fefefe" opacity="1.00" d=" M 272.60 130.64 C 274.93 128.81 277.02 126.41 279.95 125.57 C 284.60 128.03 289.18 130.63 293.78 133.19 C 288.82 137.83 283.48 142.03 278.33 146.46 C 274.25 149.70 270.57 153.46 266.17 156.28 C 262.72 158.36 260.56 161.89 257.42 164.34 C 252.01 168.59 246.76 173.04 241.61 177.60 C 238.94 179.84 236.58 182.91 232.83 183.20 C 233.35 179.22 237.39 177.54 239.95 174.98 C 243.93 171.05 248.71 167.83 251.79 163.07 C 250.85 161.87 249.91 160.68 248.99 159.48 C 246.89 159.69 244.39 158.96 242.76 160.67 C 236.26 165.83 229.92 171.18 223.34 176.22 C 222.30 176.33 221.26 176.38 220.22 176.36 C 223.06 171.86 227.71 169.04 231.56 165.52 C 235.91 162.12 239.84 158.21 244.26 154.90 C 247.99 152.17 252.86 152.77 257.21 152.49 C 256.21 150.56 253.81 148.88 254.39 146.48 C 260.21 140.93 266.73 136.15 272.60 130.64 Z" />
<path fill="#fefefe" opacity="1.00" d=" M 346.95 129.99 C 348.14 128.65 349.73 126.49 351.66 128.05 C 360.24 132.37 367.97 138.52 374.02 145.98 C 375.37 147.60 373.92 149.56 372.86 150.87 C 355.32 172.91 337.98 195.10 320.55 217.23 C 316.89 214.28 313.97 210.56 310.43 207.48 C 305.52 203.29 300.01 199.84 294.17 197.11 C 298.24 191.27 303.02 185.97 307.36 180.34 C 320.42 163.44 333.74 146.76 346.95 129.99 Z" />
<path fill="#fefefe" opacity="1.00" d=" M 477.80 128.05 C 484.25 130.93 490.07 135.01 496.47 138.00 C 496.40 140.02 496.24 142.05 495.69 144.01 C 489.43 140.79 483.26 137.39 477.22 133.79 C 477.39 131.87 477.57 129.96 477.80 128.05 Z" />
<path fill="#fefefe" opacity="1.00" d=" M 509.51 136.93 C 509.51 133.63 509.43 130.28 510.49 127.11 C 512.95 128.44 515.48 129.70 517.78 131.32 C 516.32 134.39 512.14 135.03 509.51 136.93 Z" />
<path fill="#fefefe" opacity="1.00" d=" M 247.60 141.74 C 254.32 137.84 261.18 134.21 267.91 130.33 C 262.30 135.27 256.60 140.09 250.86 144.87 C 249.73 144.56 248.60 144.25 247.48 143.93 C 247.51 143.38 247.57 142.29 247.60 141.74 Z" />
<path fill="#fefefe" opacity="1.00" d=" M 499.65 133.99 C 502.32 135.18 504.91 136.53 507.44 138.00 C 504.97 139.54 502.44 141.04 499.68 141.99 C 499.55 139.33 499.56 136.66 499.65 133.99 Z" />
<path fill="#fefefe" opacity="1.00" d=" M 511.52 139.49 C 513.95 138.07 516.37 136.44 519.25 136.17 C 519.39 136.89 519.68 138.33 519.82 139.04 C 470.42 167.30 420.74 195.06 371.29 223.23 C 369.81 224.08 368.20 224.61 366.57 225.07 C 366.45 224.28 366.22 222.72 366.10 221.93 C 383.64 211.74 401.39 201.90 419.06 191.93 C 449.79 174.29 480.79 157.12 511.52 139.49 Z" />
<path fill="#fefefe" opacity="1.00" d=" M 512.56 146.80 C 518.09 144.23 523.41 141.17 528.04 137.16 C 540.79 143.59 553.43 150.36 565.71 157.66 C 565.64 159.90 565.59 162.14 565.58 164.39 C 562.17 166.69 558.68 168.93 554.90 170.59 C 553.10 171.10 551.53 169.98 550.02 169.22 C 537.49 162.29 524.89 155.48 512.28 148.71 C 512.35 148.24 512.49 147.28 512.56 146.80 Z" />
<path fill="#fefefe" opacity="1.00" d=" M 268.50 160.48 C 273.40 157.23 277.72 153.18 282.05 149.22 C 286.93 151.62 292.27 153.65 296.02 157.76 C 275.86 168.94 255.75 180.24 235.81 191.83 C 227.26 188.42 219.77 182.95 211.40 179.20 C 211.51 178.41 211.62 177.62 211.73 176.83 C 212.16 176.74 213.03 176.56 213.46 176.47 C 214.95 179.88 217.89 183.73 221.87 183.47 C 226.83 180.33 230.51 175.29 236.08 173.02 C 233.48 177.30 229.10 179.98 226.06 183.89 C 227.20 187.60 230.89 190.91 234.97 189.57 C 238.67 186.75 241.75 183.17 245.62 180.55 C 247.79 179.25 250.60 179.91 252.68 178.37 C 256.36 176.75 255.25 171.59 258.45 169.48 C 261.90 166.60 264.68 162.94 268.50 160.48 Z" />
<path fill="#fefefe" opacity="1.00" d=" M 502.50 152.69 C 503.62 152.13 504.84 152.70 505.85 153.25 C 519.14 160.73 532.62 167.87 545.97 175.26 C 543.29 177.51 540.21 179.18 537.15 180.85 C 476.69 215.15 415.99 249.04 355.74 283.70 C 354.22 275.20 354.79 266.57 354.15 258.01 C 352.83 250.44 354.49 242.25 359.25 236.13 C 362.62 231.38 368.00 228.80 372.94 226.01 C 416.11 201.56 459.35 177.18 502.50 152.69 Z" />
<path fill="#fefefe" opacity="1.00" d=" M 224.33 154.86 C 226.28 153.58 228.50 155.23 230.58 155.01 C 233.39 154.56 236.24 154.42 239.09 154.67 C 233.72 159.48 228.53 164.67 222.11 168.10 C 215.57 171.78 209.06 175.50 202.69 179.48 C 197.72 182.04 193.19 185.58 187.77 187.20 C 186.64 185.33 185.52 183.46 184.45 181.57 C 182.55 181.41 180.65 181.29 178.76 181.11 C 193.58 171.76 209.28 163.84 224.33 154.86 Z" />
<path fill="#fefefe" opacity="1.00" d=" M 238.35 193.81 C 258.23 183.12 277.59 171.47 297.48 160.78 C 299.01 169.08 298.41 177.60 298.51 185.99 C 296.85 188.57 294.79 190.86 292.76 193.16 C 291.96 190.78 292.09 187.02 288.96 186.47 C 283.64 185.38 280.39 191.05 278.82 195.28 C 277.49 199.04 280.86 201.88 283.17 204.30 C 279.96 205.85 276.12 204.80 273.17 206.96 C 267.54 210.39 261.03 212.88 257.21 218.57 C 258.44 214.85 259.32 210.88 258.35 206.99 C 255.26 203.41 250.54 205.97 247.83 208.59 C 244.71 207.09 241.57 205.63 238.32 204.44 C 238.31 200.89 238.23 197.35 238.35 193.81 Z" />
<path fill="#fefefe" opacity="1.00" d=" M 576.53 164.86 C 577.29 165.09 578.82 165.55 579.59 165.77 C 579.69 169.86 579.70 173.95 579.37 178.03 C 578.40 180.48 575.54 181.01 573.50 182.24 C 462.21 245.30 350.83 308.25 239.49 371.24 C 233.12 375.40 225.10 374.43 217.88 374.17 C 219.99 372.19 222.50 370.73 225.00 369.30 C 227.90 370.63 230.65 372.89 234.02 372.69 C 236.78 372.84 238.88 370.69 241.23 369.57 C 332.37 318.03 423.49 266.49 514.61 214.91 C 526.59 207.74 539.06 201.43 550.99 194.18 C 558.35 190.31 565.56 186.18 572.71 181.95 C 574.86 180.77 576.52 178.42 576.49 175.92 C 576.56 172.24 576.53 168.55 576.53 164.86 Z" />
<path fill="#fefefe" opacity="1.00" d=" M 324.17 311.87 C 406.54 265.13 489.03 218.57 571.46 171.92 C 572.26 173.88 572.66 175.96 572.71 178.09 C 460.21 241.68 347.75 305.37 235.24 368.94 C 234.80 366.91 234.58 364.85 234.41 362.79 C 264.06 345.37 294.29 328.92 324.17 311.87 Z" />
<path fill="#fefefe" opacity="1.00" d=" M 84.15 192.21 C 92.47 185.20 102.70 178.65 114.04 179.51 C 119.55 179.35 124.18 182.72 128.88 185.10 C 172.03 208.68 215.17 232.26 258.31 255.85 C 262.60 258.32 267.08 260.45 271.25 263.13 C 257.48 264.00 245.39 272.41 236.31 282.28 C 225.03 294.50 217.28 309.93 213.91 326.20 C 211.51 337.81 212.21 350.42 217.84 361.03 C 213.33 358.44 207.79 356.88 204.80 352.31 C 202.98 349.56 199.82 347.85 198.69 344.63 C 197.51 341.52 195.85 338.27 192.63 336.87 C 188.82 335.26 185.49 340.51 181.70 338.21 C 176.15 335.10 170.55 332.06 164.98 328.98 C 164.19 327.05 163.94 324.94 163.38 322.94 C 157.11 318.86 150.33 315.70 143.88 311.95 C 136.66 308.23 129.73 303.99 122.48 300.34 C 116.95 297.42 111.72 293.92 105.95 291.46 C 103.23 291.01 100.55 291.84 97.93 292.48 C 93.04 289.49 87.73 287.21 82.96 284.03 C 80.58 280.62 80.24 275.71 76.36 273.46 C 73.09 270.70 69.22 273.80 65.93 274.79 C 63.34 274.18 61.36 272.07 60.02 269.87 C 56.09 261.86 56.13 252.66 56.72 243.95 C 59.71 224.31 69.48 205.64 84.15 192.21 M 109.91 184.56 C 102.90 187.73 95.85 191.66 91.06 197.84 C 91.97 199.11 92.89 200.39 93.82 201.66 C 96.25 201.47 99.07 201.98 100.80 199.85 C 106.89 194.20 114.41 190.36 122.38 188.15 C 122.42 187.30 122.49 185.59 122.53 184.73 C 118.63 182.79 113.84 182.60 109.91 184.56 M 210.94 251.07 C 213.26 252.79 215.71 254.30 218.14 255.85 C 216.07 258.05 213.64 259.89 211.56 262.08 C 210.65 264.56 212.57 267.28 215.27 266.78 C 220.36 267.75 222.59 261.98 226.88 260.49 C 230.91 262.08 235.01 266.35 239.56 263.86 C 241.62 263.46 241.55 261.33 241.99 259.72 C 240.04 258.37 238.04 257.09 236.00 255.89 C 237.87 255.08 239.76 254.29 241.65 253.51 C 241.70 252.28 241.76 251.04 241.82 249.81 C 239.18 248.53 236.10 247.79 233.25 248.79 C 230.96 249.47 228.72 250.81 226.25 250.45 C 223.33 249.46 220.81 247.55 217.88 246.59 C 214.69 245.92 212.15 248.38 210.94 251.07 Z" />
<path fill="#fefefe" opacity="1.00" d=" M 192.12 189.27 C 196.82 186.61 201.47 183.86 206.26 181.35 C 206.69 188.56 205.94 195.85 207.25 202.99 C 207.58 207.72 207.46 212.46 207.58 217.20 C 210.39 219.21 213.36 220.97 216.47 222.49 C 216.46 224.67 216.49 226.85 216.48 229.03 C 200.59 220.65 184.82 212.04 169.15 203.25 C 173.37 200.80 177.53 198.26 181.86 196.03 C 185.56 194.21 188.50 191.22 192.12 189.27 Z" />
<path fill="#fefefe" opacity="1.00" d=" M 209.67 181.85 C 217.29 186.02 224.89 190.22 232.58 194.24 C 232.74 197.70 232.82 201.16 232.73 204.63 C 225.65 206.60 219.23 211.62 217.14 218.88 C 215.16 218.05 212.89 217.41 211.61 215.55 C 209.88 207.13 211.23 198.46 209.88 190.01 C 209.55 187.31 209.67 184.57 209.67 181.85 Z" />
<path fill="#fefefe" opacity="1.00" d=" M 160.45 196.30 C 167.69 192.31 174.89 188.26 182.11 184.23 C 183.03 185.88 183.94 187.54 184.85 189.21 C 178.90 193.05 172.59 196.28 166.47 199.85 C 164.47 201.58 162.29 199.52 160.41 198.68 C 160.42 198.09 160.44 196.90 160.45 196.30 Z" />
<path fill="#fefefe" opacity="1.00" d=" M 239.50 375.27 C 351.85 311.65 464.18 247.96 576.65 184.54 C 575.95 191.20 578.56 200.44 571.85 204.73 C 560.57 211.29 549.19 217.68 537.75 223.97 C 465.79 264.93 393.64 305.58 321.58 346.37 C 298.07 359.73 274.58 373.12 250.95 386.26 C 247.58 388.08 244.41 390.55 240.51 391.09 C 239.52 385.87 239.46 380.56 239.50 375.27 Z" />
<path fill="#fefefe" opacity="1.00" d=" M 282.51 200.10 C 281.14 195.51 283.74 190.78 288.06 188.99 C 291.47 193.26 287.41 199.40 282.51 200.10 Z" />
<path fill="#fefefe" opacity="1.00" d=" M 292.95 200.15 C 298.11 202.73 303.01 205.81 307.59 209.31 C 307.44 210.27 307.30 211.24 307.15 212.20 C 305.95 212.32 304.75 212.45 303.55 212.57 C 302.65 210.19 302.06 207.72 301.40 205.27 C 299.64 205.37 297.89 205.47 296.14 205.57 C 294.92 203.87 293.82 202.06 292.95 200.15 Z" />
<path fill="#fefefe" opacity="1.00" d=" M 230.45 208.85 C 234.63 207.95 239.39 207.73 243.23 209.96 C 247.34 212.03 249.99 216.12 251.39 220.39 C 251.45 222.40 252.17 225.01 250.42 226.51 C 246.42 230.53 240.57 232.13 235.01 231.69 C 229.33 232.22 222.93 230.56 219.70 225.50 C 219.14 218.38 223.64 211.19 230.45 208.85 Z" />
<path fill="#fefefe" opacity="1.00" d=" M 250.25 210.80 C 251.97 209.99 253.73 207.28 255.64 209.14 C 255.93 211.31 255.48 213.48 255.01 215.59 C 254.44 215.58 253.29 215.54 252.72 215.52 C 251.92 213.93 251.08 212.36 250.25 210.80 Z" />
<path fill="#fefefe" opacity="1.00" d=" M 311.60 214.75 C 314.40 215.16 316.05 217.43 317.08 219.88 C 315.21 219.22 313.37 218.48 311.52 217.77 C 311.54 217.02 311.58 215.51 311.60 214.75 Z" />
<path fill="#fefefe" opacity="1.00" d=" M 54.44 222.31 C 55.82 222.48 57.19 222.64 58.57 222.81 C 57.83 226.01 56.90 229.16 56.24 232.37 C 55.79 232.46 54.90 232.64 54.45 232.73 C 54.52 229.25 54.61 225.78 54.44 222.31 Z" />
<path fill="#fefefe" opacity="1.00" d=" M 351.07 235.99 C 353.78 231.41 357.08 226.86 361.93 224.39 C 363.51 224.64 363.60 226.18 363.90 227.45 C 355.61 232.44 351.14 242.28 350.37 251.66 C 349.33 251.68 348.30 251.70 347.27 251.72 C 346.82 246.20 348.24 240.72 351.07 235.99 Z" />
<path fill="#fefefe" opacity="1.00" d=" M 225.12 233.72 C 234.15 237.18 244.14 234.92 252.26 230.21 C 252.36 236.43 252.61 242.65 252.54 248.88 C 243.31 243.99 234.11 239.04 225.12 233.72 Z" />
<path fill="#fefefe" opacity="1.00" d=" M 46.15 255.55 C 48.39 254.33 50.73 253.24 53.32 253.09 C 53.04 258.17 54.32 263.10 54.69 268.13 C 52.13 268.64 49.74 269.71 47.43 270.89 C 46.38 265.85 46.27 260.68 46.15 255.55 Z" />
<path fill="#fefefe" opacity="1.00" d=" M 347.34 255.22 C 348.38 255.26 349.41 255.31 350.45 255.35 C 351.85 261.80 351.38 268.44 351.63 275.00 C 351.51 278.86 352.75 282.74 351.53 286.52 C 350.51 286.59 349.49 286.66 348.48 286.74 C 348.56 282.81 348.46 278.87 347.73 275.00 C 347.35 268.42 347.41 261.81 347.34 255.22 Z" />
<path fill="#fefefe" opacity="1.00" d=" M 39.51 257.40 C 40.05 257.34 41.13 257.22 41.68 257.16 C 42.18 259.75 42.58 262.36 42.90 264.98 C 41.83 264.77 40.77 264.56 39.71 264.36 C 39.62 262.04 39.55 259.72 39.51 257.40 Z" />
<path fill="#fefefe" opacity="1.00" d=" M 32.61 265.82 C 33.63 265.04 34.64 264.25 35.65 263.46 C 37.52 265.84 39.76 267.88 42.03 269.86 C 40.09 271.02 38.15 272.19 36.27 273.45 C 36.19 277.87 41.43 278.57 44.39 280.54 C 47.54 281.75 47.75 285.97 50.84 287.33 C 61.51 292.99 71.98 299.01 82.70 304.56 C 87.58 307.54 93.13 309.55 97.38 313.46 C 88.28 309.06 79.69 303.66 70.62 299.18 C 58.11 291.78 44.95 285.57 32.41 278.23 C 32.32 274.09 32.42 269.95 32.61 265.82 Z" />
<path fill="#fefefe" opacity="1.00" d=" M 239.03 284.05 C 247.57 275.27 258.37 267.30 271.01 266.59 C 282.94 265.43 293.97 276.62 293.75 288.33 C 289.60 286.75 285.48 282.38 280.76 284.33 C 277.96 285.11 276.07 287.71 274.58 290.05 C 274.26 292.75 274.39 295.48 274.33 298.20 C 273.89 298.47 273.03 299.01 272.60 299.28 C 268.60 297.45 264.68 294.55 260.04 295.50 C 252.12 297.17 246.14 303.52 242.18 310.26 C 237.80 310.19 232.56 310.28 229.63 314.07 C 229.23 316.02 229.23 318.01 229.21 319.99 C 229.35 331.46 229.31 342.93 229.41 354.39 C 228.06 355.47 226.73 356.57 225.45 357.73 C 225.41 359.82 225.33 361.90 225.21 363.99 C 220.04 360.19 218.01 353.74 216.60 347.77 C 216.12 341.87 216.18 335.91 216.53 330.01 C 219.20 312.90 227.35 296.78 239.03 284.05 Z" />
<path fill="#fefefe" opacity="1.00" d=" M 40.81 273.82 C 41.98 273.59 43.17 273.49 44.36 273.36 C 44.40 274.61 44.45 275.87 44.48 277.13 C 43.35 276.09 40.29 275.76 40.81 273.82 Z" />
<path fill="#fefefe" opacity="1.00" d=" M 66.42 278.04 C 68.94 277.17 71.40 276.16 73.86 275.13 C 72.50 276.71 71.59 278.86 69.73 279.92 C 68.58 279.38 67.52 278.68 66.42 278.04 Z" />
<path fill="#fefefe" opacity="1.00" d=" M 50.44 276.83 C 58.74 280.89 66.67 285.64 74.80 290.01 C 83.19 294.41 91.48 299.00 99.70 303.71 C 99.68 305.54 99.65 307.36 99.61 309.19 C 97.95 308.67 96.28 308.16 94.73 307.36 C 79.94 299.29 65.24 291.06 50.36 283.16 C 50.32 281.05 50.36 278.94 50.44 276.83 Z" />
<path fill="#fefefe" opacity="1.00" d=" M 35.34 283.80 C 44.40 288.25 53.01 293.56 61.98 298.18 C 73.38 304.65 85.24 310.32 96.26 317.44 C 96.45 321.40 96.75 325.35 96.76 329.32 C 92.44 327.31 88.06 325.42 84.11 322.74 C 70.28 315.23 56.57 307.49 42.66 300.12 C 42.47 298.01 42.48 295.76 41.11 294.00 C 39.51 292.21 37.34 291.10 35.43 289.69 C 35.37 287.72 35.33 285.76 35.34 283.80 Z" />
<path fill="#fefefe" opacity="1.00" d=" M 35.28 293.80 C 37.43 295.03 40.20 296.78 39.37 299.71 C 38.82 300.05 37.73 300.73 37.18 301.08 C 36.06 298.79 35.14 296.39 35.28 293.80 Z" />
<path fill="#fefefe" opacity="1.00" d=" M 100.30 296.71 C 101.50 295.20 103.33 293.34 105.39 294.65 C 122.69 304.19 140.14 313.54 157.46 323.06 C 157.73 324.95 158.01 327.50 155.24 326.63 C 136.99 316.57 118.65 306.62 100.30 296.71 Z" />
<path fill="#fefefe" opacity="1.00" d=" M 282.84 300.01 C 286.48 297.84 290.14 295.64 294.19 294.32 C 294.18 302.80 295.49 311.21 295.49 319.69 C 278.09 329.08 261.12 339.23 243.73 348.64 C 243.49 339.89 243.31 331.13 243.34 322.38 C 256.54 314.97 269.62 307.38 282.84 300.01 Z" />
<path fill="#fefefe" opacity="1.00" d=" M 258.84 299.03 C 260.84 298.18 263.05 298.70 265.11 299.04 C 260.98 301.45 256.58 303.68 253.55 307.52 C 251.02 310.74 247.99 313.69 243.95 314.93 C 246.26 307.81 251.88 301.80 258.84 299.03 Z" />
<path fill="#fefefe" opacity="1.00" d=" M 43.77 304.36 C 56.38 311.48 69.22 318.19 81.86 325.28 C 87.84 328.60 94.59 331.03 99.27 336.25 C 98.73 336.52 97.66 337.07 97.12 337.35 C 82.41 329.67 68.02 321.39 53.36 313.61 C 49.25 311.66 44.99 309.07 43.77 304.36 Z" />
<path fill="#fefefe" opacity="1.00" d=" M 106.82 305.25 C 108.21 305.44 109.68 305.46 110.92 306.21 C 122.32 312.10 133.34 318.69 144.73 324.59 C 144.57 328.42 144.52 332.26 144.51 336.10 C 143.16 337.20 141.82 338.33 140.49 339.47 C 140.53 342.23 140.62 344.99 140.59 347.76 C 135.77 346.26 133.44 341.78 130.01 338.54 C 127.80 338.24 125.57 338.60 123.36 338.39 C 119.30 336.15 115.21 333.94 111.14 331.71 C 107.19 329.83 107.75 324.68 107.43 321.01 C 107.58 315.71 104.49 310.39 106.82 305.25 Z" />
<path fill="#fefefe" opacity="1.00" d=" M 99.34 318.11 C 99.48 315.76 101.87 314.54 103.26 312.91 C 103.78 319.59 104.72 326.23 105.76 332.84 C 106.55 337.18 109.61 340.45 112.36 343.67 C 106.26 344.50 101.73 338.87 100.87 333.35 C 100.35 328.28 99.03 323.24 99.34 318.11 Z" />
<path fill="#fefefe" opacity="1.00" d=" M 231.63 319.02 C 234.36 319.72 237.16 320.70 239.16 322.79 C 240.10 325.39 239.42 328.31 239.79 331.04 C 240.56 336.59 240.51 342.20 240.60 347.79 C 240.82 349.13 239.23 349.51 238.39 350.11 C 236.49 351.16 234.53 352.07 232.57 353.00 C 231.08 341.74 231.99 330.35 231.63 319.02 Z" />
<path fill="#fefefe" opacity="1.00" d=" M 147.76 335.86 C 147.37 333.91 147.90 331.98 148.45 330.13 C 156.45 334.56 164.39 339.12 172.53 343.31 C 180.87 347.67 188.90 352.63 197.38 356.72 C 197.52 357.85 197.66 358.99 197.80 360.14 C 198.79 360.64 199.77 361.14 200.76 361.65 C 200.77 359.90 200.77 358.16 200.77 356.43 C 201.25 356.41 202.20 356.36 202.68 356.34 C 202.70 358.69 202.69 361.04 202.67 363.40 C 200.98 360.40 197.98 362.57 195.49 362.29 C 182.94 355.64 170.53 348.70 158.06 341.90 C 154.60 339.94 150.81 338.44 147.76 335.86 Z" />
<path fill="#fefefe" opacity="1.00" d=" M 109.85 335.10 C 113.92 336.43 117.49 338.89 121.26 340.88 C 123.40 341.82 124.44 343.98 125.74 345.78 C 120.15 342.84 113.09 340.99 109.85 335.10 Z" />
<path fill="#fefefe" opacity="1.00" d=" M 145.49 339.18 C 158.63 345.66 171.22 353.25 184.17 360.12 C 188.86 362.52 193.26 365.53 198.17 367.49 C 201.02 367.48 203.50 365.79 206.23 365.15 C 206.33 366.47 206.43 367.80 206.52 369.14 C 209.21 370.59 211.84 372.17 214.15 374.19 C 209.96 375.48 206.17 373.37 202.66 371.38 C 186.83 362.33 170.65 353.93 154.75 345.02 C 151.59 343.19 147.88 342.07 145.49 339.18 Z" />
<path fill="#fefefe" opacity="1.00" d=" M 184.42 343.00 C 186.90 341.82 189.34 340.58 191.77 339.32 C 190.56 341.04 189.35 342.77 188.20 344.54 C 186.95 344.00 185.69 343.48 184.42 343.00 Z" />
<path fill="#fefefe" opacity="1.00" d=" M 127.28 340.77 C 129.59 342.20 131.45 344.29 131.81 347.07 C 129.46 345.72 127.33 343.67 127.28 340.77 Z" />
<path fill="#fefefe" opacity="1.00" d=" M 144.36 343.56 C 148.13 345.00 151.51 347.23 155.08 349.09 C 171.62 358.17 188.32 366.99 204.66 376.45 C 204.65 378.15 204.65 379.87 204.69 381.59 C 201.83 380.92 199.87 382.88 198.33 384.98 C 186.84 379.14 175.75 372.52 164.31 366.58 C 158.31 362.85 151.64 360.22 145.88 356.11 C 144.18 352.16 144.36 347.77 144.36 343.56 Z" />
<path fill="#fefefe" opacity="1.00" d=" M 134.29 348.98 C 137.78 349.27 141.59 351.08 142.28 354.85 C 139.64 353.88 137.15 352.55 134.62 351.33 C 134.54 350.74 134.38 349.57 134.29 348.98 Z" />
<path fill="#fefefe" opacity="1.00" d=" M 206.10 359.05 C 210.63 360.40 214.44 363.29 218.71 365.21 C 216.87 366.59 214.96 367.87 212.99 369.04 C 211.37 365.19 206.75 363.28 206.10 359.05 Z" />
<path fill="#fefefe" opacity="1.00" d=" M 228.67 358.86 C 230.94 361.30 231.83 364.42 231.56 367.73 C 230.48 367.65 229.40 367.58 228.32 367.51 C 228.31 364.62 228.36 361.73 228.67 358.86 Z" />
<path fill="#fefefe" opacity="1.00" d=" M 146.28 360.89 C 154.02 364.10 161.08 368.70 168.45 372.63 C 178.72 377.88 188.59 383.88 198.85 389.15 C 201.01 389.85 200.60 392.38 200.98 394.14 C 187.78 386.93 174.53 379.84 161.37 372.56 C 155.89 369.39 148.94 367.21 146.28 360.89 Z" />
<path fill="#fefefe" opacity="1.00" d=" M 213.21 377.59 C 219.23 377.63 225.24 377.41 231.26 377.55 C 231.43 381.89 231.49 386.24 231.58 390.58 C 225.87 390.43 220.22 391.30 214.52 391.44 C 212.78 387.03 213.46 382.20 213.21 377.59 Z" />
<path fill="#fefefe" opacity="1.00" d=" M 234.50 377.14 C 234.97 377.26 235.91 377.51 236.37 377.63 C 235.80 382.03 238.09 387.21 235.15 391.03 C 234.38 386.44 234.62 381.77 234.50 377.14 Z" />
<path fill="#fefefe" opacity="1.00" d=" M 208.57 377.13 C 209.63 379.40 210.07 381.88 210.64 384.31 C 210.08 384.37 208.95 384.47 208.39 384.52 C 208.32 382.05 208.25 379.58 208.57 377.13 Z" />
<path fill="#fefefe" opacity="1.00" d=" M 203.09 386.03 C 205.88 387.31 210.52 387.48 210.85 391.31 C 209.17 392.76 207.57 394.30 205.93 395.80 C 204.39 392.74 203.15 389.50 203.09 386.03 Z" />
<path fill="#fefefe" opacity="1.00" d=" M 214.92 394.53 C 220.88 394.40 226.84 394.18 232.79 394.44 C 233.49 395.73 234.19 397.02 234.89 398.32 C 230.32 401.16 225.11 403.79 219.57 402.35 C 217.08 400.44 215.33 397.66 214.92 394.53 Z" />
</g>
<g id="#1c1c1cff">
<path fill="#1c1c1c" opacity="1.00" d=" M 206.81 30.67 C 207.80 30.54 208.79 30.41 209.78 30.29 C 209.53 34.26 208.01 37.96 206.99 41.77 C 205.47 46.78 204.78 52.13 202.37 56.82 C 201.88 57.20 200.88 57.95 200.38 58.33 C 201.08 48.85 205.82 40.14 206.81 30.67 Z" />
<path fill="#1c1c1c" opacity="1.00" d=" M 44.42 30.54 C 49.19 30.76 54.07 30.05 58.77 30.90 C 65.32 32.07 66.63 41.99 61.07 45.26 C 56.94 47.48 52.06 46.25 47.59 46.67 C 47.54 50.26 47.53 53.85 47.50 57.44 C 46.70 57.45 45.09 57.46 44.29 57.47 C 44.35 48.49 44.15 39.51 44.42 30.54 M 47.64 33.75 C 47.52 36.98 47.53 40.21 47.56 43.44 C 51.26 43.25 55.36 44.37 58.76 42.59 C 61.67 41.48 60.19 37.86 60.53 35.48 C 56.64 33.06 52.00 33.68 47.64 33.75 Z" />
<path fill="#1c1c1c" opacity="1.00" d=" M 216.14 32.78 C 219.35 30.62 218.39 35.23 218.63 37.08 C 219.81 37.69 220.98 38.31 222.15 38.95 C 220.96 40.13 219.60 41.15 218.61 42.51 C 218.45 45.85 218.43 49.22 218.68 52.56 C 219.93 54.27 221.56 55.65 222.93 57.26 C 220.82 57.49 218.69 57.55 216.57 57.59 C 214.53 52.74 215.78 47.41 215.43 42.34 C 214.91 41.16 214.00 40.22 213.27 39.18 C 214.52 37.19 215.38 35.00 216.14 32.78 Z" />
<path fill="#1c1c1c" opacity="1.00" d=" M 249.74 38.48 C 252.59 38.65 255.45 38.68 258.16 37.69 C 260.62 36.81 262.68 38.84 264.78 39.76 C 266.76 38.83 268.65 37.17 270.98 37.46 C 273.94 37.29 276.87 39.91 276.56 42.96 C 276.68 47.80 276.54 52.64 276.64 57.48 C 275.57 57.49 274.50 57.51 273.44 57.52 C 273.32 52.69 273.55 47.86 273.32 43.03 C 272.18 38.88 266.03 40.39 265.50 44.11 C 265.06 48.44 265.32 52.81 265.33 57.16 C 264.11 57.40 262.89 57.63 261.68 57.88 C 261.52 52.42 261.66 46.96 261.54 41.51 C 259.16 40.26 255.78 40.13 254.48 42.94 C 253.44 47.97 255.66 53.70 252.33 58.13 C 251.49 57.76 250.64 57.39 249.80 57.04 C 249.66 50.85 249.81 44.67 249.74 38.48 Z" />
<path fill="#1c1c1c" opacity="1.00" d=" M 70.52 38.46 C 73.94 38.96 77.24 38.05 80.51 37.20 C 80.56 38.42 80.56 39.65 80.49 40.87 C 79.04 41.82 77.14 41.32 75.50 41.57 C 73.64 46.16 73.44 51.15 74.20 55.99 C 73.76 58.10 71.37 58.10 70.53 56.26 C 70.48 50.32 70.60 44.39 70.52 38.46 Z" />
<path fill="#1c1c1c" opacity="1.00" d=" M 90.24 37.89 C 93.58 36.63 97.40 37.72 99.94 40.13 C 102.91 43.71 103.24 49.06 101.37 53.21 C 98.58 59.67 87.23 59.43 84.97 52.65 C 83.10 47.31 84.14 39.91 90.24 37.89 M 89.64 41.72 C 85.33 45.98 87.29 55.25 94.02 55.55 C 95.76 54.55 97.33 53.21 98.42 51.52 C 98.85 48.94 98.96 46.20 98.27 43.66 C 97.32 42.43 96.21 41.36 95.15 40.25 C 93.26 40.50 91.35 40.83 89.64 41.72 Z" />
<path fill="#1c1c1c" opacity="1.00" d=" M 108.90 41.04 C 110.80 38.37 114.40 36.43 117.62 37.95 C 119.75 38.85 122.07 38.50 124.31 38.42 C 124.10 45.23 124.81 52.09 124.07 58.88 C 123.39 65.31 114.82 67.49 110.04 64.03 C 107.77 63.22 108.48 60.62 108.43 58.78 C 110.89 60.03 112.88 62.78 115.90 62.53 C 117.63 62.50 119.01 61.21 120.50 60.48 C 120.56 59.05 120.61 57.63 120.68 56.20 C 117.96 57.18 115.03 58.01 112.14 57.20 C 109.94 55.36 107.09 53.20 107.37 49.99 C 107.40 47.00 106.67 43.47 108.90 41.04 M 113.26 41.27 C 109.85 43.64 109.94 48.48 111.17 51.94 C 113.12 55.54 117.64 54.76 120.47 52.74 C 120.60 49.66 120.93 46.55 120.42 43.49 C 118.94 41.20 115.72 39.20 113.26 41.27 Z" />
<path fill="#1c1c1c" opacity="1.00" d=" M 131.40 38.56 C 134.40 38.76 137.30 38.09 140.15 37.20 C 140.56 37.99 141.40 39.57 141.81 40.36 C 139.81 40.95 137.78 41.47 135.73 41.84 C 133.74 46.83 134.80 52.26 134.50 57.47 C 133.72 57.46 132.15 57.44 131.37 57.43 C 131.43 51.14 131.26 44.85 131.40 38.56 Z" />
<path fill="#1c1c1c" opacity="1.00" d=" M 146.71 39.68 C 150.02 37.72 153.99 36.67 157.75 37.88 C 159.48 38.56 161.51 39.79 161.45 41.91 C 161.64 47.25 161.65 52.61 161.57 57.95 C 160.47 57.36 159.37 56.77 158.28 56.17 C 154.19 57.93 148.89 58.82 145.32 55.50 C 145.54 52.95 144.54 49.70 146.95 47.91 C 150.36 46.30 154.18 45.78 157.89 45.28 C 157.55 43.69 157.92 41.64 156.29 40.68 C 154.73 40.43 153.13 40.40 151.57 40.64 C 149.71 41.92 148.23 43.99 145.74 43.85 C 146.06 42.46 146.38 41.07 146.71 39.68 M 147.99 51.89 C 149.10 53.25 149.85 55.75 152.06 55.47 C 155.78 56.13 157.40 52.00 159.05 49.51 C 155.40 47.57 150.57 48.69 147.99 51.89 Z" />
<path fill="#1c1c1c" opacity="1.00" d=" M 173.38 38.52 C 177.18 36.10 181.45 37.98 184.10 41.05 C 185.14 42.29 184.13 44.00 184.09 45.41 C 183.25 49.37 183.83 53.45 183.60 57.46 C 182.82 57.46 181.26 57.45 180.48 57.45 C 179.99 51.84 181.81 45.74 178.99 40.55 C 176.89 40.81 174.19 41.02 173.38 38.52 Z" />
<path fill="#1c1c1c" opacity="1.00" d=" M 227.23 43.98 C 226.77 35.63 242.52 34.61 243.07 43.01 C 243.58 47.85 243.14 52.76 243.49 57.63 C 238.65 54.72 233.20 59.77 228.48 56.74 C 225.72 55.37 226.43 52.19 226.29 49.67 C 229.91 46.47 234.82 45.40 239.54 45.40 C 239.52 44.46 239.48 42.58 239.47 41.64 C 237.36 40.92 235.18 40.45 232.96 40.33 C 231.26 41.88 229.75 43.92 227.23 43.98 M 229.04 51.85 C 230.26 54.01 232.25 56.05 234.97 55.45 C 237.85 54.32 240.06 51.57 239.77 48.37 C 235.97 48.59 231.73 48.75 229.04 51.85 Z" />
<path fill="#1c1c1c" opacity="1.00" d=" M 283.50 38.43 C 287.09 39.41 290.30 37.20 293.82 37.49 C 301.47 39.32 302.70 50.62 297.60 55.62 C 294.93 58.86 290.16 57.70 286.73 56.53 C 286.75 59.35 286.75 62.18 286.54 64.99 C 285.82 64.82 284.37 64.48 283.64 64.31 C 283.31 55.69 283.59 47.05 283.50 38.43 M 290.08 40.53 C 286.69 43.15 285.67 47.83 287.14 51.72 C 288.02 53.79 290.29 54.56 292.03 55.73 C 293.52 54.66 295.03 53.61 296.53 52.54 C 296.61 49.52 296.94 46.47 296.48 43.47 C 295.20 41.07 292.74 39.94 290.08 40.53 Z" />
<path fill="#1c1c1c" opacity="1.00" d=" M 311.39 37.98 C 317.94 35.04 324.78 41.86 323.61 48.50 C 318.63 49.05 313.47 47.83 308.68 49.58 C 309.68 52.61 312.09 54.52 314.95 55.71 C 317.51 54.03 319.99 52.19 322.73 50.81 C 323.52 54.88 319.84 57.79 316.04 57.66 C 313.63 57.55 310.67 58.15 308.85 56.17 C 303.25 51.45 304.37 40.82 311.39 37.98 M 308.86 45.40 C 312.68 45.64 316.53 45.68 320.36 45.46 C 319.03 43.20 317.41 39.82 314.23 40.47 C 311.38 40.39 309.93 43.20 308.86 45.40 Z" />
<path fill="#1c1c1c" opacity="1.00" d=" M 329.54 38.52 C 332.55 38.80 335.52 38.31 338.32 37.18 C 338.76 37.97 339.62 39.54 340.06 40.32 C 338.03 41.04 335.95 41.57 333.84 41.92 C 332.33 46.98 332.54 52.25 332.62 57.46 C 331.85 57.45 330.31 57.43 329.54 57.43 C 329.50 51.12 329.49 44.82 329.54 38.52 Z" />
<path fill="#1c1c1c" opacity="1.00" d=" M 168.68 51.99 C 168.84 47.13 168.19 42.17 169.69 37.46 C 170.39 38.04 171.80 39.22 172.50 39.81 C 173.19 45.82 171.64 51.84 171.62 57.86 C 167.95 58.11 168.73 54.43 168.68 51.99 Z" />
<path fill="#1c1c1c" opacity="1.00" d=" M 186.16 39.90 C 186.16 39.51 186.16 38.75 186.16 38.36 C 188.53 38.15 190.91 38.26 193.28 38.37 C 197.16 43.89 194.73 50.87 195.53 57.12 C 194.78 57.29 193.28 57.63 192.53 57.81 C 191.97 52.11 193.11 46.18 190.76 40.77 C 189.21 40.58 187.51 40.83 186.16 39.90 Z" />
<path fill="#1c1c1c" opacity="1.00" d=" M 365.72 44.98 C 368.87 43.35 372.67 40.23 376.22 42.61 C 386.10 48.10 396.06 53.45 405.92 58.98 C 409.37 60.95 409.43 66.04 413.37 67.44 C 421.68 71.72 429.78 76.39 438.07 80.71 C 439.88 77.99 441.91 74.93 445.28 74.05 C 449.83 72.60 454.76 73.69 458.82 76.02 C 479.70 87.49 500.65 98.83 521.52 110.32 C 525.04 112.39 528.62 114.79 530.71 118.40 C 533.32 122.37 533.10 127.53 531.69 131.90 C 545.08 139.23 558.48 146.56 571.88 153.88 C 575.25 155.29 575.30 159.67 578.33 161.38 C 579.86 162.76 582.75 163.40 582.57 165.93 C 582.79 173.99 582.54 182.07 581.65 190.09 C 581.85 197.04 580.25 204.99 574.27 209.30 C 566.14 215.17 557.11 219.60 548.50 224.69 C 517.41 241.77 486.79 259.68 455.87 277.06 C 435.41 288.61 414.98 300.22 394.54 311.81 C 374.36 323.33 353.81 334.20 333.85 346.10 C 299.97 365.21 266.16 384.42 232.29 403.54 C 226.41 406.89 218.81 407.76 212.74 404.41 C 192.67 393.42 172.65 382.32 152.48 371.51 C 149.34 369.78 146.06 367.76 144.54 364.35 C 143.21 362.17 143.05 358.92 140.37 357.88 C 134.05 354.57 127.87 351.01 121.58 347.64 C 116.77 344.21 110.59 348.63 105.52 345.71 C 84.56 334.27 63.51 322.95 42.62 311.34 C 37.44 307.26 32.54 301.76 31.84 294.91 C 29.72 284.81 28.53 274.42 29.80 264.13 C 31.28 261.82 34.03 260.88 35.98 259.06 C 36.67 257.38 37.03 255.59 37.79 253.95 C 42.06 250.89 46.66 248.26 51.43 246.05 C 51.77 236.66 51.13 227.26 51.58 217.87 C 56.12 214.52 61.59 212.55 65.94 208.98 C 74.85 196.04 85.89 183.12 101.31 178.06 C 106.87 175.79 113.03 176.01 118.88 176.73 C 128.84 180.44 137.62 186.62 147.09 191.36 C 151.56 189.65 155.52 186.85 159.70 184.57 C 182.23 171.74 204.79 158.96 227.46 146.36 C 227.51 145.98 227.62 145.22 227.67 144.84 C 203.14 137.48 178.77 129.58 154.25 122.17 C 154.34 120.81 154.45 119.46 154.56 118.10 C 158.63 118.72 162.46 120.25 166.37 121.45 C 189.05 128.33 211.61 135.62 234.30 142.49 C 234.50 139.02 234.45 135.54 234.71 132.07 C 236.92 133.86 238.83 136.06 241.30 137.52 C 243.08 137.94 244.54 136.57 246.03 135.83 C 252.75 131.75 259.57 127.85 266.54 124.22 C 291.06 109.99 315.91 96.34 340.48 82.18 C 340.47 77.11 340.30 72.05 339.67 67.01 C 339.46 64.02 339.08 60.07 342.21 58.40 C 349.92 53.71 357.94 49.56 365.72 44.98 M 364.79 51.02 C 364.48 51.94 364.18 52.85 363.87 53.77 C 366.98 53.38 370.23 53.92 373.19 52.65 C 375.13 51.84 377.11 52.81 378.93 53.48 C 378.71 52.62 378.50 51.75 378.30 50.89 C 373.92 48.93 369.15 49.13 364.79 51.02 M 381.47 49.16 C 382.73 51.78 382.36 54.55 381.16 57.11 C 384.77 55.73 388.60 55.44 392.42 55.25 C 388.75 53.25 385.07 51.28 381.47 49.16 M 350.27 58.36 C 353.66 58.60 357.55 58.32 360.20 60.90 C 361.63 63.70 359.27 66.28 358.05 68.62 C 360.27 69.38 362.78 70.33 365.09 69.32 C 367.26 68.65 369.35 67.13 371.72 67.60 C 373.58 68.16 375.36 69.00 377.06 69.96 C 377.91 71.82 377.28 74.04 377.51 76.03 C 381.12 74.29 384.70 72.41 387.80 69.84 C 384.60 68.82 380.54 68.74 378.45 65.71 C 376.77 63.72 377.84 60.94 377.78 58.61 C 375.25 59.36 372.71 60.52 370.02 60.36 C 367.84 59.89 365.68 59.28 363.64 58.36 C 361.39 57.23 360.78 54.60 359.94 52.45 C 356.51 54.05 352.86 55.47 350.27 58.36 M 380.19 62.46 C 385.64 62.18 391.10 62.74 396.54 62.23 C 392.55 57.08 384.31 57.89 380.19 62.46 M 399.53 58.77 C 399.43 60.16 399.35 61.55 399.29 62.94 C 400.63 62.66 401.98 62.37 403.33 62.07 C 402.06 60.96 400.80 59.86 399.53 58.77 M 349.37 62.49 C 349.55 67.64 348.65 73.02 350.10 78.01 C 350.68 74.29 350.34 70.52 350.47 66.77 C 352.95 65.57 355.64 64.63 357.60 62.61 C 354.87 62.24 352.11 62.26 349.37 62.49 M 379.70 78.76 C 378.85 79.41 377.14 79.78 377.37 81.16 C 377.28 89.12 377.61 97.08 377.69 105.03 C 378.77 112.04 378.59 119.15 378.74 126.23 C 381.59 125.34 384.22 123.91 386.81 122.47 C 395.04 117.77 403.30 113.12 411.50 108.37 C 413.08 107.52 414.87 106.14 414.24 104.08 C 413.17 96.87 413.80 89.56 413.17 82.32 C 411.44 76.05 408.54 70.18 406.39 64.04 C 397.16 68.30 388.70 74.04 379.70 78.76 M 343.67 63.68 C 342.85 78.73 344.40 93.76 344.77 108.80 C 345.41 109.38 346.68 110.54 347.32 111.12 C 347.59 103.41 347.41 95.66 346.74 87.97 C 346.53 82.98 346.75 77.94 345.76 73.01 C 345.10 69.83 346.95 65.78 343.67 63.68 M 353.67 70.00 C 354.68 79.97 354.08 90.04 355.32 99.99 C 355.51 105.07 355.60 110.16 355.52 115.25 C 358.35 117.40 361.47 119.12 364.62 120.73 C 364.76 109.12 363.41 97.59 363.49 85.98 C 363.37 82.20 363.77 78.25 362.22 74.68 C 359.89 72.35 356.71 71.11 353.67 70.00 M 366.34 72.20 C 366.30 77.81 366.54 83.41 366.57 89.01 C 368.16 98.69 367.26 108.56 367.62 118.34 C 368.10 118.36 369.06 118.41 369.54 118.43 C 368.94 114.90 368.37 111.36 368.52 107.77 C 368.69 97.05 368.12 86.33 368.27 75.61 C 370.08 74.86 371.92 74.20 373.79 73.58 C 373.73 73.01 373.61 71.86 373.55 71.29 C 371.10 71.13 368.62 71.24 366.34 72.20 M 414.10 74.04 C 415.09 77.98 416.80 81.82 416.47 85.97 C 416.87 91.01 415.78 96.36 417.79 101.14 C 424.03 105.19 430.72 108.58 437.37 111.90 C 437.79 103.24 436.03 94.69 436.38 86.02 C 428.76 82.40 421.46 78.16 414.10 74.04 M 445.48 77.58 C 441.51 79.53 440.15 84.15 439.40 88.17 C 439.76 88.53 440.48 89.27 440.84 89.64 C 445.41 90.24 442.67 83.61 445.80 81.74 C 447.99 80.71 450.35 80.10 452.57 79.12 C 452.52 78.46 452.40 77.12 452.34 76.45 C 450.01 76.43 447.52 76.22 445.48 77.58 M 370.58 79.18 C 371.26 86.78 371.55 94.40 371.75 102.03 C 372.82 109.58 372.04 117.23 372.72 124.81 C 373.39 125.26 374.72 126.17 375.39 126.62 C 375.66 119.60 375.58 112.53 374.62 105.56 C 374.47 96.93 374.30 88.31 373.46 79.71 C 372.74 79.58 371.30 79.31 370.58 79.18 M 455.48 78.93 C 455.41 79.70 455.28 81.24 455.22 82.01 C 475.35 92.98 495.38 104.13 515.59 114.96 C 516.31 113.95 517.04 112.93 517.77 111.92 C 500.15 102.34 482.51 92.80 464.97 83.07 C 461.90 81.48 458.98 79.41 455.48 78.93 M 446.90 84.90 C 451.12 88.71 456.66 90.47 461.28 93.67 C 463.12 96.18 464.10 99.56 467.25 100.84 C 479.72 107.62 492.15 114.50 504.64 121.25 C 507.46 123.24 510.97 121.69 514.08 122.53 C 517.11 123.74 519.79 126.06 523.25 125.85 C 521.63 123.22 519.49 120.90 516.76 119.40 C 496.29 108.14 475.69 97.11 455.26 85.77 C 452.69 84.34 449.53 82.44 446.90 84.90 M 333.51 93.21 C 336.13 93.96 338.53 95.22 340.72 96.86 C 340.65 94.46 340.57 92.06 340.46 89.66 C 338.08 90.72 335.77 91.92 333.51 93.21 M 440.39 92.76 C 440.12 104.42 441.07 116.05 441.43 127.69 C 442.79 127.58 444.15 127.47 445.52 127.37 C 443.92 115.91 444.57 104.30 444.16 92.77 C 442.90 92.77 441.64 92.76 440.39 92.76 M 447.43 92.66 C 447.34 99.12 447.60 105.59 447.64 112.05 C 447.72 114.11 447.39 116.41 448.78 118.14 C 450.93 119.96 453.50 121.25 456.25 121.93 C 456.19 115.60 456.72 109.28 456.37 102.96 C 456.24 100.88 456.63 98.54 455.25 96.78 C 452.86 95.02 450.14 93.80 447.43 92.66 M 324.26 103.61 C 324.46 105.48 325.23 107.22 325.78 109.01 C 330.54 107.57 334.69 104.76 338.86 102.14 C 337.92 100.51 337.00 98.86 336.12 97.21 C 332.19 99.38 328.14 101.35 324.26 103.61 M 282.64 121.80 C 282.56 122.17 282.42 122.93 282.34 123.31 C 285.48 124.80 288.42 126.69 291.53 128.25 C 292.63 129.04 293.73 128.09 294.69 127.57 C 303.23 122.36 312.05 117.64 320.73 112.67 C 320.33 108.63 320.26 104.57 320.64 100.52 C 307.92 107.51 295.43 114.94 282.64 121.80 M 464.37 104.31 C 462.92 105.52 462.26 107.41 461.28 108.99 C 462.86 109.77 464.32 110.83 466.02 111.37 C 468.79 110.93 471.85 109.58 474.46 111.32 C 483.86 116.33 493.13 121.58 502.51 126.63 C 502.63 128.59 502.85 130.55 503.32 132.47 C 504.37 132.56 505.43 132.66 506.49 132.76 C 506.49 130.61 506.50 128.46 506.53 126.31 C 495.00 119.37 482.95 113.33 471.24 106.69 C 469.06 105.69 466.93 103.80 464.37 104.31 M 329.85 112.22 C 318.13 116.97 307.73 124.34 296.46 130.02 C 297.14 131.82 297.84 133.61 298.55 135.39 C 294.21 139.40 289.44 142.90 285.16 146.96 C 290.47 150.08 296.28 152.43 301.24 156.12 C 302.18 164.22 300.99 172.46 302.67 180.50 C 318.03 162.12 332.28 142.81 347.45 124.27 C 349.33 124.41 351.35 124.21 353.07 125.15 C 362.55 129.67 370.80 136.61 377.32 144.79 C 380.07 147.62 376.82 150.83 375.18 153.26 C 357.29 175.67 339.68 198.30 321.89 220.78 C 320.64 222.15 319.20 224.07 317.09 223.39 C 314.22 222.64 311.61 221.17 309.03 219.76 C 304.16 224.73 300.36 230.58 295.99 235.96 C 293.97 238.35 291.30 240.84 287.90 240.43 C 285.98 240.14 286.21 237.51 287.07 236.34 C 289.35 232.95 292.13 229.92 294.55 226.63 C 297.27 222.67 301.10 219.46 303.00 214.97 C 301.77 214.67 300.55 214.39 299.33 214.11 C 293.93 220.20 289.49 227.07 283.97 233.04 C 282.45 234.97 279.93 234.77 277.73 234.70 C 274.87 233.11 277.90 230.72 278.95 228.95 C 284.35 222.35 289.23 215.31 294.87 208.91 C 293.34 207.01 291.80 205.13 290.21 203.29 C 287.26 205.08 284.36 206.98 281.29 208.57 C 279.10 209.94 276.32 209.11 274.08 210.34 C 270.45 212.20 266.79 214.12 263.47 216.50 C 260.98 219.06 258.59 221.81 255.30 223.40 C 255.18 230.90 255.51 238.41 255.66 245.91 C 255.79 249.91 259.21 252.71 262.49 254.40 C 270.02 258.51 277.59 262.58 285.04 266.83 C 293.62 272.15 297.25 282.36 298.41 291.92 C 298.79 299.58 297.96 307.25 298.64 314.90 C 301.51 314.05 304.18 312.69 306.71 311.10 C 305.01 310.12 303.31 309.16 301.62 308.18 C 301.60 307.31 301.59 306.43 301.57 305.56 C 307.28 301.99 313.18 298.72 319.03 295.38 C 321.13 294.05 323.68 294.64 326.02 294.62 C 326.51 296.22 327.04 297.80 327.59 299.39 C 333.62 296.16 339.38 292.46 345.42 289.27 C 345.55 283.81 344.42 278.44 344.55 272.99 C 344.69 264.33 342.88 255.72 343.86 247.06 C 345.74 237.09 350.89 227.10 359.80 221.73 C 366.21 217.86 372.83 214.35 379.26 210.52 C 416.95 189.53 454.28 167.87 492.04 147.01 C 491.52 146.05 491.07 144.96 489.96 144.57 C 476.04 137.21 462.40 129.31 448.38 122.13 C 448.20 124.90 448.79 127.96 446.96 130.33 C 444.55 130.84 442.09 130.72 439.66 130.69 C 437.09 126.12 437.69 120.84 437.51 115.81 C 430.95 112.63 424.61 109.01 418.30 105.37 C 417.05 107.36 416.05 109.75 413.85 110.89 C 402.50 117.25 391.25 123.82 379.84 130.09 C 375.00 132.24 370.06 127.79 369.10 123.15 C 367.71 123.62 366.33 124.13 364.96 124.64 C 360.21 121.60 352.99 120.10 352.01 113.60 C 349.52 114.82 346.03 115.50 343.97 113.14 C 341.73 111.44 341.68 108.44 341.24 105.93 C 337.37 107.89 333.79 110.37 329.85 112.22 M 459.64 112.02 C 459.59 114.69 459.03 117.49 459.86 120.10 C 461.34 120.91 462.92 121.54 464.49 122.20 C 464.57 119.61 464.57 117.02 464.53 114.43 C 462.91 113.60 461.28 112.80 459.64 112.02 M 473.33 114.20 C 472.91 116.47 472.66 118.77 472.60 121.08 C 480.26 125.64 488.10 129.94 496.02 134.02 C 496.73 132.01 497.56 130.05 498.38 128.09 C 490.07 123.40 481.59 118.99 473.33 114.20 M 519.65 114.15 C 519.59 114.80 519.46 116.11 519.40 116.76 C 522.13 119.23 526.22 121.66 525.61 125.93 C 526.48 130.21 519.32 132.99 522.80 136.96 C 527.36 133.80 531.24 128.05 529.12 122.37 C 527.32 118.62 524.10 114.48 519.65 114.15 M 467.66 128.16 C 469.20 129.94 471.49 130.78 473.49 131.95 C 473.95 130.40 475.04 128.77 474.39 127.12 C 472.87 125.18 471.00 123.52 469.74 121.39 C 469.36 119.17 469.50 116.88 469.06 114.67 C 467.04 118.86 467.83 123.66 467.66 128.16 M 272.60 130.64 C 266.73 136.15 260.21 140.93 254.39 146.48 C 253.81 148.88 256.21 150.56 257.21 152.49 C 252.86 152.77 247.99 152.17 244.26 154.90 C 239.84 158.21 235.91 162.12 231.56 165.52 C 227.71 169.04 223.06 171.86 220.22 176.36 C 221.26 176.38 222.30 176.33 223.34 176.22 C 229.92 171.18 236.26 165.83 242.76 160.67 C 244.39 158.96 246.89 159.69 248.99 159.48 C 249.91 160.68 250.85 161.87 251.79 163.07 C 248.71 167.83 243.93 171.05 239.95 174.98 C 237.39 177.54 233.35 179.22 232.83 183.20 C 236.58 182.91 238.94 179.84 241.61 177.60 C 246.76 173.04 252.01 168.59 257.42 164.34 C 260.56 161.89 262.72 158.36 266.17 156.28 C 270.57 153.46 274.25 149.70 278.33 146.46 C 283.48 142.03 288.82 137.83 293.78 133.19 C 289.18 130.63 284.60 128.03 279.95 125.57 C 277.02 126.41 274.93 128.81 272.60 130.64 M 346.95 129.99 C 333.74 146.76 320.42 163.44 307.36 180.34 C 303.02 185.97 298.24 191.27 294.17 197.11 C 300.01 199.84 305.52 203.29 310.43 207.48 C 313.97 210.56 316.89 214.28 320.55 217.23 C 337.98 195.10 355.32 172.91 372.86 150.87 C 373.92 149.56 375.37 147.60 374.02 145.98 C 367.97 138.52 360.24 132.37 351.66 128.05 C 349.73 126.49 348.14 128.65 346.95 129.99 M 477.80 128.05 C 477.57 129.96 477.39 131.87 477.22 133.79 C 483.26 137.39 489.43 140.79 495.69 144.01 C 496.24 142.05 496.40 140.02 496.47 138.00 C 490.07 135.01 484.25 130.93 477.80 128.05 M 509.51 136.93 C 512.14 135.03 516.32 134.39 517.78 131.32 C 515.48 129.70 512.95 128.44 510.49 127.11 C 509.43 130.28 509.51 133.63 509.51 136.93 M 247.60 141.74 C 247.57 142.29 247.51 143.38 247.48 143.93 C 248.60 144.25 249.73 144.56 250.86 144.87 C 256.60 140.09 262.30 135.27 267.91 130.33 C 261.18 134.21 254.32 137.84 247.60 141.74 M 499.65 133.99 C 499.56 136.66 499.55 139.33 499.68 141.99 C 502.44 141.04 504.97 139.54 507.44 138.00 C 504.91 136.53 502.32 135.18 499.65 133.99 M 511.52 139.49 C 480.79 157.12 449.79 174.29 419.06 191.93 C 401.39 201.90 383.64 211.74 366.10 221.93 C 366.22 222.72 366.45 224.28 366.57 225.07 C 368.20 224.61 369.81 224.08 371.29 223.23 C 420.74 195.06 470.42 167.30 519.82 139.04 C 519.68 138.33 519.39 136.89 519.25 136.17 C 516.37 136.44 513.95 138.07 511.52 139.49 M 512.56 146.80 C 512.49 147.28 512.35 148.24 512.28 148.71 C 524.89 155.48 537.49 162.29 550.02 169.22 C 551.53 169.98 553.10 171.10 554.90 170.59 C 558.68 168.93 562.17 166.69 565.58 164.39 C 565.59 162.14 565.64 159.90 565.71 157.66 C 553.43 150.36 540.79 143.59 528.04 137.16 C 523.41 141.17 518.09 144.23 512.56 146.80 M 268.50 160.48 C 264.68 162.94 261.90 166.60 258.45 169.48 C 255.25 171.59 256.36 176.75 252.68 178.37 C 250.60 179.91 247.79 179.25 245.62 180.55 C 241.75 183.17 238.67 186.75 234.97 189.57 C 230.89 190.91 227.20 187.60 226.06 183.89 C 229.10 179.98 233.48 177.30 236.08 173.02 C 230.51 175.29 226.83 180.33 221.87 183.47 C 217.89 183.73 214.95 179.88 213.46 176.47 C 213.03 176.56 212.16 176.74 211.73 176.83 C 211.62 177.62 211.51 178.41 211.40 179.20 C 219.77 182.95 227.26 188.42 235.81 191.83 C 255.75 180.24 275.86 168.94 296.02 157.76 C 292.27 153.65 286.93 151.62 282.05 149.22 C 277.72 153.18 273.40 157.23 268.50 160.48 M 502.50 152.69 C 459.35 177.18 416.11 201.56 372.94 226.01 C 368.00 228.80 362.62 231.38 359.25 236.13 C 354.49 242.25 352.83 250.44 354.15 258.01 C 354.79 266.57 354.22 275.20 355.74 283.70 C 415.99 249.04 476.69 215.15 537.15 180.85 C 540.21 179.18 543.29 177.51 545.97 175.26 C 532.62 167.87 519.14 160.73 505.85 153.25 C 504.84 152.70 503.62 152.13 502.50 152.69 M 224.33 154.86 C 209.28 163.84 193.58 171.76 178.76 181.11 C 180.65 181.29 182.55 181.41 184.45 181.57 C 185.52 183.46 186.64 185.33 187.77 187.20 C 193.19 185.58 197.72 182.04 202.69 179.48 C 209.06 175.50 215.57 171.78 222.11 168.10 C 228.53 164.67 233.72 159.48 239.09 154.67 C 236.24 154.42 233.39 154.56 230.58 155.01 C 228.50 155.23 226.28 153.58 224.33 154.86 M 238.35 193.81 C 238.23 197.35 238.31 200.89 238.32 204.44 C 241.57 205.63 244.71 207.09 247.83 208.59 C 250.54 205.97 255.26 203.41 258.35 206.99 C 259.32 210.88 258.44 214.85 257.21 218.57 C 261.03 212.88 267.54 210.39 273.17 206.96 C 276.12 204.80 279.96 205.85 283.17 204.30 C 280.86 201.88 277.49 199.04 278.82 195.28 C 280.39 191.05 283.64 185.38 288.96 186.47 C 292.09 187.02 291.96 190.78 292.76 193.16 C 294.79 190.86 296.85 188.57 298.51 185.99 C 298.41 177.60 299.01 169.08 297.48 160.78 C 277.59 171.47 258.23 183.12 238.35 193.81 M 576.53 164.86 C 576.53 168.55 576.56 172.24 576.49 175.92 C 576.52 178.42 574.86 180.77 572.71 181.95 C 565.56 186.18 558.35 190.31 550.99 194.18 C 539.06 201.43 526.59 207.74 514.61 214.91 C 423.49 266.49 332.37 318.03 241.23 369.57 C 238.88 370.69 236.78 372.84 234.02 372.69 C 230.65 372.89 227.90 370.63 225.00 369.30 C 222.50 370.73 219.99 372.19 217.88 374.17 C 225.10 374.43 233.12 375.40 239.49 371.24 C 350.83 308.25 462.21 245.30 573.50 182.24 C 575.54 181.01 578.40 180.48 579.37 178.03 C 579.70 173.95 579.69 169.86 579.59 165.77 C 578.82 165.55 577.29 165.09 576.53 164.86 M 324.17 311.87 C 294.29 328.92 264.06 345.37 234.41 362.79 C 234.58 364.85 234.80 366.91 235.24 368.94 C 347.75 305.37 460.21 241.68 572.71 178.09 C 572.66 175.96 572.26 173.88 571.46 171.92 C 489.03 218.57 406.54 265.13 324.17 311.87 M 84.15 192.21 C 69.48 205.64 59.71 224.31 56.72 243.95 C 56.13 252.66 56.09 261.86 60.02 269.87 C 61.36 272.07 63.34 274.18 65.93 274.79 C 69.22 273.80 73.09 270.70 76.36 273.46 C 80.24 275.71 80.58 280.62 82.96 284.03 C 87.73 287.21 93.04 289.49 97.93 292.48 C 100.55 291.84 103.23 291.01 105.95 291.46 C 111.72 293.92 116.95 297.42 122.48 300.34 C 129.73 303.99 136.66 308.23 143.88 311.95 C 150.33 315.70 157.11 318.86 163.38 322.94 C 163.94 324.94 164.19 327.05 164.98 328.98 C 170.55 332.06 176.15 335.10 181.70 338.21 C 185.49 340.51 188.82 335.26 192.63 336.87 C 195.85 338.27 197.51 341.52 198.69 344.63 C 199.82 347.85 202.98 349.56 204.80 352.31 C 207.79 356.88 213.33 358.44 217.84 361.03 C 212.21 350.42 211.51 337.81 213.91 326.20 C 217.28 309.93 225.03 294.50 236.31 282.28 C 245.39 272.41 257.48 264.00 271.25 263.13 C 267.08 260.45 262.60 258.32 258.31 255.85 C 215.17 232.26 172.03 208.68 128.88 185.10 C 124.18 182.72 119.55 179.35 114.04 179.51 C 102.70 178.65 92.47 185.20 84.15 192.21 M 192.12 189.27 C 188.50 191.22 185.56 194.21 181.86 196.03 C 177.53 198.26 173.37 200.80 169.15 203.25 C 184.82 212.04 200.59 220.65 216.48 229.03 C 216.49 226.85 216.46 224.67 216.47 222.49 C 213.36 220.97 210.39 219.21 207.58 217.20 C 207.46 212.46 207.58 207.72 207.25 202.99 C 205.94 195.85 206.69 188.56 206.26 181.35 C 201.47 183.86 196.82 186.61 192.12 189.27 M 209.67 181.85 C 209.67 184.57 209.55 187.31 209.88 190.01 C 211.23 198.46 209.88 207.13 211.61 215.55 C 212.89 217.41 215.16 218.05 217.14 218.88 C 219.23 211.62 225.65 206.60 232.73 204.63 C 232.82 201.16 232.74 197.70 232.58 194.24 C 224.89 190.22 217.29 186.02 209.67 181.85 M 160.45 196.30 C 160.44 196.90 160.42 198.09 160.41 198.68 C 162.29 199.52 164.47 201.58 166.47 199.85 C 172.59 196.28 178.90 193.05 184.85 189.21 C 183.94 187.54 183.03 185.88 182.11 184.23 C 174.89 188.26 167.69 192.31 160.45 196.30 M 239.50 375.27 C 239.46 380.56 239.52 385.87 240.51 391.09 C 244.41 390.55 247.58 388.08 250.95 386.26 C 274.58 373.12 298.07 359.73 321.58 346.37 C 393.64 305.58 465.79 264.93 537.75 223.97 C 549.19 217.68 560.57 211.29 571.85 204.73 C 578.56 200.44 575.95 191.20 576.65 184.54 C 464.18 247.96 351.85 311.65 239.50 375.27 M 282.51 200.10 C 287.41 199.40 291.47 193.26 288.06 188.99 C 283.74 190.78 281.14 195.51 282.51 200.10 M 292.95 200.15 C 293.82 202.06 294.92 203.87 296.14 205.57 C 297.89 205.47 299.64 205.37 301.40 205.27 C 302.06 207.72 302.65 210.19 303.55 212.57 C 304.75 212.45 305.95 212.32 307.15 212.20 C 307.30 211.24 307.44 210.27 307.59 209.31 C 303.01 205.81 298.11 202.73 292.95 200.15 M 230.45 208.85 C 223.64 211.19 219.14 218.38 219.70 225.50 C 222.93 230.56 229.33 232.22 235.01 231.69 C 240.57 232.13 246.42 230.53 250.42 226.51 C 252.17 225.01 251.45 222.40 251.39 220.39 C 249.99 216.12 247.34 212.03 243.23 209.96 C 239.39 207.73 234.63 207.95 230.45 208.85 M 250.25 210.80 C 251.08 212.36 251.92 213.93 252.72 215.52 C 253.29 215.54 254.44 215.58 255.01 215.59 C 255.48 213.48 255.93 211.31 255.64 209.14 C 253.73 207.28 251.97 209.99 250.25 210.80 M 311.60 214.75 C 311.58 215.51 311.54 217.02 311.52 217.77 C 313.37 218.48 315.21 219.22 317.08 219.88 C 316.05 217.43 314.40 215.16 311.60 214.75 M 54.44 222.31 C 54.61 225.78 54.52 229.25 54.45 232.73 C 54.90 232.64 55.79 232.46 56.24 232.37 C 56.90 229.16 57.83 226.01 58.57 222.81 C 57.19 222.64 55.82 222.48 54.44 222.31 M 351.07 235.99 C 348.24 240.72 346.82 246.20 347.27 251.72 C 348.30 251.70 349.33 251.68 350.37 251.66 C 351.14 242.28 355.61 232.44 363.90 227.45 C 363.60 226.18 363.51 224.64 361.93 224.39 C 357.08 226.86 353.78 231.41 351.07 235.99 M 225.12 233.72 C 234.11 239.04 243.31 243.99 252.54 248.88 C 252.61 242.65 252.36 236.43 252.26 230.21 C 244.14 234.92 234.15 237.18 225.12 233.72 M 46.15 255.55 C 46.27 260.68 46.38 265.85 47.43 270.89 C 49.74 269.71 52.13 268.64 54.69 268.13 C 54.32 263.10 53.04 258.17 53.32 253.09 C 50.73 253.24 48.39 254.33 46.15 255.55 M 347.34 255.22 C 347.41 261.81 347.35 268.42 347.73 275.00 C 348.46 278.87 348.56 282.81 348.48 286.74 C 349.49 286.66 350.51 286.59 351.53 286.52 C 352.75 282.74 351.51 278.86 351.63 275.00 C 351.38 268.44 351.85 261.80 350.45 255.35 C 349.41 255.31 348.38 255.26 347.34 255.22 M 39.51 257.40 C 39.55 259.72 39.62 262.04 39.71 264.36 C 40.77 264.56 41.83 264.77 42.90 264.98 C 42.58 262.36 42.18 259.75 41.68 257.16 C 41.13 257.22 40.05 257.34 39.51 257.40 M 32.61 265.82 C 32.42 269.95 32.32 274.09 32.41 278.23 C 44.95 285.57 58.11 291.78 70.62 299.18 C 79.69 303.66 88.28 309.06 97.38 313.46 C 93.13 309.55 87.58 307.54 82.70 304.56 C 71.98 299.01 61.51 292.99 50.84 287.33 C 47.75 285.97 47.54 281.75 44.39 280.54 C 41.43 278.57 36.19 277.87 36.27 273.45 C 38.15 272.19 40.09 271.02 42.03 269.86 C 39.76 267.88 37.52 265.84 35.65 263.46 C 34.64 264.25 33.63 265.04 32.61 265.82 M 239.03 284.05 C 227.35 296.78 219.20 312.90 216.53 330.01 C 216.18 335.91 216.12 341.87 216.60 347.77 C 218.01 353.74 220.04 360.19 225.21 363.99 C 225.33 361.90 225.41 359.82 225.45 357.73 C 226.73 356.57 228.06 355.47 229.41 354.39 C 229.31 342.93 229.35 331.46 229.21 319.99 C 229.23 318.01 229.23 316.02 229.63 314.07 C 232.56 310.28 237.80 310.19 242.18 310.26 C 246.14 303.52 252.12 297.17 260.04 295.50 C 264.68 294.55 268.60 297.45 272.60 299.28 C 273.03 299.01 273.89 298.47 274.33 298.20 C 274.39 295.48 274.26 292.75 274.58 290.05 C 276.07 287.71 277.96 285.11 280.76 284.33 C 285.48 282.38 289.60 286.75 293.75 288.33 C 293.97 276.62 282.94 265.43 271.01 266.59 C 258.37 267.30 247.57 275.27 239.03 284.05 M 40.81 273.82 C 40.29 275.76 43.35 276.09 44.48 277.13 C 44.45 275.87 44.40 274.61 44.36 273.36 C 43.17 273.49 41.98 273.59 40.81 273.82 M 66.42 278.04 C 67.52 278.68 68.58 279.38 69.73 279.92 C 71.59 278.86 72.50 276.71 73.86 275.13 C 71.40 276.16 68.94 277.17 66.42 278.04 M 50.44 276.83 C 50.36 278.94 50.32 281.05 50.36 283.16 C 65.24 291.06 79.94 299.29 94.73 307.36 C 96.28 308.16 97.95 308.67 99.61 309.19 C 99.65 307.36 99.68 305.54 99.70 303.71 C 91.48 299.00 83.19 294.41 74.80 290.01 C 66.67 285.64 58.74 280.89 50.44 276.83 M 35.34 283.80 C 35.33 285.76 35.37 287.72 35.43 289.69 C 37.34 291.10 39.51 292.21 41.11 294.00 C 42.48 295.76 42.47 298.01 42.66 300.12 C 56.57 307.49 70.28 315.23 84.11 322.74 C 88.06 325.42 92.44 327.31 96.76 329.32 C 96.75 325.35 96.45 321.40 96.26 317.44 C 85.24 310.32 73.38 304.65 61.98 298.18 C 53.01 293.56 44.40 288.25 35.34 283.80 M 35.28 293.80 C 35.14 296.39 36.06 298.79 37.18 301.08 C 37.73 300.73 38.82 300.05 39.37 299.71 C 40.20 296.78 37.43 295.03 35.28 293.80 M 100.30 296.71 C 118.65 306.62 136.99 316.57 155.24 326.63 C 158.01 327.50 157.73 324.95 157.46 323.06 C 140.14 313.54 122.69 304.19 105.39 294.65 C 103.33 293.34 101.50 295.20 100.30 296.71 M 282.84 300.01 C 269.62 307.38 256.54 314.97 243.34 322.38 C 243.31 331.13 243.49 339.89 243.73 348.64 C 261.12 339.23 278.09 329.08 295.49 319.69 C 295.49 311.21 294.18 302.80 294.19 294.32 C 290.14 295.64 286.48 297.84 282.84 300.01 M 258.84 299.03 C 251.88 301.80 246.26 307.81 243.95 314.93 C 247.99 313.69 251.02 310.74 253.55 307.52 C 256.58 303.68 260.98 301.45 265.11 299.04 C 263.05 298.70 260.84 298.18 258.84 299.03 M 43.77 304.36 C 44.99 309.07 49.25 311.66 53.36 313.61 C 68.02 321.39 82.41 329.67 97.12 337.35 C 97.66 337.07 98.73 336.52 99.27 336.25 C 94.59 331.03 87.84 328.60 81.86 325.28 C 69.22 318.19 56.38 311.48 43.77 304.36 M 106.82 305.25 C 104.49 310.39 107.58 315.71 107.43 321.01 C 107.75 324.68 107.19 329.83 111.14 331.71 C 115.21 333.94 119.30 336.15 123.36 338.39 C 125.57 338.60 127.80 338.24 130.01 338.54 C 133.44 341.78 135.77 346.26 140.59 347.76 C 140.62 344.99 140.53 342.23 140.49 339.47 C 141.82 338.33 143.16 337.20 144.51 336.10 C 144.52 332.26 144.57 328.42 144.73 324.59 C 133.34 318.69 122.32 312.10 110.92 306.21 C 109.68 305.46 108.21 305.44 106.82 305.25 M 99.34 318.11 C 99.03 323.24 100.35 328.28 100.87 333.35 C 101.73 338.87 106.26 344.50 112.36 343.67 C 109.61 340.45 106.55 337.18 105.76 332.84 C 104.72 326.23 103.78 319.59 103.26 312.91 C 101.87 314.54 99.48 315.76 99.34 318.11 M 231.63 319.02 C 231.99 330.35 231.08 341.74 232.57 353.00 C 234.53 352.07 236.49 351.16 238.39 350.11 C 239.23 349.51 240.82 349.13 240.60 347.79 C 240.51 342.20 240.56 336.59 239.79 331.04 C 239.42 328.31 240.10 325.39 239.16 322.79 C 237.16 320.70 234.36 319.72 231.63 319.02 M 147.76 335.86 C 150.81 338.44 154.60 339.94 158.06 341.90 C 170.53 348.70 182.94 355.64 195.49 362.29 C 197.98 362.57 200.98 360.40 202.67 363.40 C 202.69 361.04 202.70 358.69 202.68 356.34 C 202.20 356.36 201.25 356.41 200.77 356.43 C 200.77 358.16 200.77 359.90 200.76 361.65 C 199.77 361.14 198.79 360.64 197.80 360.14 C 197.66 358.99 197.52 357.85 197.38 356.72 C 188.90 352.63 180.87 347.67 172.53 343.31 C 164.39 339.12 156.45 334.56 148.45 330.13 C 147.90 331.98 147.37 333.91 147.76 335.86 M 109.85 335.10 C 113.09 340.99 120.15 342.84 125.74 345.78 C 124.44 343.98 123.40 341.82 121.26 340.88 C 117.49 338.89 113.92 336.43 109.85 335.10 M 145.49 339.18 C 147.88 342.07 151.59 343.19 154.75 345.02 C 170.65 353.93 186.83 362.33 202.66 371.38 C 206.17 373.37 209.96 375.48 214.15 374.19 C 211.84 372.17 209.21 370.59 206.52 369.14 C 206.43 367.80 206.33 366.47 206.23 365.15 C 203.50 365.79 201.02 367.48 198.17 367.49 C 193.26 365.53 188.86 362.52 184.17 360.12 C 171.22 353.25 158.63 345.66 145.49 339.18 M 184.42 343.00 C 185.69 343.48 186.95 344.00 188.20 344.54 C 189.35 342.77 190.56 341.04 191.77 339.32 C 189.34 340.58 186.90 341.82 184.42 343.00 M 127.28 340.77 C 127.33 343.67 129.46 345.72 131.81 347.07 C 131.45 344.29 129.59 342.20 127.28 340.77 M 144.36 343.56 C 144.36 347.77 144.18 352.16 145.88 356.11 C 151.64 360.22 158.31 362.85 164.31 366.58 C 175.75 372.52 186.84 379.14 198.33 384.98 C 199.87 382.88 201.83 380.92 204.69 381.59 C 204.65 379.87 204.65 378.15 204.66 376.45 C 188.32 366.99 171.62 358.17 155.08 349.09 C 151.51 347.23 148.13 345.00 144.36 343.56 M 134.29 348.98 C 134.38 349.57 134.54 350.74 134.62 351.33 C 137.15 352.55 139.64 353.88 142.28 354.85 C 141.59 351.08 137.78 349.27 134.29 348.98 M 206.10 359.05 C 206.75 363.28 211.37 365.19 212.99 369.04 C 214.96 367.87 216.87 366.59 218.71 365.21 C 214.44 363.29 210.63 360.40 206.10 359.05 M 228.67 358.86 C 228.36 361.73 228.31 364.62 228.32 367.51 C 229.40 367.58 230.48 367.65 231.56 367.73 C 231.83 364.42 230.94 361.30 228.67 358.86 M 146.28 360.89 C 148.94 367.21 155.89 369.39 161.37 372.56 C 174.53 379.84 187.78 386.93 200.98 394.14 C 200.60 392.38 201.01 389.85 198.85 389.15 C 188.59 383.88 178.72 377.88 168.45 372.63 C 161.08 368.70 154.02 364.10 146.28 360.89 M 213.21 377.59 C 213.46 382.20 212.78 387.03 214.52 391.44 C 220.22 391.30 225.87 390.43 231.58 390.58 C 231.49 386.24 231.43 381.89 231.26 377.55 C 225.24 377.41 219.23 377.63 213.21 377.59 M 234.50 377.14 C 234.62 381.77 234.38 386.44 235.15 391.03 C 238.09 387.21 235.80 382.03 236.37 377.63 C 235.91 377.51 234.97 377.26 234.50 377.14 M 208.57 377.13 C 208.25 379.58 208.32 382.05 208.39 384.52 C 208.95 384.47 210.08 384.37 210.64 384.31 C 210.07 381.88 209.63 379.40 208.57 377.13 M 203.09 386.03 C 203.15 389.50 204.39 392.74 205.93 395.80 C 207.57 394.30 209.17 392.76 210.85 391.31 C 210.52 387.48 205.88 387.31 203.09 386.03 M 214.92 394.53 C 215.33 397.66 217.08 400.44 219.57 402.35 C 225.11 403.79 230.32 401.16 234.89 398.32 C 234.19 397.02 233.49 395.73 232.79 394.44 C 226.84 394.18 220.88 394.40 214.92 394.53 Z" />
<path fill="#1c1c1c" opacity="1.00" d=" M 99.67 72.66 C 101.06 72.62 102.44 72.60 103.83 72.59 C 103.42 74.07 102.88 75.51 102.27 76.91 C 101.41 76.64 100.56 76.38 99.71 76.12 C 99.70 74.96 99.68 73.81 99.67 72.66 Z" />
<path fill="#1c1c1c" opacity="1.00" d=" M 44.96 82.93 C 41.51 79.04 45.78 73.42 50.03 72.51 C 53.60 72.24 57.79 71.64 60.62 74.37 C 62.96 75.57 62.70 78.34 62.88 80.56 C 60.14 79.80 58.67 77.27 56.49 75.69 C 54.52 75.40 52.49 75.36 50.52 75.63 C 48.83 76.72 46.54 78.23 47.47 80.57 C 51.51 85.10 59.34 82.76 62.96 87.97 C 65.37 90.84 64.37 95.30 61.62 97.57 C 58.25 100.74 53.17 99.58 49.00 99.37 C 45.62 97.98 40.88 93.37 44.84 90.00 C 46.64 92.14 47.72 95.31 50.63 96.22 C 53.89 97.30 57.23 96.10 60.35 95.16 C 60.27 93.45 60.97 91.48 60.05 89.94 C 55.58 86.44 48.49 87.80 44.96 82.93 Z" />
<path fill="#1c1c1c" opacity="1.00" d=" M 143.68 85.00 C 143.80 80.69 143.14 76.25 144.60 72.10 C 145.33 72.51 146.77 73.34 147.50 73.75 C 147.41 76.17 147.40 78.60 147.43 81.02 C 149.83 80.21 152.25 79.02 154.87 79.50 C 156.59 80.29 158.02 81.56 159.51 82.70 C 159.58 88.27 159.59 93.84 159.56 99.41 C 158.77 99.41 157.18 99.42 156.38 99.43 C 156.19 94.60 156.79 89.70 156.09 84.91 C 154.26 81.19 149.32 82.24 147.55 85.39 C 147.12 89.89 147.61 94.41 147.35 98.91 C 146.25 99.23 145.14 99.50 144.01 99.71 C 143.39 94.83 143.77 89.90 143.68 85.00 Z" />
<path fill="#1c1c1c" opacity="1.00" d=" M 111.59 74.40 C 112.28 74.35 113.67 74.24 114.36 74.19 C 114.39 75.84 114.41 77.48 114.42 79.13 C 115.64 79.79 116.85 80.46 118.05 81.16 C 116.83 82.02 115.59 82.84 114.34 83.64 C 114.51 87.27 114.16 90.93 114.51 94.56 C 115.39 96.36 117.02 97.66 118.16 99.30 C 116.26 99.43 114.36 99.53 112.46 99.59 C 109.85 95.13 110.85 89.95 110.62 85.05 C 110.70 83.61 109.63 82.53 109.02 81.34 C 110.15 79.14 110.91 76.77 111.59 74.40 Z" />
<path fill="#1c1c1c" opacity="1.00" d=" M 80.32 80.33 C 81.40 80.32 82.48 80.32 83.56 80.32 C 85.20 84.62 85.27 89.54 87.98 93.39 C 89.37 89.12 90.11 84.63 92.02 80.54 C 92.73 80.47 94.15 80.31 94.85 80.24 C 93.48 86.76 90.91 92.95 89.16 99.37 C 88.31 99.40 86.61 99.45 85.76 99.48 C 84.24 94.89 83.36 90.07 81.17 85.72 C 80.10 90.37 79.70 95.41 77.18 99.57 C 76.62 99.54 75.49 99.48 74.92 99.45 C 71.52 93.64 70.87 86.64 68.41 80.41 C 69.13 80.39 70.55 80.35 71.27 80.33 C 73.78 84.67 74.32 89.80 76.09 94.45 C 77.50 89.74 78.58 84.93 80.32 80.33 Z" />
<path fill="#1c1c1c" opacity="1.00" d=" M 125.39 81.33 C 129.58 77.18 139.72 79.79 137.44 86.68 C 135.68 85.41 134.08 83.94 132.33 82.67 C 129.67 81.65 126.61 83.30 125.73 85.97 C 125.46 88.57 125.34 91.24 125.76 93.84 C 127.21 95.32 128.67 97.62 131.02 97.43 C 133.71 96.50 135.11 93.76 137.08 91.89 C 139.52 93.39 138.50 96.18 136.61 97.59 C 134.32 100.52 130.18 99.59 126.96 99.41 C 124.68 98.10 122.20 95.91 122.32 93.02 C 122.26 88.97 121.43 83.91 125.39 81.33 Z" />
<path fill="#1c1c1c" opacity="1.00" d=" M 100.44 80.71 C 101.00 80.52 102.13 80.15 102.69 79.97 C 102.83 86.61 102.99 93.28 102.57 99.92 C 102.08 99.68 101.09 99.21 100.59 98.97 C 98.93 92.94 100.22 86.81 100.44 80.71 Z" />
<path fill="#1c1c1c" opacity="1.00" d=" M 109.91 184.56 C 113.84 182.60 118.63 182.79 122.53 184.73 C 122.49 185.59 122.42 187.30 122.38 188.15 C 114.41 190.36 106.89 194.20 100.80 199.85 C 99.07 201.98 96.25 201.47 93.82 201.66 C 92.89 200.39 91.97 199.11 91.06 197.84 C 95.85 191.66 102.90 187.73 109.91 184.56 Z" />
<path fill="#1c1c1c" opacity="1.00" d=" M 210.94 251.07 C 212.15 248.38 214.69 245.92 217.88 246.59 C 220.81 247.55 223.33 249.46 226.25 250.45 C 228.72 250.81 230.96 249.47 233.25 248.79 C 236.10 247.79 239.18 248.53 241.82 249.81 C 241.76 251.04 241.70 252.28 241.65 253.51 C 239.76 254.29 237.87 255.08 236.00 255.89 C 238.04 257.09 240.04 258.37 241.99 259.72 C 241.55 261.33 241.62 263.46 239.56 263.86 C 235.01 266.35 230.91 262.08 226.88 260.49 C 222.59 261.98 220.36 267.75 215.27 266.78 C 212.57 267.28 210.65 264.56 211.56 262.08 C 213.64 259.89 216.07 258.05 218.14 255.85 C 215.71 254.30 213.26 252.79 210.94 251.07 Z" />
</g>
</svg>
