<?xml version="1.0" encoding="utf-8"?>
<!-- Generator: Adobe Illustrator 20.0.0, SVG Export Plug-In . SVG Version: 6.00 Build 0)  -->
<svg version="1.1" id="Layer_1" xmlns="http://www.w3.org/2000/svg" xmlns:xlink="http://www.w3.org/1999/xlink" x="0px" y="0px"
	 viewBox="0 0 1032.4 2056.5" style="enable-background:new 0 0 1032.4 2056.5;" xml:space="preserve">
<style type="text/css">
.fillpulse {
	animation: fillpulse 3s infinite;
}

@keyframes fillpulse {
	0%, 20%, 40%, 60%, 100% {
		fill: rgba(255,255,255,0);
	}
	10%, 30%, 50% {
		fill: #0078CC;
	}
}
</style>
<g>
	<path d="M939,108c-9-10.7-18.4-21.7-27.2-32.7c-1.2-1.6-2.5-3.2-3.8-4.8c0,0,0,0,0,0h0c0,0,0-0.1-0.1-0.1
		c-17.4-20.9-39.7-37.7-66.4-49.8C814,8.1,783,1.2,749.4,0.1l0,0C683.2-2,613.7,18.9,553.7,58.9c-60,40-102.6,94.3-120.1,153.1
		c-39.5,133.1-79.2,267.2-119.2,402.1c-29.6,99.8-59.3,200.1-89.2,300.8c-32.9,110.9-66,222.4-99.2,334.5
		c-38.7,130.3-77.6,261.4-116.7,393.4c-9.5,32.2-11.7,63.5-6.5,93.2c3.3,18.6,9.4,36,18.2,51.9l53.7,113.7l1.8,3.9
		c2.8,5.9,2.8,6,5.3,10.7c1.2,2.3,2.9,5.6,5.9,11.3c5.3,10.2,11.7,20,19.1,29c23.2,28.4,54.9,49,92.6,60.7
		c35.4,20.3,72.4,32.9,109.9,37.4c10,1.2,20,1.8,29.8,1.8c29.2,0,57.5-5.3,84.3-15.7c82.5-32.1,145.7-111.2,182.6-228.7
		c3.2-8,5.9-16.1,8.2-24.3c41-144.6,81.8-288.2,122.3-430.7c29.1-102.6,58.1-204.7,87-306.3c28.4-100,56.6-199.5,84.7-298.5
		c39.3-138.7,78.4-276.5,117.3-413.4C1052.8,242.6,995,174.1,939,108z M17.4,1645.4c39.1-132,78.1-263.2,116.7-393.4
		c33.3-112.1,66.4-223.6,99.2-334.5c29.9-100.8,59.6-201,89.2-300.8c40-134.9,79.7-269,119.2-402.1
		c16.9-56.9,58.3-109.6,116.6-148.5C614.3,28.7,678.5,8.5,740.2,8.5c3,0,5.9,0,8.9,0.1l0.1-4.2l-0.1,4.3c64,2,118,25.9,152.2,67.1
		c3.3,4.4,6.6,10.1,9.6,16.6c0,0,0,0,0,0.1c3.5,4.3,6.8,8.7,9.9,13.3c17.7,35.6,20.8,77.1,8.6,120.2
		C891.5,360,853.2,495,814.6,630.9c-27.5,97-55.1,194.4-82.9,292.3c-28,98.7-56.1,197.8-84.4,297.4
		c-39.9,140.5-80.1,282-120.5,424.6c-17.3,61-60.2,118.5-120.9,162.1c-60.8,43.6-132,67.6-200.6,67.6c-68.2,0-125.4-24-160.9-67.4
		C8.8,1764-0.7,1706.5,17.4,1645.4z M28.4,1800.2c2.8,4.2,5.8,8.2,9,12.1l5.7,11.6C37.5,1816.5,32.6,1808.5,28.4,1800.2z
		 M420.3,2032.8c-34.6,13.5-71.6,18-110.1,13.4c-25.8-3.1-51.3-10.1-76.2-21c5.1,0.8,10.4,1.5,15.6,2c0.1,0,0.3,0,0.4,0
		c1.2,0.1,2.5,0.2,3.8,0.3c0.8,0.1,1.6,0.1,2.4,0.2c1.1,0.1,2.1,0.1,3.2,0.2c1.1,0.1,2.1,0.1,3.2,0.2c0.9,0,1.8,0.1,2.8,0.1
		c1.3,0.1,2.6,0.1,3.9,0.1c0.7,0,1.5,0,2.2,0.1c2.1,0,4.1,0.1,6.2,0.1c71.8,0,146.3-25.1,209.8-70.6c2.1-1.5,4.3-3.1,6.4-4.7
		c0.3-0.2,0.6-0.5,0.9-0.7c1.9-1.4,3.7-2.8,5.6-4.3c0.1-0.1,0.2-0.1,0.2-0.2c29.7-23.3,54.9-49.9,74.6-78.5
		C538.3,1951.5,485.5,2007.4,420.3,2032.8z M1017.3,336.6C978.4,473.5,939.3,611.3,900,750c-28.1,99-56.3,198.5-84.7,298.5
		c-28.8,101.6-57.8,203.7-87,306.3c-40.5,142.6-81.2,286.1-122.3,430.7c-2.2,7.9-4.9,15.8-8,23.5l0,0
		c-19.1,48.2-54.5,94.1-100.6,130.7c-0.2,0.2-0.4,0.3-0.6,0.5c-1.3,1-2.6,2.1-4,3.1c-0.7,0.6-1.5,1.1-2.2,1.7
		c-0.9,0.7-1.8,1.4-2.8,2.1c-1.8,1.3-3.5,2.6-5.3,3.9c-7.8,5.6-15.7,10.8-23.7,15.8c-56.5,34.5-119.8,53.3-181.1,53.3
		c-2,0-3.9,0-5.8-0.1c-0.7,0-1.3,0-2-0.1c-1.3,0-2.6-0.1-3.8-0.1c-0.8,0-1.6-0.1-2.4-0.1c-1.1-0.1-2.2-0.1-3.3-0.2
		c-0.8-0.1-1.7-0.1-2.5-0.2c0,0-0.1,0-0.1,0c-3-0.2-5.9-0.5-8.8-0.8c-0.4,0-0.7-0.1-1.1-0.1c-1.5-0.2-3-0.3-4.4-0.5
		c-0.1,0-0.1,0-0.2,0c-14.3-1.8-28-4.7-41.1-8.8l-4.6-1.4c-34.2-11.4-62.9-30.6-84.1-56.5c-7-8.5-13.1-17.8-18.1-27.5
		c-2.9-5.7-4.7-9.1-5.9-11.3c-2.4-4.6-2.4-4.6-5.1-10.4L53,1835.9c-1.9-2.1-3.8-4.3-5.7-6.5c-0.9-1.1-1.7-2.1-2.5-3.2l-5.9-12
		c37.3,44.6,96.2,69.2,166.4,69.2c70.3,0,143.3-24.6,205.5-69.2c62.2-44.7,106.3-103.9,124.2-166.7
		c40.4-142.6,80.6-284.1,120.5-424.6c28.3-99.6,56.4-198.7,84.4-297.4c27.8-97.9,55.4-195.3,82.9-292.3
		c38.5-135.9,76.8-270.9,114.9-405c8.4-29.5,9.9-58.4,4.4-86c-1.8-9.1-4.3-17.9-7.5-26.3c26.7,31.6,54,64.2,71,99.6
		C1025.2,255.8,1028.9,295.4,1017.3,336.6z"/>
	<path d="M558.7,177.5L820.9,199c0.5,0,1,0.1,1.5,0.1c7.4,0,13.9-4.4,14.7-10.4l3.4-25.2c0.3-2.5-0.4-5.1-2.2-7.2
		c-2.4-3-6.4-4.8-10.9-5.2L572,132.8c-7-0.5-13.8,3.5-15.7,9.1l-7.6,23.2c-0.9,2.7-0.5,5.4,1,7.6
		C551.5,175.4,554.7,177.1,558.7,177.5z"/>
	<path d="M80.1,1730.2l282.2,23.2c0.5,0,1,0.1,1.5,0.1c7,0,13-4,13.8-9.4l3.7-27.1c0.3-2.2-0.4-4.3-1.9-6.2c-2.2-2.7-6-4.5-10.3-4.8
		l-275-19.8c-6.5-0.5-13.2,3.3-14.8,8.4l-8.2,24.9c-0.7,2.3-0.5,4.6,0.8,6.5C73.5,1728.3,76.5,1729.9,80.1,1730.2z"/>
	<path d="M391.8,886.6l1.9,0.3l134.4,18.5c1,0.2,2,0.3,2.9,0.3l0,0l3.6-0.1l10.9-2.3l40.3-147l0.4-1.6l0-0.1l51-181l44-147.4
		l-4.9-8.3l0.3-0.9l-4.7-0.4L625.6,574c-2.1,0.8-4.1,1.7-6.1,2.7c-2.6,1.3-5.1,2.8-7.6,4.4c-22.5,12.9-37.4,38.1-45,66.7
		c-7.9,29.9-7.6,63.6,0.7,91c1.8,6.1,4.1,11.9,6.8,17.3L538,894.7c-0.8,2.9-1.9,4.8-3.4,5.8c-1.4,1-3.3,1.2-5.7,0.7l-0.1,0
		l-134.5-18.5l-1.9-0.3c-1.7-0.2-2.5-0.9-2.8-2c-0.4-1.5-0.1-3.8,0.6-6.7l36.5-138.9l0.2-0.7l-0.3-0.6c-4.4-10.9-7.7-22.9-9.9-35.3
		c-2.2-12.3-3.1-25.1-2.8-37.7c0.4-14.2,2.4-28.3,6.2-41.3c3.6-12.1,8.8-23.4,15.7-33c5-6.9,10.8-12.9,17.7-17.9
		c6.4-4.7,13.8-8.5,22-11l1.1-0.3l0.3-1.1l43.5-152.4l-4.5-0.4l-0.5,1.7l-42.3,148.9c-8.2,2.7-15.6,6.5-22.1,11.3
		c-7.2,5.3-13.4,11.6-18.6,18.9c-7.2,10-12.6,21.7-16.4,34.2c-4,13.4-6,27.8-6.4,42.4c-0.3,12.9,0.7,25.9,2.9,38.5
		c2.2,12.4,5.5,24.4,9.9,35.5l-36.4,138.2c-0.9,3.5-1.3,6.5-0.6,8.9C386.3,884.3,388.2,886.1,391.8,886.6z"/>
</g>
<path class="fillpulse" d="M519,407.6l-42,148l-0.1,0.3l-0.3,1.1l-1.1,0.3c-8.2,2.6-15.6,6.3-22,11c-5.9,4.3-11.1,9.4-15.6,15.1
	c-0.7,0.9-1.4,1.8-2.1,2.8c-6.9,9.6-12.1,20.8-15.7,33c-3.9,13-5.9,27.1-6.2,41.3c0,1.4-0.1,2.9-0.1,4.3c0,11.2,1,22.4,2.9,33.4
	c2.2,12.4,5.5,24.3,9.9,35.3l0.3,0.6l-0.1,0.4l-0.1,0.3l-36.5,138.9c-0.7,2.8-1,5.1-0.6,6.7c0.3,1.1,1.2,1.8,2.8,2l1.9,0.3
	l134.5,18.5l0.1,0c2.4,0.5,4.3,0.2,5.7-0.7c1.5-1,2.6-2.9,3.4-5.8l36.5-138.6c-0.3-0.5-0.5-1-0.7-1.5c-2.3-5-4.4-10.3-6-15.8
	c-8.3-27.4-8.5-61.1-0.7-91c7.9-30,24-56.3,48.4-68.5c3.1-1.6,6.4-2.9,9.8-4l0.9-3l44.9-151.4L519,407.6z"/>
</svg>
